  0
SECTION
  2
HEADER
  9
$ACADVER
  1
AC1032
  9
$ACADMAINTVER
 90
      155
  9
$DWGCODEPAGE
  3
ANSI_1252
  9
$REQUIREDVERSIONS
160
                 0
  9
$INSBASE
 10
0.0
 20
0.0
 30
0.0
  9
$EXTMIN
 10
1.000000000000000E+20
 20
1.000000000000000E+20
 30
1.000000000000000E+20
  9
$EXTMAX
 10
-1.000000000000000E+20
 20
-1.000000000000000E+20
 30
-1.000000000000000E+20
  9
$LIMMIN
 10
0.0
 20
0.0
  9
$LIMMAX
 10
12.0
 20
9.0
  9
$ORTHOMODE
 70
     0
  9
$REGENMODE
 70
     1
  9
$FILLMODE
 70
     1
  9
$QTEXTMODE
 70
     0
  9
$MIRRTEXT
 70
     0
  9
$LTSCALE
 40
1.0
  9
$ATTMODE
 70
     1
  9
$TEXTSIZE
 40
0.2
  9
$TRACEWID
 40
0.05
  9
$TEXTSTYLE
  7
Standard
  9
$CLAYER
  8
0
  9
$CELTYPE
  6
ByLayer
  9
$CECOLOR
 62
   256
  9
$CELTSCALE
 40
1.0
  9
$DISPSILH
 70
     0
  9
$DIMSCALE
 40
1.0
  9
$DIMASZ
 40
0.18
  9
$DIMEXO
 40
0.0625
  9
$DIMDLI
 40
0.38
  9
$DIMRND
 40
0.0
  9
$DIMDLE
 40
0.0
  9
$DIMEXE
 40
0.18
  9
$DIMTP
 40
0.0
  9
$DIMTM
 40
0.0
  9
$DIMTXT
 40
0.18
  9
$DIMCEN
 40
0.09
  9
$DIMTSZ
 40
0.0
  9
$DIMTOL
 70
     0
  9
$DIMLIM
 70
     0
  9
$DIMTIH
 70
     1
  9
$DIMTOH
 70
     1
  9
$DIMSE1
 70
     0
  9
$DIMSE2
 70
     0
  9
$DIMTAD
 70
     0
  9
$DIMZIN
 70
     0
  9
$DIMBLK
  1

  9
$DIMASO
 70
     1
  9
$DIMSHO
 70
     1
  9
$DIMPOST
  1

  9
$DIMAPOST
  1

  9
$DIMALT
 70
     0
  9
$DIMALTD
 70
     2
  9
$DIMALTF
 40
25.4
  9
$DIMLFAC
 40
1.0
  9
$DIMTOFL
 70
     0
  9
$DIMTVP
 40
0.0
  9
$DIMTIX
 70
     0
  9
$DIMSOXD
 70
     0
  9
$DIMSAH
 70
     0
  9
$DIMBLK1
  1

  9
$DIMBLK2
  1

  9
$DIMSTYLE
  2
Standard
  9
$DIMCLRD
 70
     0
  9
$DIMCLRE
 70
     0
  9
$DIMCLRT
 70
     0
  9
$DIMTFAC
 40
1.0
  9
$DIMGAP
 40
0.09
  9
$DIMJUST
 70
     0
  9
$DIMSD1
 70
     0
  9
$DIMSD2
 70
     0
  9
$DIMTOLJ
 70
     1
  9
$DIMTZIN
 70
     0
  9
$DIMALTZ
 70
     0
  9
$DIMALTTZ
 70
     0
  9
$DIMUPT
 70
     0
  9
$DIMDEC
 70
     4
  9
$DIMTDEC
 70
     4
  9
$DIMALTU
 70
     2
  9
$DIMALTTD
 70
     2
  9
$DIMTXSTY
  7
Standard
  9
$DIMAUNIT
 70
     0
  9
$DIMADEC
 70
     0
  9
$DIMALTRND
 40
0.0
  9
$DIMAZIN
 70
     0
  9
$DIMDSEP
 70
    46
  9
$DIMATFIT
 70
     3
  9
$DIMFRAC
 70
     0
  9
$DIMLDRBLK
  1

  9
$DIMLUNIT
 70
     2
  9
$DIMLWD
 70
    -2
  9
$DIMLWE
 70
    -2
  9
$DIMTMOVE
 70
     0
  9
$DIMFXL
 40
1.0
  9
$DIMFXLON
 70
     0
  9
$DIMJOGANG
 40
0.7853981633974483
  9
$DIMTFILL
 70
     0
  9
$DIMTFILLCLR
 70
     0
  9
$DIMARCSYM
 70
     0
  9
$DIMLTYPE
  6

  9
$DIMLTEX1
  6

  9
$DIMLTEX2
  6

  9
$DIMTXTDIRECTION
 70
     0
  9
$LUNITS
 70
     2
  9
$LUPREC
 70
     4
  9
$SKETCHINC
 40
0.1
  9
$FILLETRAD
 40
0.0
  9
$AUNITS
 70
     0
  9
$AUPREC
 70
     0
  9
$MENU
  1
.
  9
$ELEVATION
 40
0.0
  9
$PELEVATION
 40
0.0
  9
$THICKNESS
 40
0.0
  9
$LIMCHECK
 70
     0
  9
$CHAMFERA
 40
0.0
  9
$CHAMFERB
 40
0.0
  9
$CHAMFERC
 40
0.0
  9
$CHAMFERD
 40
0.0
  9
$SKPOLY
 70
     0
  9
$TDCREATE
 40
2460105.079340278
  9
$TDUCREATE
 40
2460105.246006944
  9
$TDUPDATE
 40
2460105.079340278
  9
$TDUUPDATE
 40
2460105.246006944
  9
$TDINDWG
 40
0.0000000000
  9
$TDUSRTIMER
 40
0.0000000000
  9
$USRTIMER
 70
     1
  9
$ANGBASE
 50
0.0
  9
$ANGDIR
 70
     0
  9
$PDMODE
 70
     0
  9
$PDSIZE
 40
0.0
  9
$PLINEWID
 40
0.0
  9
$SPLFRAME
 70
     0
  9
$SPLINETYPE
 70
     6
  9
$SPLINESEGS
 70
     8
  9
$HANDSEED
  5
A9
  9
$SURFTAB1
 70
     6
  9
$SURFTAB2
 70
     6
  9
$SURFTYPE
 70
     6
  9
$SURFU
 70
     6
  9
$SURFV
 70
     6
  9
$UCSBASE
  2

  9
$UCSNAME
  2

  9
$UCSORG
 10
0.0
 20
0.0
 30
0.0
  9
$UCSXDIR
 10
1.0
 20
0.0
 30
0.0
  9
$UCSYDIR
 10
0.0
 20
1.0
 30
0.0
  9
$UCSORTHOREF
  2

  9
$UCSORTHOVIEW
 70
     0
  9
$UCSORGTOP
 10
0.0
 20
0.0
 30
0.0
  9
$UCSORGBOTTOM
 10
0.0
 20
0.0
 30
0.0
  9
$UCSORGLEFT
 10
0.0
 20
0.0
 30
0.0
  9
$UCSORGRIGHT
 10
0.0
 20
0.0
 30
0.0
  9
$UCSORGFRONT
 10
0.0
 20
0.0
 30
0.0
  9
$UCSORGBACK
 10
0.0
 20
0.0
 30
0.0
  9
$PUCSBASE
  2

  9
$PUCSNAME
  2

  9
$PUCSORG
 10
0.0
 20
0.0
 30
0.0
  9
$PUCSXDIR
 10
1.0
 20
0.0
 30
0.0
  9
$PUCSYDIR
 10
0.0
 20
1.0
 30
0.0
  9
$PUCSORTHOREF
  2

  9
$PUCSORTHOVIEW
 70
     0
  9
$PUCSORGTOP
 10
0.0
 20
0.0
 30
0.0
  9
$PUCSORGBOTTOM
 10
0.0
 20
0.0
 30
0.0
  9
$PUCSORGLEFT
 10
0.0
 20
0.0
 30
0.0
  9
$PUCSORGRIGHT
 10
0.0
 20
0.0
 30
0.0
  9
$PUCSORGFRONT
 10
0.0
 20
0.0
 30
0.0
  9
$PUCSORGBACK
 10
0.0
 20
0.0
 30
0.0
  9
$USERI1
 70
     0
  9
$USERI2
 70
     0
  9
$USERI3
 70
     0
  9
$USERI4
 70
     0
  9
$USERI5
 70
     0
  9
$USERR1
 40
0.0
  9
$USERR2
 40
0.0
  9
$USERR3
 40
0.0
  9
$USERR4
 40
0.0
  9
$USERR5
 40
0.0
  9
$WORLDVIEW
 70
     1
  9
$SHADEDGE
 70
     3
  9
$SHADEDIF
 70
    70
  9
$TILEMODE
 70
     1
  9
$MAXACTVP
 70
    64
  9
$PINSBASE
 10
0.0
 20
0.0
 30
0.0
  9
$PLIMCHECK
 70
     0
  9
$PEXTMIN
 10
1.000000000000000E+20
 20
1.000000000000000E+20
 30
1.000000000000000E+20
  9
$PEXTMAX
 10
-1.000000000000000E+20
 20
-1.000000000000000E+20
 30
-1.000000000000000E+20
  9
$PLIMMIN
 10
0.0
 20
0.0
  9
$PLIMMAX
 10
12.0
 20
9.0
  9
$UNITMODE
 70
     0
  9
$VISRETAIN
 70
     1
  9
$PLINEGEN
 70
     0
  9
$PSLTSCALE
 70
     1
  9
$TREEDEPTH
 70
  3020
  9
$CMLSTYLE
  2
Standard
  9
$CMLJUST
 70
     0
  9
$CMLSCALE
 40
1.0
  9
$PROXYGRAPHICS
 70
     1
  9
$MEASUREMENT
 70
     0
  9
$CELWEIGHT
370
    -1
  9
$ENDCAPS
280
     0
  9
$JOINSTYLE
280
     0
  9
$LWDISPLAY
290
     1
  9
$INSUNITS
 70
     4
  9
$HYPERLINKBASE
  1

  9
$STYLESHEET
  1

  9
$XEDIT
290
     1
  9
$CEPSNTYPE
380
     0
  9
$PSTYLEMODE
290
     1
  9
$FINGERPRINTGUID
  2
{15A938DC-133B-244A-9FB8-16AE40A87E41}
  9
$VERSIONGUID
  2
{AD043306-EAE0-EF4F-A69B-17975795514A}
  9
$EXTNAMES
290
     1
  9
$PSVPSCALE
 40
0.0
  9
$OLESTARTUP
290
     0
  9
$SORTENTS
280
   127
  9
$INDEXCTL
280
     0
  9
$HIDETEXT
280
     1
  9
$XCLIPFRAME
280
     2
  9
$HALOGAP
280
     0
  9
$OBSCOLOR
 70
   257
  9
$OBSLTYPE
280
     0
  9
$INTERSECTIONDISPLAY
280
     0
  9
$INTERSECTIONCOLOR
 70
   257
  9
$DIMASSOC
280
     2
  9
$PROJECTNAME
  1

  9
$CAMERADISPLAY
290
     0
  9
$LENSLENGTH
 40
50.0
  9
$CAMERAHEIGHT
 40
0.0
  9
$STEPSPERSEC
 40
2.0
  9
$STEPSIZE
 40
6.0
  9
$3DDWFPREC
 40
2.0
  9
$PSOLWIDTH
 40
0.25
  9
$PSOLHEIGHT
 40
4.0
  9
$LOFTANG1
 40
1.570796326794896
  9
$LOFTANG2
 40
1.570796326794896
  9
$LOFTMAG1
 40
0.0
  9
$LOFTMAG2
 40
0.0
  9
$LOFTPARAM
 70
     7
  9
$LOFTNORMALS
280
     1
  9
$LATITUDE
 40
37.795
  9
$LONGITUDE
 40
-122.394
  9
$NORTHDIRECTION
 40
0.0
  9
$TIMEZONE
 70
 -8000
  9
$LIGHTGLYPHDISPLAY
280
     1
  9
$TILEMODELIGHTSYNCH
280
     1
  9
$CMATERIAL
347
11
  9
$SOLIDHIST
280
     0
  9
$SHOWHIST
280
     1
  9
$DWFFRAME
280
     2
  9
$DGNFRAME
280
     0
  9
$REALWORLDSCALE
290
     1
  9
$INTERFERECOLOR
 62
     1
  9
$INTERFEREOBJVS
345
33
  9
$INTERFEREVPVS
346
30
  9
$CSHADOW
280
     0
  9
$SHADOWPLANELOCATION
 40
0.0
  0
ENDSEC
  0
SECTION
  2
CLASSES
  0
CLASS
  1
ACDBDICTIONARYWDFLT
  2
AcDbDictionaryWithDefault
  3
ObjectDBX Classes
 90
        0
 91
        1
280
     0
281
     0
  0
CLASS
  1
MATERIAL
  2
AcDbMaterial
  3
ObjectDBX Classes
 90
     1153
 91
        3
280
     0
281
     0
  0
CLASS
  1
VISUALSTYLE
  2
AcDbVisualStyle
  3
ObjectDBX Classes
 90
     4095
 91
       24
280
     0
281
     0
  0
CLASS
  1
SCALE
  2
AcDbScale
  3
ObjectDBX Classes
 90
     1153
 91
       17
280
     0
281
     0
  0
CLASS
  1
TABLESTYLE
  2
AcDbTableStyle
  3
ObjectDBX Classes
 90
     4095
 91
        1
280
     0
281
     0
  0
CLASS
  1
MLEADERSTYLE
  2
AcDbMLeaderStyle
  3
ACDB_MLEADERSTYLE_CLASS
 90
     4095
 91
        1
280
     0
281
     0
  0
CLASS
  1
ACDBSECTIONVIEWSTYLE
  2
AcDbSectionViewStyle
  3
ObjectDBX Classes
 90
     1025
 91
        1
280
     0
281
     0
  0
CLASS
  1
ACDBDETAILVIEWSTYLE
  2
AcDbDetailViewStyle
  3
ObjectDBX Classes
 90
     1025
 91
        1
280
     0
281
     0
  0
CLASS
  1
DICTIONARYVAR
  2
AcDbDictionaryVar
  3
ObjectDBX Classes
 90
        0
 91
        5
280
     0
281
     0
  0
CLASS
  1
CELLSTYLEMAP
  2
AcDbCellStyleMap
  3
ObjectDBX Classes
 90
     1152
 91
        1
280
     0
281
     0
  0
ENDSEC
  0
SECTION
  2
TABLES
  0
TABLE
  2
VPORT
  5
8
330
0
100
AcDbSymbolTable
 70
     1
  0
VPORT
  5
57
330
8
100
AcDbSymbolTableRecord
100
AcDbViewportTableRecord
  2
*Active
 70
     0
 10
0.0
 20
0.0
 11
1.0
 21
1.0
 12
0.0
 22
0.0
 13
0.0
 23
0.0
 14
1.0
 24
1.0
 15
0.0
 25
0.0
 16
0.0
 26
0.0
 36
1.0
 17
959.8000024541807
 27
539.6799989781628
 37
0.0
 40
95.18388960061979
 41
3.037634408602201
 42
50.0
 43
0.0
 44
0.0
 50
0.0
 51
0.0
 71
     0
 72
   100
 73
     1
 74
     0
 75
     1
 76
     0
 77
     0
 78
     0
281
     0
 65
     1
110
0.0
120
0.0
130
0.0
111
1.0
121
0.0
131
0.0
112
0.0
122
1.0
132
0.0
 79
     0
146
0.0
 60
     3
 61
     5
292
     1
282
     1
141
0.0
142
0.0
 63
   250
421
  3355443
  0
ENDTAB
  0
TABLE
  2
LTYPE
  5
5
330
0
100
AcDbSymbolTable
 70
     1
  0
LTYPE
  5
5B
330
5
100
AcDbSymbolTableRecord
100
AcDbLinetypeTableRecord
  2
ByBlock
 70
     0
  3

 72
    65
 73
     0
 40
0.0
  0
LTYPE
  5
5C
330
5
100
AcDbSymbolTableRecord
100
AcDbLinetypeTableRecord
  2
ByLayer
 70
     0
  3

 72
    65
 73
     0
 40
0.0
  0
LTYPE
  5
5D
330
5
100
AcDbSymbolTableRecord
100
AcDbLinetypeTableRecord
  2
Continuous
 70
     0
  3
Solid line
 72
    65
 73
     0
 40
0.0
  0
ENDTAB
  0
TABLE
  2
LAYER
  5
2
330
0
100
AcDbSymbolTable
 70
     2
  0
LAYER
  5
54
330
2
100
AcDbSymbolTableRecord
100
AcDbLayerTableRecord
  2
0
 70
     0
 62
     7
  6
Continuous
370
    -3
390
F
347
21
348
0
  0
LAYER
  5
78
330
2
100
AcDbSymbolTableRecord
100
AcDbLayerTableRecord
  2
Capa 1
 70
     0
 62
     7
  6
Continuous
370
     0
390
F
347
21
348
0
  0
ENDTAB
  0
TABLE
  2
STYLE
  5
3
330
0
100
AcDbSymbolTable
 70
     2
  0
STYLE
  5
55
330
3
100
AcDbSymbolTableRecord
100
AcDbTextStyleTableRecord
  2
Standard
 70
     0
 40
0.0
 41
1.0
 50
0.0
 71
     0
 42
0.2
  3
txt
  4

  0
STYLE
  5
5A
330
3
100
AcDbSymbolTableRecord
100
AcDbTextStyleTableRecord
  2
Annotative
 70
     0
 40
0.0
 41
1.0
 50
0.0
 71
     0
 42
0.2
  3
txt
  4

1001
AcadAnnotative
1000
AnnotativeData
1002
{
1070
     1
1070
     1
1002
}
  0
ENDTAB
  0
TABLE
  2
VIEW
  5
6
330
0
100
AcDbSymbolTable
 70
     0
  0
ENDTAB
  0
TABLE
  2
UCS
  5
7
330
0
100
AcDbSymbolTable
 70
     0
  0
ENDTAB
  0
TABLE
  2
APPID
  5
9
330
0
100
AcDbSymbolTable
 70
     2
  0
APPID
  5
56
330
9
100
AcDbSymbolTableRecord
100
AcDbRegAppTableRecord
  2
ACAD
 70
     0
  0
APPID
  5
5E
330
9
100
AcDbSymbolTableRecord
100
AcDbRegAppTableRecord
  2
AcadAnnotative
 70
     0
  0
ENDTAB
  0
TABLE
  2
DIMSTYLE
  5
A
330
0
100
AcDbSymbolTable
 70
     2
100
AcDbDimStyleTable
 71
     0
  0
DIMSTYLE
105
58
330
A
100
AcDbSymbolTableRecord
100
AcDbDimStyleTableRecord
  2
Standard
 70
     0
340
55
  0
DIMSTYLE
105
59
330
A
100
AcDbSymbolTableRecord
100
AcDbDimStyleTableRecord
  2
Annotative
 70
     0
340
55
1001
AcadAnnotative
1000
AnnotativeData
1002
{
1070
     1
1070
     1
1002
}
  0
ENDTAB
  0
TABLE
  2
BLOCK_RECORD
  5
1
330
0
100
AcDbSymbolTable
 70
     1
  0
BLOCK_RECORD
  5
70
330
1
100
AcDbSymbolTableRecord
100
AcDbBlockTableRecord
  2
*Model_Space
340
73
 70
     0
280
     1
281
     0
  0
BLOCK_RECORD
  5
6C
330
1
100
AcDbSymbolTableRecord
100
AcDbBlockTableRecord
  2
*Paper_Space
340
6F
 70
     0
280
     1
281
     0
  0
BLOCK_RECORD
  5
74
330
1
100
AcDbSymbolTableRecord
100
AcDbBlockTableRecord
  2
*Paper_Space0
340
77
 70
     0
280
     1
281
     0
  0
ENDTAB
  0
ENDSEC
  0
SECTION
  2
BLOCKS
  0
BLOCK
  5
71
330
70
100
AcDbEntity
  8
0
100
AcDbBlockBegin
  2
*Model_Space
 70
     0
 10
0.0
 20
0.0
 30
0.0
  3
*Model_Space
  1

  0
ENDBLK
  5
72
330
70
100
AcDbEntity
  8
0
100
AcDbBlockEnd
  0
BLOCK
  5
6D
330
6C
100
AcDbEntity
 67
     1
  8
0
100
AcDbBlockBegin
  2
*Paper_Space
 70
     0
 10
0.0
 20
0.0
 30
0.0
  3
*Paper_Space
  1

  0
ENDBLK
  5
6E
330
6C
100
AcDbEntity
 67
     1
  8
0
100
AcDbBlockEnd
  0
BLOCK
  5
75
330
74
100
AcDbEntity
 67
     1
  8
0
100
AcDbBlockBegin
  2
*Paper_Space0
 70
     0
 10
0.0
 20
0.0
 30
0.0
  3
*Paper_Space0
  1

  0
ENDBLK
  5
76
330
74
100
AcDbEntity
 67
     1
  8
0
100
AcDbBlockEnd
  0
ENDSEC
  0
SECTION
  2
ENTITIES
  0
SPLINE
  5
79
330
70
100
AcDbEntity
  8
Capa 1
 62
     7
370
    35
100
AcDbSpline
210
0.0
220
0.0
230
1.0
 70
     9
 71
     3
 72
    53
 73
    49
 74
     0
 42
0.0000000001
 43
0.0000000001
 40
0.0
 40
0.0
 40
0.0
 40
0.0
 40
1.0
 40
1.0
 40
1.0
 40
2.0
 40
2.0
 40
2.0
 40
3.0
 40
3.0
 40
3.0
 40
4.0
 40
4.0
 40
4.0
 40
5.0
 40
5.0
 40
5.0
 40
6.0
 40
6.0
 40
6.0
 40
7.0
 40
7.0
 40
7.0
 40
8.0
 40
8.0
 40
8.0
 40
9.0
 40
9.0
 40
9.0
 40
10.0
 40
10.0
 40
10.0
 40
11.0
 40
11.0
 40
11.0
 40
12.0
 40
12.0
 40
12.0
 40
13.0
 40
13.0
 40
13.0
 40
14.0
 40
14.0
 40
14.0
 40
15.0
 40
15.0
 40
15.0
 40
16.0
 40
16.0
 40
16.0
 40
16.0
 10
845.4876757442153
 20
549.8028505435435
 30
0.0
 10
841.7374355183765
 20
551.0342479533445
 30
0.0
 10
839.3407680433753
 20
549.0534487917123
 30
0.0
 10
837.0254995381712
 20
546.4794534951078
 30
0.0
 10
834.686285467562
 20
543.878841063052
 30
0.0
 10
833.5843767322812
 20
538.4085613214113
 30
0.0
 10
835.2265047687057
 20
535.3382045073407
 30
0.0
 10
837.4558389483608
 20
531.1699315209363
 30
0.0
 10
841.1363812367509
 20
529.9020242736729
 30
0.0
 10
845.6960683849983
 20
530.1936297798488
 30
0.0
 10
849.6724568447769
 20
530.4479269345007
 30
0.0
 10
852.6131369961836
 20
532.1728356101788
 30
0.0
 10
854.7403319963594
 20
535.46202224591
 30
0.0
 10
857.2093388593577
 20
539.2797475584101
 30
0.0
 10
856.9476905688134
 20
543.0854914631297
 30
0.0
 10
854.6478589677301
 20
546.8241343087393
 30
0.0
 10
853.6737684292573
 20
548.4076320586817
 30
0.0
 10
852.4752139525611
 20
549.8540256832741
 30
0.0
 10
851.3711692409414
 20
551.3730656035293
 30
0.0
 10
853.1224509549151
 20
551.6143832078227
 30
0.0
 10
854.7289722750374
 20
551.7051809111329
 30
0.0
 10
856.2671089631804
 20
552.0769409632642
 30
0.0
 10
858.864304085756
 20
552.7046691346591
 30
0.0
 10
860.826252610718
 20
554.4215483078121
 30
0.0
 10
861.7688423674334
 20
556.7897413918287
 30
0.0
 10
862.6303633356702
 20
558.9542542404476
 30
0.0
 10
861.0385851679088
 20
562.2774202373597
 30
0.0
 10
859.2183734662956
 20
563.5607395454159
 30
0.0
 10
853.7710161023472
 20
567.4013315650443
 30
0.0
 10
843.5637073456518
 20
563.2353524581621
 30
0.0
 10
843.6714336382314
 20
556.3942126074221
 30
0.0
 10
842.3154624354539
 20
556.3942126074221
 30
0.0
 10
840.8235288725029
 20
556.7390985948074
 30
0.0
 10
839.6334533778711
 20
556.289891920571
 30
0.0
 10
838.599516547922
 20
555.8996237172409
 30
0.0
 10
837.4372820162744
 20
554.7294216896208
 30
0.0
 10
837.1740681468921
 20
553.691739725133
 30
0.0
 10
836.7820501741263
 20
552.1462749042931
 30
0.0
 10
838.0497294083422
 20
551.4943362301086
 30
0.0
 10
839.5832342832692
 20
551.545241501661
 30
0.0
 10
840.6339250327112
 20
551.5801210395763
 30
0.0
 10
841.7615851284166
 20
551.7873317422471
 30
0.0
 10
842.717905234123
 20
551.4859998911584
 30
0.0
 10
843.7072304870321
 20
551.1742688731204
 30
0.0
 10
844.5311590136789
 20
550.3413225873885
 30
0.0
 10
845.4274362030798
 20
549.7363668541026
 30
0.0
 10
845.4274362030798
 20
549.7363668541026
 30
0.0
 10
845.4876757442153
 20
549.8028505435435
 30
0.0
 10
845.4876757442153
 20
549.8028505435435
 30
0.0
  0
SPLINE
  5
7A
330
70
100
AcDbEntity
  8
Capa 1
100
AcDbSpline
210
0.0
220
0.0
230
1.0
 70
     9
 71
     3
 72
    80
 73
    76
 74
     0
 42
0.0000000001
 43
0.0000000001
 40
0.0
 40
0.0
 40
0.0
 40
0.0
 40
1.0
 40
1.0
 40
1.0
 40
2.0
 40
2.0
 40
2.0
 40
3.0
 40
3.0
 40
3.0
 40
4.0
 40
4.0
 40
4.0
 40
5.0
 40
5.0
 40
5.0
 40
6.0
 40
6.0
 40
6.0
 40
7.0
 40
7.0
 40
7.0
 40
8.0
 40
8.0
 40
8.0
 40
9.0
 40
9.0
 40
9.0
 40
10.0
 40
10.0
 40
10.0
 40
11.0
 40
11.0
 40
11.0
 40
12.0
 40
12.0
 40
12.0
 40
13.0
 40
13.0
 40
13.0
 40
14.0
 40
14.0
 40
14.0
 40
15.0
 40
15.0
 40
15.0
 40
16.0
 40
16.0
 40
16.0
 40
17.0
 40
17.0
 40
17.0
 40
18.0
 40
18.0
 40
18.0
 40
19.0
 40
19.0
 40
19.0
 40
20.0
 40
20.0
 40
20.0
 40
21.0
 40
21.0
 40
21.0
 40
22.0
 40
22.0
 40
22.0
 40
23.0
 40
23.0
 40
23.0
 40
24.0
 40
24.0
 40
24.0
 40
25.0
 40
25.0
 40
25.0
 40
25.0
 10
868.9566040113513
 20
552.1750140169317
 30
0.0
 10
866.8835030988939
 20
553.8601189846377
 30
0.0
 10
865.3224763125946
 20
554.0095483224312
 30
0.0
 10
864.52325944621
 20
552.4335218545386
 30
0.0
 10
862.7751867978624
 20
548.9863662167233
 30
0.0
 10
861.0879417101903
 20
545.5035399205781
 30
0.0
 10
859.5286771275572
 20
541.9683518040809
 30
0.0
 10
858.6691261175236
 20
540.0195745351252
 30
0.0
 10
859.5994657763286
 20
538.9319207472395
 30
0.0
 10
861.7785771514784
 20
538.9476433412776
 30
0.0
 10
864.5380396975966
 20
538.9675618309754
 30
0.0
 10
864.8844926483929
 20
541.2571863066908
 30
0.0
 10
865.7487403949351
 20
543.0679019727846
 30
0.0
 10
866.6279242087677
 20
544.9099223476298
 30
0.0
 10
867.4112701124428
 20
546.8073839975265
 30
0.0
 10
868.4393731207784
 20
548.562625117149
 30
0.0
 10
868.7423645642983
 20
549.0799106605408
 30
0.0
 10
869.734125368171
 20
549.1965972249026
 30
0.0
 10
870.4102365413422
 20
549.4968717842224
 30
0.0
 10
870.5526522768398
 20
548.7156071031615
 30
0.0
 10
870.9863992324363
 20
547.8465724179451
 30
0.0
 10
870.78112661962
 20
547.170064649009
 30
0.0
 10
870.2347581551546
 20
545.3694376166159
 30
0.0
 10
869.2407528602942
 20
543.6954046378942
 30
0.0
 10
868.7780389863192
 20
541.8815466710864
 30
0.0
 10
868.565814016299
 20
541.0496133152322
 30
0.0
 10
869.0752726612258
 20
539.2562616331964
 30
0.0
 10
869.4434099918801
 20
539.2041844683196
 30
0.0
 10
870.4838113268591
 20
539.0570101933909
 30
0.0
 10
871.7409043544154
 20
539.3773363280844
 30
0.0
 10
872.6775471374933
 20
539.9179081681709
 30
0.0
 10
873.3251254508726
 20
540.2916534149879
 30
0.0
 10
873.6259837004794
 20
541.3154297746144
 30
0.0
 10
874.0059741694812
 20
542.0858590634529
 30
0.0
 10
875.0768115442131
 20
544.2569448657984
 30
0.0
 10
876.0365039512524
 20
546.4873683960801
 30
0.0
 10
877.2201965587086
 20
548.5938669798867
 30
0.0
 10
877.440357010083
 20
548.9856601232695
 30
0.0
 10
878.5866463809734
 20
549.1529192449907
 30
0.0
 10
879.1380454731701
 20
548.9566400519778
 30
0.0
 10
879.4620423843973
 20
548.841310222158
 30
0.0
 10
879.6964451513021
 20
547.7407619108736
 30
0.0
 10
879.5505940461298
 20
547.1949442770084
 30
0.0
 10
879.1873945956456
 20
545.8357402551426
 30
0.0
 10
878.503615054096
 20
544.5645576214895
 30
0.0
 10
878.092405755923
 20
543.214525420883
 30
0.0
 10
877.1751212438628
 20
540.2029961729851
 30
0.0
 10
878.1149990618828
 20
538.9625452403062
 30
0.0
 10
881.2169152839485
 20
538.953935336352
 30
0.0
 10
882.5119940027569
 20
538.9503383262422
 30
0.0
 10
883.9198277869227
 20
538.6409584885036
 30
0.0
 10
885.0681835734805
 20
539.0504372396634
 30
0.0
 10
886.0721499564355
 20
539.4084266210215
 30
0.0
 10
887.3006915746879
 20
540.4690640164244
 30
0.0
 10
887.5044097383748
 20
541.4168299702136
 30
0.0
 10
887.8116193409869
 20
542.8461183884534
 30
0.0
 10
886.508300928823
 20
543.3732744529085
 30
0.0
 10
885.1083247180596
 20
543.3267388277595
 30
0.0
 10
884.5185689443654
 20
543.3071308713095
 30
0.0
 10
883.9240644955278
 20
543.4292961293861
 30
0.0
 10
883.2854493064827
 20
543.4915284708032
 30
0.0
 10
883.8343145353023
 20
544.9367428084222
 30
0.0
 10
884.3584940731757
 20
546.166624520233
 30
0.0
 10
884.7718514048718
 20
547.4324430617287
 30
0.0
 10
886.240720504251
 20
551.930579989697
 30
0.0
 10
884.1586416278481
 20
554.3375342772159
 30
0.0
 10
879.5544226654646
 20
553.4543703292653
 30
0.0
 10
878.9499942275561
 20
553.3384305234244
 30
0.0
 10
878.4155864886097
 20
552.8043059450348
 30
0.0
 10
877.8161589992121
 20
552.7319332143763
 30
0.0
 10
877.0123641131965
 20
552.6348952715315
 30
0.0
 10
876.0557991539286
 20
552.5580678675078
 30
0.0
 10
875.3774805887951
 20
552.8961831210627
 30
0.0
 10
873.3105306946093
 20
553.926473285226
 30
0.0
 10
870.7473961864851
 20
553.7305194127563
 30
0.0
 10
868.9566040113513
 20
552.1750140169317
 30
0.0
  0
SPLINE
  5
7B
330
70
100
AcDbEntity
  8
Capa 1
100
AcDbSpline
210
0.0
220
0.0
230
1.0
 70
     9
 71
     3
 72
    53
 73
    49
 74
     0
 42
0.0000000001
 43
0.0000000001
 40
0.0
 40
0.0
 40
0.0
 40
0.0
 40
1.0
 40
1.0
 40
1.0
 40
2.0
 40
2.0
 40
2.0
 40
3.0
 40
3.0
 40
3.0
 40
4.0
 40
4.0
 40
4.0
 40
5.0
 40
5.0
 40
5.0
 40
6.0
 40
6.0
 40
6.0
 40
7.0
 40
7.0
 40
7.0
 40
8.0
 40
8.0
 40
8.0
 40
9.0
 40
9.0
 40
9.0
 40
10.0
 40
10.0
 40
10.0
 40
11.0
 40
11.0
 40
11.0
 40
12.0
 40
12.0
 40
12.0
 40
13.0
 40
13.0
 40
13.0
 40
14.0
 40
14.0
 40
14.0
 40
15.0
 40
15.0
 40
15.0
 40
16.0
 40
16.0
 40
16.0
 40
16.0
 10
911.3560107339903
 20
545.9990585620889
 30
0.0
 10
913.0392973557405
 20
543.6234977071052
 30
0.0
 10
914.3117271200525
 20
541.5188771100778
 30
0.0
 10
915.9311143818937
 20
539.7253331931746
 30
0.0
 10
916.4353569039668
 20
539.1668724199688
 30
0.0
 10
918.1667609605785
 20
539.035476191445
 30
0.0
 10
918.8039886461046
 20
539.4750101247211
 30
0.0
 10
919.3476822708996
 20
539.8500233822952
 30
0.0
 10
919.5082913680439
 20
541.487376469635
 30
0.0
 10
919.1665277339529
 20
542.2779238766868
 30
0.0
 10
918.459961971515
 20
543.9123158077068
 30
0.0
 10
917.3060784302959
 20
545.3546835905626
 30
0.0
 10
916.2991218659623
 20
546.9341296209957
 30
0.0
 10
917.4910022281402
 20
547.791656091953
 30
0.0
 10
918.6797291732293
 20
548.5795565727563
 30
0.0
 10
919.7906817232222
 20
549.4644062726195
 30
0.0
 10
920.9998279714314
 20
550.4274585951722
 30
0.0
 10
921.2749914366257
 20
551.8630537957842
 30
0.0
 10
920.07348016767
 20
552.7153677443818
 30
0.0
 10
919.3405369987683
 20
553.2352891235476
 30
0.0
 10
917.7151842137776
 20
553.1005398753213
 30
0.0
 10
916.8066142625868
 20
552.6403813588943
 30
0.0
 10
915.4520843569146
 20
551.9543616608587
 30
0.0
 10
914.3764649179166
 20
550.7214929149576
 30
0.0
 10
912.6855878357391
 20
549.3054243406596
 30
0.0
 10
914.4100024361231
 20
553.6217181747721
 30
0.0
 10
915.8318299723559
 20
557.3590320120222
 30
0.0
 10
917.4050141090043
 20
561.0319730465469
 30
0.0
 10
918.0486079871458
 20
562.5345768856592
 30
0.0
 10
917.9796928391157
 20
563.7165440568321
 30
0.0
 10
916.5216714945193
 20
564.5094999449599
 30
0.0
 10
915.3229723316261
 20
565.1614219834333
 30
0.0
 10
913.4684069332667
 20
564.038326740327
 30
0.0
 10
912.9271841035075
 20
562.5655285476833
 30
0.0
 10
911.9768851694876
 20
559.9794945425237
 30
0.0
 10
910.9859108649363
 20
557.407772792906
 30
0.0
 10
909.9758676617582
 20
554.8441859053115
 30
0.0
 10
908.1546394468718
 20
550.2217635904918
 30
0.0
 10
906.2706100032031
 20
545.6232763650453
 30
0.0
 10
904.5209012878714
 20
540.9744014234576
 30
0.0
 10
904.3267027338874
 20
540.4584393431913
 30
0.0
 10
904.6342017088917
 20
539.3198617996285
 30
0.0
 10
905.0532797101739
 20
539.0880709117342
 30
0.0
 10
906.5566954212277
 20
538.2565552970328
 30
0.0
 10
908.3464488236737
 20
539.1582551223666
 30
0.0
 10
909.0541498162631
 20
540.8331864294113
 30
0.0
 10
909.7244772515058
 20
542.4196638197933
 30
0.0
 10
910.4536882585366
 20
543.9814390297465
 30
0.0
 10
911.3560107339903
 20
545.9990585620889
 30
0.0
  0
SPLINE
  5
7C
330
70
100
AcDbEntity
  8
Capa 1
100
AcDbSpline
210
0.0
220
0.0
230
1.0
 70
     9
 71
     3
 72
    38
 73
    34
 74
     0
 42
0.0000000001
 43
0.0000000001
 40
0.0
 40
0.0
 40
0.0
 40
0.0
 40
1.0
 40
1.0
 40
1.0
 40
2.0
 40
2.0
 40
2.0
 40
3.0
 40
3.0
 40
3.0
 40
4.0
 40
4.0
 40
4.0
 40
5.0
 40
5.0
 40
5.0
 40
6.0
 40
6.0
 40
6.0
 40
7.0
 40
7.0
 40
7.0
 40
8.0
 40
8.0
 40
8.0
 40
9.0
 40
9.0
 40
9.0
 40
10.0
 40
10.0
 40
10.0
 40
11.0
 40
11.0
 40
11.0
 40
11.0
 10
926.2362068925851
 20
543.6779075681588
 30
0.0
 10
926.2566929739501
 20
543.8806340228705
 30
0.0
 10
926.2771790553141
 20
544.0833604775821
 30
0.0
 10
926.2976577168741
 20
544.2860869322946
 30
0.0
 10
927.9793639201789
 20
544.2860869322946
 30
0.0
 10
929.6667314346315
 20
544.1990932612576
 30
0.0
 10
931.3413739836603
 20
544.307480454914
 30
0.0
 10
933.5780741746411
 20
544.4522480971783
 30
0.0
 10
935.2833234189349
 20
546.4943221227174
 30
0.0
 10
935.2867365291952
 20
548.8470402999292
 30
0.0
 10
935.2908248417026
 20
551.6662015949942
 30
0.0
 10
934.1407773396234
 20
553.2293557204353
 30
0.0
 10
931.8736707881084
 20
553.4861038696425
 30
0.0
 10
926.9099622776975
 20
554.0482392862708
 30
0.0
 10
923.3174633944029
 20
552.0212298200335
 30
0.0
 10
921.327887225849
 20
547.5358173615417
 30
0.0
 10
920.5133336227103
 20
545.699453127979
 30
0.0
 10
921.3679615921831
 20
541.7043837568821
 30
0.0
 10
922.8413270933399
 20
540.4610529980183
 30
0.0
 10
924.6350352518041
 20
538.9473845635705
 30
0.0
 10
933.4068102376424
 20
538.1511181692241
 30
0.0
 10
935.2791386489638
 20
539.4984332039182
 30
0.0
 10
935.8370782991915
 20
539.8999268144446
 30
0.0
 10
936.3444371393285
 20
541.0926406540553
 30
0.0
 10
936.1363264511325
 20
541.6479813074946
 30
0.0
 10
935.8734501828749
 20
542.3494796091601
 30
0.0
 10
934.9040897700337
 20
543.137483601045
 30
0.0
 10
934.1523448154822
 20
543.2374420351425
 30
0.0
 10
932.4018644404398
 20
543.4701977941976
 30
0.0
 10
930.5980059888543
 20
543.2752864262007
 30
0.0
 10
928.8181802853827
 20
543.330457833074
 30
0.0
 10
927.9547375876726
 20
543.3572228415006
 30
0.0
 10
927.0966965079393
 20
543.5566517288764
 30
0.0
 10
926.2362068925851
 20
543.6779075681588
 30
0.0
  0
SPLINE
  5
7D
330
70
100
AcDbEntity
  8
Capa 1
100
AcDbSpline
210
0.0
220
0.0
230
1.0
 70
     9
 71
     3
 72
    38
 73
    34
 74
     0
 42
0.0000000001
 43
0.0000000001
 40
0.0
 40
0.0
 40
0.0
 40
0.0
 40
1.0
 40
1.0
 40
1.0
 40
2.0
 40
2.0
 40
2.0
 40
3.0
 40
3.0
 40
3.0
 40
4.0
 40
4.0
 40
4.0
 40
5.0
 40
5.0
 40
5.0
 40
6.0
 40
6.0
 40
6.0
 40
7.0
 40
7.0
 40
7.0
 40
8.0
 40
8.0
 40
8.0
 40
9.0
 40
9.0
 40
9.0
 40
10.0
 40
10.0
 40
10.0
 40
11.0
 40
11.0
 40
11.0
 40
11.0
 10
987.1037380572861
 20
543.3141178693658
 30
0.0
 10
987.1113210979064
 20
543.6373164365932
 30
0.0
 10
987.11888929892
 20
543.9605187006456
 30
0.0
 10
987.1264723395404
 20
544.283717267874
 30
0.0
 10
988.6559612450584
 20
544.283717267874
 30
0.0
 10
990.2974892047597
 20
543.9345743872284
 30
0.0
 10
991.6851262799514
 20
544.3766739166165
 30
0.0
 10
993.2386701929978
 20
544.8716343376462
 30
0.0
 10
995.2590533915493
 20
545.7935742763978
 30
0.0
 10
995.7909940453619
 20
547.064069300719
 30
0.0
 10
996.3288260242764
 20
548.3486048639925
 30
0.0
 10
995.6716687427542
 20
550.5105484196745
 30
0.0
 10
994.8546146653592
 20
551.8846876119879
 30
0.0
 10
993.7493456859304
 20
553.7436024741965
 30
0.0
 10
990.0086361995022
 20
554.1222534069492
 30
0.0
 10
987.5916050699169
 20
553.0948948245098
 30
0.0
 10
983.8107395992993
 20
551.4878335160448
 30
0.0
 10
982.1193357109743
 20
548.5262298812433
 30
0.0
 10
982.5521922899808
 20
543.3703909299015
 30
0.0
 10
982.6563218321275
 20
542.1299917527615
 30
0.0
 10
983.7627928199539
 20
540.2312066397411
 30
0.0
 10
984.7737412393302
 20
539.9527987965601
 30
0.0
 10
987.4023406862006
 20
539.2289088296946
 30
0.0
 10
990.2326549494308
 20
539.2232674757082
 30
0.0
 10
992.9850761006859
 20
538.9579316034946
 30
0.0
 10
994.887558599173
 20
538.7745247529316
 30
0.0
 10
996.8681419641717
 20
539.0824295577478
 30
0.0
 10
996.9447885489225
 20
541.3164574917882
 30
0.0
 10
997.0331881046545
 20
543.8932475876152
 30
0.0
 10
994.7334492511325
 20
543.2569538741587
 30
0.0
 10
993.147614347106
 20
543.3006873064356
 30
0.0
 10
991.1344135197095
 20
543.3562099116246
 30
0.0
 10
989.1184822041042
 20
543.3141178693658
 30
0.0
 10
987.1037380572861
 20
543.3141178693658
 30
0.0
  0
SPLINE
  5
7E
330
70
100
AcDbEntity
  8
Capa 1
100
AcDbSpline
210
0.0
220
0.0
230
1.0
 70
     9
 71
     3
 72
    20
 73
    16
 74
     0
 42
0.0000000001
 43
0.0000000001
 40
0.0
 40
0.0
 40
0.0
 40
0.0
 40
1.0
 40
1.0
 40
1.0
 40
2.0
 40
2.0
 40
2.0
 40
3.0
 40
3.0
 40
3.0
 40
4.0
 40
4.0
 40
4.0
 40
5.0
 40
5.0
 40
5.0
 40
5.0
 10
895.213920934059
 20
538.9531700937074
 30
0.0
 10
899.170828696039
 20
538.9531848810053
 30
0.0
 10
899.558951271225
 20
539.2181695549051
 30
0.0
 10
902.0937792236066
 20
541.9301488210579
 30
0.0
 10
904.1275032313917
 20
544.1060072236625
 30
0.0
 10
904.813100625145
 20
550.7926456935758
 30
0.0
 10
901.4578871029636
 20
552.415754916624
 30
0.0
 10
899.7761141214144
 20
553.2293261458412
 30
0.0
 10
897.6671310323974
 20
553.4111581492229
 30
0.0
 10
895.7453570411374
 20
553.4371172499381
 30
0.0
 10
891.4325434969031
 20
553.4953828988076
 30
0.0
 10
887.7360634675596
 20
548.2585908874479
 30
0.0
 10
888.0757643958856
 20
544.3952060971748
 30
0.0
 10
888.3977542498824
 20
540.7332058143687
 30
0.0
 10
890.538768636709
 20
538.9531516095863
 30
0.0
 10
895.213920934059
 20
538.9531700937074
 30
0.0
  0
SPLINE
  5
7F
330
70
100
AcDbEntity
  8
Capa 1
 62
     7
370
    35
100
AcDbSpline
210
0.0
220
0.0
230
1.0
 70
     9
 71
     3
 72
    41
 73
    37
 74
     0
 42
0.0000000001
 43
0.0000000001
 40
0.0
 40
0.0
 40
0.0
 40
0.0
 40
1.0
 40
1.0
 40
1.0
 40
2.0
 40
2.0
 40
2.0
 40
3.0
 40
3.0
 40
3.0
 40
4.0
 40
4.0
 40
4.0
 40
5.0
 40
5.0
 40
5.0
 40
6.0
 40
6.0
 40
6.0
 40
7.0
 40
7.0
 40
7.0
 40
8.0
 40
8.0
 40
8.0
 40
9.0
 40
9.0
 40
9.0
 40
10.0
 40
10.0
 40
10.0
 40
11.0
 40
11.0
 40
11.0
 40
12.0
 40
12.0
 40
12.0
 40
12.0
 10
1034.623077282776
 20
546.7890551423086
 30
0.0
 10
1035.784410308126
 20
546.2761836072139
 30
0.0
 10
1037.759028149977
 20
545.5996092954389
 30
0.0
 10
1038.260770197795
 20
547.7177713601272
 30
0.0
 10
1038.683491323289
 20
549.5022987223956
 30
0.0
 10
1039.008241344716
 20
552.0118805512058
 30
0.0
 10
1036.72666617362
 20
552.735223388064
 30
0.0
 10
1034.732356169531
 20
553.3674875629599
 30
0.0
 10
1032.206802973292
 20
553.5853857848793
 30
0.0
 10
1030.280428702985
 20
552.9271662060932
 30
0.0
 10
1025.936993623875
 20
551.4430649729442
 30
0.0
 10
1023.762144926646
 20
546.2831299402012
 30
0.0
 10
1025.440935146621
 20
542.0490312990947
 30
0.0
 10
1025.914719369527
 20
540.8540882743901
 30
0.0
 10
1027.266355551284
 20
539.3203904455138
 30
0.0
 10
1028.367157808156
 20
539.1871273206846
 30
0.0
 10
1031.461765522381
 20
538.8124985328435
 30
0.0
 10
1034.644357283264
 20
538.9702235445192
 30
0.0
 10
1037.769861065149
 20
539.2091603939199
 30
0.0
 10
1038.347492877615
 20
539.2533152641745
 30
0.0
 10
1039.290238450232
 20
540.7128400089232
 30
0.0
 10
1039.208205087116
 20
541.420560066001
 30
0.0
 10
1039.127596326544
 20
542.116054724893
 30
0.0
 10
1038.030340736419
 20
543.0853214092093
 30
0.0
 10
1037.249806938808
 20
543.2271131078567
 30
0.0
 10
1035.684955243075
 20
543.5113693271885
 30
0.0
 10
1034.030798775409
 20
543.3499807625631
 30
0.0
 10
1032.415477566661
 20
543.3037593674851
 30
0.0
 10
1030.862364002302
 20
543.2593272354024
 30
0.0
 10
1029.695970669999
 20
543.5903113147506
 30
0.0
 10
1029.615139315279
 20
545.4513888192137
 30
0.0
 10
1029.547366817204
 20
547.0117629327319
 30
0.0
 10
1031.113806351189
 20
549.3337272280225
 30
0.0
 10
1032.372042028701
 20
549.0142624534074
 30
0.0
 10
1033.254746539965
 20
548.7901498697245
 30
0.0
 10
1033.881838771981
 20
547.5663937958917
 30
0.0
 10
1034.623077282776
 20
546.7890551423086
 30
0.0
  0
SPLINE
  5
80
330
70
100
AcDbEntity
  8
Capa 1
 62
     7
370
    35
100
AcDbSpline
210
0.0
220
0.0
230
1.0
 70
     9
 71
     3
 72
    23
 73
    19
 74
     0
 42
0.0000000001
 43
0.0000000001
 40
0.0
 40
0.0
 40
0.0
 40
0.0
 40
1.0
 40
1.0
 40
1.0
 40
2.0
 40
2.0
 40
2.0
 40
3.0
 40
3.0
 40
3.0
 40
4.0
 40
4.0
 40
4.0
 40
5.0
 40
5.0
 40
5.0
 40
6.0
 40
6.0
 40
6.0
 40
6.0
 10
820.0421411275124
 20
579.1708336732678
 30
0.0
 10
821.810844311552
 20
583.5860993514734
 30
0.0
 10
823.1653674930267
 20
584.659293472947
 30
0.0
 10
826.8857365117622
 20
584.5930415281839
 30
0.0
 10
830.2110690883457
 20
584.5338243513793
 30
0.0
 10
832.5516725174246
 20
582.4347002967965
 30
0.0
 10
832.895641688526
 20
579.2031739549456
 30
0.0
 10
833.204989122429
 20
576.296927030339
 30
0.0
 10
831.3160969241149
 20
573.5669211243595
 30
0.0
 10
828.4936355969088
 20
572.8409747989395
 30
0.0
 10
825.1659486234794
 20
571.9850841727655
 30
0.0
 10
822.0367864140355
 20
573.3552197042874
 30
0.0
 10
820.8114149074335
 20
576.2175368028224
 30
0.0
 10
820.532381202436
 20
576.8693248314124
 30
0.0
 10
820.2973986473391
 20
577.5398381996356
 30
0.0
 10
820.0421410115781
 20
578.2017333460499
 30
0.0
 10
820.0421411275124
 20
578.52476694249
 30
0.0
 10
820.0421411275124
 20
578.8478000768268
 30
0.0
 10
820.0421411275124
 20
579.1708336732678
 30
0.0
  0
SPLINE
  5
81
330
70
100
AcDbEntity
  8
Capa 1
 62
     7
370
    35
100
AcDbSpline
210
0.0
220
0.0
230
1.0
 70
     9
 71
     3
 72
    17
 73
    13
 74
     0
 42
0.0000000001
 43
0.0000000001
 40
0.0
 40
0.0
 40
0.0
 40
0.0
 40
1.0
 40
1.0
 40
1.0
 40
2.0
 40
2.0
 40
2.0
 40
3.0
 40
3.0
 40
3.0
 40
4.0
 40
4.0
 40
4.0
 40
4.0
 10
954.1647013154253
 20
533.7914531916198
 30
0.0
 10
952.0418209318066
 20
533.5792850474725
 30
0.0
 10
949.9955277744986
 20
533.491492862372
 30
0.0
 10
948.0077620383433
 20
533.104886363578
 30
0.0
 10
947.4123226940857
 20
532.9890759465898
 30
0.0
 10
946.5757990486002
 20
532.0360531085489
 30
0.0
 10
946.5800580166206
 20
531.4720618860883
 30
0.0
 10
946.5849105690338
 20
530.8282155604474
 30
0.0
 10
947.2657667074468
 20
529.908697041659
 30
0.0
 10
947.8953965127425
 20
529.5996499181117
 30
0.0
 10
950.4013020655735
 20
528.3696351206225
 30
0.0
 10
953.6310095876531
 20
530.4163560543932
 30
0.0
 10
954.1647013154253
 20
533.7914531916198
 30
0.0
  0
SPLINE
  5
82
330
70
100
AcDbEntity
  8
Capa 1
 62
     7
370
    35
100
AcDbSpline
210
0.0
220
0.0
230
1.0
 70
     9
 71
     3
 72
    26
 73
    22
 74
     0
 42
0.0000000001
 43
0.0000000001
 40
0.0
 40
0.0
 40
0.0
 40
0.0
 40
1.0
 40
1.0
 40
1.0
 40
2.0
 40
2.0
 40
2.0
 40
3.0
 40
3.0
 40
3.0
 40
4.0
 40
4.0
 40
4.0
 40
5.0
 40
5.0
 40
5.0
 40
6.0
 40
6.0
 40
6.0
 40
7.0
 40
7.0
 40
7.0
 40
7.0
 10
962.2666830919753
 20
538.9727891406312
 30
0.0
 10
962.4837865837257
 20
538.6542374816343
 30
0.0
 10
962.7008900754743
 20
538.3356858226355
 30
0.0
 10
962.9179935672265
 20
538.0171378604636
 30
0.0
 10
965.0963889312027
 20
538.7787724041296
 30
0.0
 10
967.508864300572
 20
539.1740331687697
 30
0.0
 10
969.4052328798097
 20
540.3771129039117
 30
0.0
 10
973.5537942026871
 20
543.0090226510698
 30
0.0
 10
975.5471247925285
 20
547.1668558054569
 30
0.0
 10
976.6679160038361
 20
551.8721479837299
 30
0.0
 10
977.3358171628734
 20
554.676043242566
 30
0.0
 10
977.1661262245148
 20
556.9956711448567
 30
0.0
 10
974.8126531438151
 20
558.947228425736
 30
0.0
 10
973.0613417506217
 20
560.3994537907697
 30
0.0
 10
971.5191798183139
 20
560.1141532185529
 30
0.0
 10
970.6487179851556
 20
558.0437005207515
 30
0.0
 10
969.4264090030321
 20
555.1364309621033
 30
0.0
 10
968.2129444283615
 20
552.2248804808365
 30
0.0
 10
966.9412937435655
 20
549.3389693249772
 30
0.0
 10
965.4129474880058
 20
545.8705125851522
 30
0.0
 10
963.8274390553952
 20
542.4270611653544
 30
0.0
 10
962.2666830919753
 20
538.9727891406312
 30
0.0
  0
SPLINE
  5
83
330
70
100
AcDbEntity
  8
Capa 1
 62
     7
370
    35
100
AcDbSpline
210
0.0
220
0.0
230
1.0
 70
     9
 71
     3
 72
    47
 73
    43
 74
     0
 42
0.0000000001
 43
0.0000000001
 40
0.0
 40
0.0
 40
0.0
 40
0.0
 40
1.0
 40
1.0
 40
1.0
 40
2.0
 40
2.0
 40
2.0
 40
3.0
 40
3.0
 40
3.0
 40
4.0
 40
4.0
 40
4.0
 40
5.0
 40
5.0
 40
5.0
 40
6.0
 40
6.0
 40
6.0
 40
7.0
 40
7.0
 40
7.0
 40
8.0
 40
8.0
 40
8.0
 40
9.0
 40
9.0
 40
9.0
 40
10.0
 40
10.0
 40
10.0
 40
11.0
 40
11.0
 40
11.0
 40
12.0
 40
12.0
 40
12.0
 40
13.0
 40
13.0
 40
13.0
 40
14.0
 40
14.0
 40
14.0
 40
14.0
 10
965.0987039103362
 20
559.4936467935617
 30
0.0
 10
963.2983476066696
 20
560.0961441386424
 30
0.0
 10
960.8117929050512
 20
559.4707061499438
 30
0.0
 10
961.1094457989368
 20
562.2101546695656
 30
0.0
 10
961.3757129180385
 20
564.6608035727069
 30
0.0
 10
963.3534915967805
 20
564.7462168513254
 30
0.0
 10
965.3098270393272
 20
564.639243692991
 30
0.0
 10
968.589084018615
 20
564.4599329238284
 30
0.0
 10
971.9082447087238
 20
564.5660206927271
 30
0.0
 10
975.1403265683761
 20
564.0839954601613
 30
0.0
 10
978.9142916204237
 20
563.5211539500792
 30
0.0
 10
981.7392042656788
 20
559.4825914402887
 30
0.0
 10
982.011006559246
 20
555.6884444736111
 30
0.0
 10
982.591769529384
 20
547.5815027170855
 30
0.0
 10
979.0317322925837
 20
541.3633369216041
 30
0.0
 10
972.9068614123365
 20
536.7041293559067
 30
0.0
 10
970.5561930178932
 20
534.9159791057567
 30
0.0
 10
967.1000033706528
 20
534.5087480238119
 30
0.0
 10
964.0912576388769
 20
533.6738054529222
 30
0.0
 10
962.9666081290158
 20
533.3617084492713
 30
0.0
 10
961.6816314745966
 20
533.6232772574556
 30
0.0
 10
960.4535053654203
 20
533.6232772574556
 30
0.0
 10
959.546805205068
 20
532.0884075352556
 30
0.0
 10
958.6452395497159
 20
530.6162470448136
 30
0.0
 10
957.7961170754878
 20
529.1146376514554
 30
0.0
 10
955.2821239353024
 20
524.6688810279648
 30
0.0
 10
949.3286802277603
 20
522.7695894500031
 30
0.0
 10
944.7928941260881
 20
524.985798690589
 30
0.0
 10
941.9161838227383
 20
526.3913719805064
 30
0.0
 10
940.7437136702123
 20
528.8202336492331
 30
0.0
 10
941.1248171099519
 20
532.5844659131218
 30
0.0
 10
941.3756584546414
 20
535.0619740937138
 30
0.0
 10
943.4515121147224
 20
537.4746658526529
 30
0.0
 10
946.2216072412799
 20
537.9182847768553
 30
0.0
 10
948.8138496440761
 20
538.3334122756514
 30
0.0
 10
951.4784499843832
 20
538.4335222795457
 30
0.0
 10
954.1102251077555
 20
538.423171171314
 30
0.0
 10
955.8930558322172
 20
538.4161582954886
 30
0.0
 10
956.9519361913316
 20
538.6965032746377
 30
0.0
 10
957.6648904057993
 20
540.6398166371754
 30
0.0
 10
959.968606274754
 20
546.9190465775737
 30
0.0
 10
962.551544242191
 20
553.0965473050027
 30
0.0
 10
965.0987039103362
 20
559.4936467935617
 30
0.0
  0
SPLINE
  5
84
330
70
100
AcDbEntity
  8
Capa 1
 62
     7
370
    35
100
AcDbSpline
210
0.0
220
0.0
230
1.0
 70
     9
 71
     3
 72
    17
 73
    13
 74
     0
 42
0.0000000001
 43
0.0000000001
 40
0.0
 40
0.0
 40
0.0
 40
0.0
 40
1.0
 40
1.0
 40
1.0
 40
2.0
 40
2.0
 40
2.0
 40
3.0
 40
3.0
 40
3.0
 40
4.0
 40
4.0
 40
4.0
 40
4.0
 10
848.8269756398096
 20
556.4045452315318
 30
0.0
 10
850.821016675971
 20
556.4045452315318
 30
0.0
 10
852.8024458987305
 20
556.2687312978868
 30
0.0
 10
854.7452958458455
 20
556.4819585822172
 30
0.0
 10
855.3816034755632
 20
556.5517934429483
 30
0.0
 10
856.2356749596681
 20
557.4500108597269
 30
0.0
 10
856.4006840011247
 20
558.1147017295694
 30
0.0
 10
856.5367520935188
 20
558.6628317270786
 30
0.0
 10
855.9747167109803
 20
559.6951514478197
 30
0.0
 10
855.4232360009292
 20
560.044427414142
 30
0.0
 10
853.4609684243562
 20
561.2872165882349
 30
0.0
 10
849.2449870441362
 20
559.0007399584683
 30
0.0
 10
848.8269756398096
 20
556.4045452315318
 30
0.0
  0
SPLINE
  5
85
330
70
100
AcDbEntity
  8
Capa 1
 62
     7
370
    35
100
AcDbSpline
210
0.0
220
0.0
230
1.0
 70
     9
 71
     3
 72
    68
 73
    64
 74
     0
 42
0.0000000001
 43
0.0000000001
 40
0.0
 40
0.0
 40
0.0
 40
0.0
 40
1.0
 40
1.0
 40
1.0
 40
2.0
 40
2.0
 40
2.0
 40
3.0
 40
3.0
 40
3.0
 40
4.0
 40
4.0
 40
4.0
 40
5.0
 40
5.0
 40
5.0
 40
6.0
 40
6.0
 40
6.0
 40
7.0
 40
7.0
 40
7.0
 40
8.0
 40
8.0
 40
8.0
 40
9.0
 40
9.0
 40
9.0
 40
10.0
 40
10.0
 40
10.0
 40
11.0
 40
11.0
 40
11.0
 40
12.0
 40
12.0
 40
12.0
 40
13.0
 40
13.0
 40
13.0
 40
14.0
 40
14.0
 40
14.0
 40
15.0
 40
15.0
 40
15.0
 40
16.0
 40
16.0
 40
16.0
 40
17.0
 40
17.0
 40
17.0
 40
18.0
 40
18.0
 40
18.0
 40
19.0
 40
19.0
 40
19.0
 40
20.0
 40
20.0
 40
20.0
 40
21.0
 40
21.0
 40
21.0
 40
21.0
 10
845.4274362030798
 20
549.7363668541026
 30
0.0
 10
844.5311590136789
 20
550.3413225873885
 30
0.0
 10
843.7072304870321
 20
551.1742688731204
 30
0.0
 10
842.717905234123
 20
551.4859998911584
 30
0.0
 10
841.7615851284166
 20
551.7873317422471
 30
0.0
 10
840.6339250327112
 20
551.5801210395763
 30
0.0
 10
839.5832342832692
 20
551.545241501661
 30
0.0
 10
838.0497294083422
 20
551.4943362301086
 30
0.0
 10
836.7820501741263
 20
552.1462749042931
 30
0.0
 10
837.1740681468921
 20
553.691739725133
 30
0.0
 10
837.4372820162744
 20
554.7294216896208
 30
0.0
 10
838.599516547922
 20
555.8996237172409
 30
0.0
 10
839.6334533778711
 20
556.289891920571
 30
0.0
 10
840.8235288725029
 20
556.7390985948074
 30
0.0
 10
842.3154624354539
 20
556.3942126074221
 30
0.0
 10
843.6714336382314
 20
556.3942126074221
 30
0.0
 10
843.5637073456518
 20
563.2353524581621
 30
0.0
 10
853.7710161023472
 20
567.4013315650443
 30
0.0
 10
859.2183734662956
 20
563.5607395454159
 30
0.0
 10
861.0385851679088
 20
562.2774202373597
 30
0.0
 10
862.6303633356702
 20
558.9542542404476
 30
0.0
 10
861.7688423674334
 20
556.7897413918287
 30
0.0
 10
860.826252610718
 20
554.4215483078121
 30
0.0
 10
858.864304085756
 20
552.7046691346591
 30
0.0
 10
856.2671089631804
 20
552.0769409632642
 30
0.0
 10
854.7289722750374
 20
551.7051809111329
 30
0.0
 10
853.1224509549151
 20
551.6143832078227
 30
0.0
 10
851.3711692409414
 20
551.3730656035293
 30
0.0
 10
852.4752139525611
 20
549.8540256832741
 30
0.0
 10
853.6737684292573
 20
548.4076320586817
 30
0.0
 10
854.6478589677301
 20
546.8241343087393
 30
0.0
 10
856.9476905688134
 20
543.0854914631297
 30
0.0
 10
857.2093388593577
 20
539.2797475584101
 30
0.0
 10
854.7403319963594
 20
535.46202224591
 30
0.0
 10
852.6131369961836
 20
532.1728356101788
 30
0.0
 10
849.6724568447769
 20
530.4479269345007
 30
0.0
 10
845.6960683849983
 20
530.1936297798488
 30
0.0
 10
841.1363812367509
 20
529.9020242736729
 30
0.0
 10
837.4558389483608
 20
531.1699315209363
 30
0.0
 10
835.2265047687057
 20
535.3382045073407
 30
0.0
 10
833.5843767322812
 20
538.4085613214113
 30
0.0
 10
834.686285467562
 20
543.878841063052
 30
0.0
 10
837.0254995381712
 20
546.4794534951078
 30
0.0
 10
839.3407680433753
 20
549.0534487917123
 30
0.0
 10
841.7374355183765
 20
551.0342479533445
 30
0.0
 10
845.4832220063165
 20
549.7978524369962
 30
0.0
 10
845.7275135182191
 20
547.3419115297717
 30
0.0
 10
844.3635289261365
 20
546.0742150014969
 30
0.0
 10
842.4954446432254
 20
544.6422981411305
 30
0.0
 10
841.0506416810811
 20
543.5348404651033
 30
0.0
 10
839.8610521836706
 20
541.3708747464908
 30
0.0
 10
839.69772929288
 20
539.5737449099498
 30
0.0
 10
839.5806688857208
 20
538.2856640921082
 30
0.0
 10
841.0505192543002
 20
536.3657479309976
 30
0.0
 10
842.3373397302393
 20
535.5450751021694
 30
0.0
 10
844.7436974704565
 20
534.0104271894309
 30
0.0
 10
848.0296767929953
 20
535.1597366141344
 30
0.0
 10
850.1594409006228
 20
537.7207486635565
 30
0.0
 10
851.6084768614698
 20
539.4631950740381
 30
0.0
 10
851.6932258731843
 20
542.5071122002261
 30
0.0
 10
850.0881810942386
 20
544.5745168663375
 30
0.0
 10
848.670836975126
 20
546.4001566124067
 30
0.0
 10
846.9912398513677
 20
548.0236318210676
 30
0.0
 10
845.4274362030798
 20
549.7363668541026
 30
0.0
  0
SPLINE
  5
86
330
70
100
AcDbEntity
  8
Capa 1
 62
     7
370
    35
100
AcDbSpline
210
0.0
220
0.0
230
1.0
 70
     9
 71
     3
 72
    20
 73
    16
 74
     0
 42
0.0000000001
 43
0.0000000001
 40
0.0
 40
0.0
 40
0.0
 40
0.0
 40
1.0
 40
1.0
 40
1.0
 40
2.0
 40
2.0
 40
2.0
 40
3.0
 40
3.0
 40
3.0
 40
4.0
 40
4.0
 40
4.0
 40
5.0
 40
5.0
 40
5.0
 40
5.0
 10
876.627662068075
 20
528.6660575889522
 30
0.0
 10
876.7464308853156
 20
528.3464745159555
 30
0.0
 10
876.865195992652
 20
528.0268877461358
 30
0.0
 10
876.9839648098928
 20
527.707304673141
 30
0.0
 10
878.8753955089619
 20
527.8327305303104
 30
0.0
 10
880.8152701143075
 20
527.7522580574609
 30
0.0
 10
882.6361347587534
 20
528.1776220629304
 30
0.0
 10
883.4461548610908
 20
528.3668477150492
 30
0.0
 10
884.0162629913752
 20
529.5758054009358
 30
0.0
 10
884.6952641785618
 20
530.3219169790793
 30
0.0
 10
883.6918097621461
 20
530.7554731473528
 30
0.0
 10
882.4864030956113
 20
531.7695601303078
 30
0.0
 10
881.7252424086266
 20
531.5066382844056
 30
0.0
 10
879.9142757839344
 20
530.8810764520917
 30
0.0
 10
878.313408355155
 20
529.6515681195419
 30
0.0
 10
876.627662068075
 20
528.6660575889522
 30
0.0
  0
SPLINE
  5
87
330
70
100
AcDbEntity
  8
Capa 1
 62
     7
370
    35
100
AcDbSpline
210
0.0
220
0.0
230
1.0
 70
     9
 71
     3
 72
    59
 73
    55
 74
     0
 42
0.0000000001
 43
0.0000000001
 40
0.0
 40
0.0
 40
0.0
 40
0.0
 40
1.0
 40
1.0
 40
1.0
 40
2.0
 40
2.0
 40
2.0
 40
3.0
 40
3.0
 40
3.0
 40
4.0
 40
4.0
 40
4.0
 40
5.0
 40
5.0
 40
5.0
 40
6.0
 40
6.0
 40
6.0
 40
7.0
 40
7.0
 40
7.0
 40
8.0
 40
8.0
 40
8.0
 40
9.0
 40
9.0
 40
9.0
 40
10.0
 40
10.0
 40
10.0
 40
11.0
 40
11.0
 40
11.0
 40
12.0
 40
12.0
 40
12.0
 40
13.0
 40
13.0
 40
13.0
 40
14.0
 40
14.0
 40
14.0
 40
15.0
 40
15.0
 40
15.0
 40
16.0
 40
16.0
 40
16.0
 40
17.0
 40
17.0
 40
17.0
 40
18.0
 40
18.0
 40
18.0
 40
18.0
 10
867.9104782968831
 20
523.3527117385709
 30
0.0
 10
867.5756707298974
 20
523.3786042964482
 30
0.0
 10
867.0021902982801
 20
523.2608530466669
 30
0.0
 10
866.6454868869971
 20
523.4852576794742
 30
0.0
 10
865.9634806788206
 20
523.9143222061389
 30
0.0
 10
865.0846678552346
 20
524.4471898642414
 30
0.0
 10
864.8952216862966
 20
525.1095609767935
 30
0.0
 10
864.7405855321084
 20
525.6502252374906
 30
0.0
 10
865.3680561741733
 20
526.5281396948385
 30
0.0
 10
865.8443594208479
 20
527.0926410790633
 30
0.0
 10
866.1652808229385
 20
527.4729851573769
 30
0.0
 10
866.9038519138679
 20
527.8564752332275
 30
0.0
 10
867.3235494688604
 20
527.7449974943997
 30
0.0
 10
870.6083490424189
 20
526.8724914911039
 30
0.0
 10
872.0266002326827
 20
529.370594680249
 30
0.0
 10
873.7606346101351
 20
531.2154690035064
 30
0.0
 10
875.8276549924678
 20
533.4146173996324
 30
0.0
 10
878.0855387264761
 20
535.0578077726498
 30
0.0
 10
881.2004804160654
 20
535.6364162386629
 30
0.0
 10
885.5379685215394
 20
536.4421206256245
 30
0.0
 10
888.8815403698119
 20
534.8223570286291
 30
0.0
 10
889.4489922099383
 20
530.8820450200748
 30
0.0
 10
889.919200086876
 20
527.6169542855766
 30
0.0
 10
887.539483156198
 20
524.5542462011268
 30
0.0
 10
883.1277042540348
 20
523.9665028820974
 30
0.0
 10
880.5934958553654
 20
523.6288903966578
 30
0.0
 10
878.0155773859522
 20
523.4807586442191
 30
0.0
 10
875.4592171597156
 20
523.4996531135652
 30
0.0
 10
874.0950229581436
 20
523.5097306567938
 30
0.0
 10
873.2499962162272
 20
523.0966179272784
 30
0.0
 10
872.985086921423
 20
521.8621669405471
 30
0.0
 10
872.3705452894179
 20
518.9984589118437
 30
0.0
 10
871.4396973739781
 20
516.1069581575389
 30
0.0
 10
871.4561916002994
 20
513.2313907162624
 30
0.0
 10
871.4719252966165
 20
510.4880512889941
 30
0.0
 10
873.1873879023723
 20
509.4696648992977
 30
0.0
 10
876.334182814454
 20
509.4111072013021
 30
0.0
 10
879.8163009699628
 20
509.3462944764759
 30
0.0
 10
883.300556029285
 20
509.3956766563882
 30
0.0
 10
886.783879903092
 20
509.3951738882737
 30
0.0
 10
888.1456218591395
 20
509.3949816534064
 30
0.0
 10
889.5844036495981
 20
509.3190488808808
 30
0.0
 10
889.5216840386684
 20
507.4959747309245
 30
0.0
 10
889.4661542187018
 20
505.881992967241
 30
0.0
 10
888.3409185442511
 20
505.0655640927876
 30
0.0
 10
886.7603517017133
 20
505.0551981972562
 30
0.0
 10
882.3053450161285
 20
505.0259784974492
 30
0.0
 10
877.8419502410885
 20
504.8863346537599
 30
0.0
 10
873.3969194832093
 20
505.1004547211751
 30
0.0
 10
868.4783456460841
 20
505.3373989822392
 30
0.0
 10
864.9828347427076
 20
510.4652344889931
 30
0.0
 10
865.9533600649197
 20
515.8968602350372
 30
0.0
 10
866.3998616651612
 20
518.3957656350726
 30
0.0
 10
867.2343597039056
 20
520.8258213780704
 30
0.0
 10
867.9104782968831
 20
523.3527117385709
 30
0.0
  0
SPLINE
  5
88
330
70
100
AcDbEntity
  8
Capa 1
 62
     7
370
    35
100
AcDbSpline
210
0.0
220
0.0
230
1.0
 70
     9
 71
     3
 72
    80
 73
    76
 74
     0
 42
0.0000000001
 43
0.0000000001
 40
0.0
 40
0.0
 40
0.0
 40
0.0
 40
1.0
 40
1.0
 40
1.0
 40
2.0
 40
2.0
 40
2.0
 40
3.0
 40
3.0
 40
3.0
 40
4.0
 40
4.0
 40
4.0
 40
5.0
 40
5.0
 40
5.0
 40
6.0
 40
6.0
 40
6.0
 40
7.0
 40
7.0
 40
7.0
 40
8.0
 40
8.0
 40
8.0
 40
9.0
 40
9.0
 40
9.0
 40
10.0
 40
10.0
 40
10.0
 40
11.0
 40
11.0
 40
11.0
 40
12.0
 40
12.0
 40
12.0
 40
13.0
 40
13.0
 40
13.0
 40
14.0
 40
14.0
 40
14.0
 40
15.0
 40
15.0
 40
15.0
 40
16.0
 40
16.0
 40
16.0
 40
17.0
 40
17.0
 40
17.0
 40
18.0
 40
18.0
 40
18.0
 40
19.0
 40
19.0
 40
19.0
 40
20.0
 40
20.0
 40
20.0
 40
21.0
 40
21.0
 40
21.0
 40
22.0
 40
22.0
 40
22.0
 40
23.0
 40
23.0
 40
23.0
 40
24.0
 40
24.0
 40
24.0
 40
25.0
 40
25.0
 40
25.0
 40
25.0
 10
868.9566040113513
 20
552.1750140169317
 30
0.0
 10
870.7473961864851
 20
553.7305194127563
 30
0.0
 10
873.3105306946093
 20
553.926473285226
 30
0.0
 10
875.3774805887951
 20
552.8961831210627
 30
0.0
 10
876.0557991539286
 20
552.5580678675078
 30
0.0
 10
877.0123641131965
 20
552.6348952715315
 30
0.0
 10
877.8161589992121
 20
552.7319332143763
 30
0.0
 10
878.4155864886097
 20
552.8043059450348
 30
0.0
 10
878.9499942275561
 20
553.3384305234244
 30
0.0
 10
879.5544226654646
 20
553.4543703292653
 30
0.0
 10
884.1586416278481
 20
554.3375342772159
 30
0.0
 10
886.240720504251
 20
551.930579989697
 30
0.0
 10
884.7718514048718
 20
547.4324430617287
 30
0.0
 10
884.3584940731757
 20
546.166624520233
 30
0.0
 10
883.8343145353023
 20
544.9367428084222
 30
0.0
 10
883.2854493064827
 20
543.4915284708032
 30
0.0
 10
883.9240644955278
 20
543.4292961293861
 30
0.0
 10
884.5185689443654
 20
543.3071308713095
 30
0.0
 10
885.1083247180596
 20
543.3267388277595
 30
0.0
 10
886.508300928823
 20
543.3732744529085
 30
0.0
 10
887.8116193409869
 20
542.8461183884534
 30
0.0
 10
887.5044097383748
 20
541.4168299702136
 30
0.0
 10
887.3006915746879
 20
540.4690640164244
 30
0.0
 10
886.0721499564355
 20
539.4084266210215
 30
0.0
 10
885.0681835734805
 20
539.0504372396634
 30
0.0
 10
883.9198277869227
 20
538.6409584885036
 30
0.0
 10
882.5119940027569
 20
538.9503383262422
 30
0.0
 10
881.2169152839485
 20
538.953935336352
 30
0.0
 10
878.1149990618828
 20
538.9625452403062
 30
0.0
 10
877.1751212438628
 20
540.2029961729851
 30
0.0
 10
878.092405755923
 20
543.214525420883
 30
0.0
 10
878.503615054096
 20
544.5645576214895
 30
0.0
 10
879.1873945956456
 20
545.8357402551426
 30
0.0
 10
879.5505940461298
 20
547.1949442770084
 30
0.0
 10
879.6964451513021
 20
547.7407619108736
 30
0.0
 10
879.4620423843973
 20
548.841310222158
 30
0.0
 10
879.1380454731701
 20
548.9566400519778
 30
0.0
 10
878.5866463809734
 20
549.1529192449907
 30
0.0
 10
877.440357010083
 20
548.9856601232695
 30
0.0
 10
877.2201965587086
 20
548.5938669798867
 30
0.0
 10
876.0365039512524
 20
546.4873683960801
 30
0.0
 10
875.0768115442131
 20
544.2569448657984
 30
0.0
 10
874.0059741694812
 20
542.0858590634529
 30
0.0
 10
873.6259837004794
 20
541.3154297746144
 30
0.0
 10
873.3251254508726
 20
540.2916534149879
 30
0.0
 10
872.6775471374933
 20
539.9179081681709
 30
0.0
 10
871.7409043544154
 20
539.3773363280844
 30
0.0
 10
870.4838113268591
 20
539.0570101933909
 30
0.0
 10
869.4434099918801
 20
539.2041844683196
 30
0.0
 10
869.0752726612258
 20
539.2562616331964
 30
0.0
 10
868.565814016299
 20
541.0496133152322
 30
0.0
 10
868.7780389863192
 20
541.8815466710864
 30
0.0
 10
869.2407528602942
 20
543.6954046378942
 30
0.0
 10
870.2347581551546
 20
545.3694376166159
 30
0.0
 10
870.78112661962
 20
547.170064649009
 30
0.0
 10
870.9863992324363
 20
547.8465724179451
 30
0.0
 10
870.5526522768398
 20
548.7156071031615
 30
0.0
 10
870.4102365413422
 20
549.4968717842224
 30
0.0
 10
869.734125368171
 20
549.1965972249026
 30
0.0
 10
868.7423645642983
 20
549.0799106605408
 30
0.0
 10
868.4393731207784
 20
548.562625117149
 30
0.0
 10
867.4112701124428
 20
546.8073839975265
 30
0.0
 10
866.6279242087677
 20
544.9099223476298
 30
0.0
 10
865.7487403949351
 20
543.0679019727846
 30
0.0
 10
864.8844926483929
 20
541.2571863066908
 30
0.0
 10
864.5380396975966
 20
538.9675618309754
 30
0.0
 10
861.7785771514784
 20
538.9476433412776
 30
0.0
 10
859.5994657763286
 20
538.9319207472395
 30
0.0
 10
858.6691261175236
 20
540.0195745351252
 30
0.0
 10
859.5286771275572
 20
541.9683518040809
 30
0.0
 10
861.0879417101903
 20
545.5035399205781
 30
0.0
 10
862.7751867978624
 20
548.9863662167233
 30
0.0
 10
864.52325944621
 20
552.4335218545386
 30
0.0
 10
865.3224763125946
 20
554.0095483224312
 30
0.0
 10
866.8835030988939
 20
553.8601189846377
 30
0.0
 10
868.9566040113513
 20
552.1750140169317
 30
0.0
  0
SPLINE
  5
89
330
70
100
AcDbEntity
  8
Capa 1
 62
     7
370
    35
100
AcDbSpline
210
0.0
220
0.0
230
1.0
 70
     9
 71
     3
 72
    80
 73
    76
 74
     0
 42
0.0000000001
 43
0.0000000001
 40
0.0
 40
0.0
 40
0.0
 40
0.0
 40
1.0
 40
1.0
 40
1.0
 40
2.0
 40
2.0
 40
2.0
 40
3.0
 40
3.0
 40
3.0
 40
4.0
 40
4.0
 40
4.0
 40
5.0
 40
5.0
 40
5.0
 40
6.0
 40
6.0
 40
6.0
 40
7.0
 40
7.0
 40
7.0
 40
8.0
 40
8.0
 40
8.0
 40
9.0
 40
9.0
 40
9.0
 40
10.0
 40
10.0
 40
10.0
 40
11.0
 40
11.0
 40
11.0
 40
12.0
 40
12.0
 40
12.0
 40
13.0
 40
13.0
 40
13.0
 40
14.0
 40
14.0
 40
14.0
 40
15.0
 40
15.0
 40
15.0
 40
16.0
 40
16.0
 40
16.0
 40
17.0
 40
17.0
 40
17.0
 40
18.0
 40
18.0
 40
18.0
 40
19.0
 40
19.0
 40
19.0
 40
20.0
 40
20.0
 40
20.0
 40
21.0
 40
21.0
 40
21.0
 40
22.0
 40
22.0
 40
22.0
 40
23.0
 40
23.0
 40
23.0
 40
24.0
 40
24.0
 40
24.0
 40
25.0
 40
25.0
 40
25.0
 40
25.0
 10
912.9308346475241
 20
523.3565046803732
 30
0.0
 10
915.6087906366749
 20
525.2910048136192
 30
0.0
 10
918.1366662318518
 20
525.6131756636718
 30
0.0
 10
919.9908680597708
 20
523.5164699676159
 30
0.0
 10
922.4835663598566
 20
523.9158822660221
 30
0.0
 10
924.62696250406
 20
524.7314904454659
 30
0.0
 10
926.6240697746003
 20
524.4637183659947
 30
0.0
 10
929.3188316218772
 20
524.1024055395281
 30
0.0
 10
930.0871227413841
 20
522.2107774784833
 30
0.0
 10
929.1668740172623
 20
519.648205369178
 30
0.0
 10
928.6020710474911
 20
518.0754358035541
 30
0.0
 10
927.9139435002615
 20
516.5466510542635
 30
0.0
 10
927.2459013649328
 20
514.911767445603
 30
0.0
 10
928.5792403077739
 20
514.753528575338
 30
0.0
 10
929.7285755085805
 20
514.7565082157787
 30
0.0
 10
930.7789898702889
 20
514.4367772698084
 30
0.0
 10
931.3497732028213
 20
514.2630487054434
 30
0.0
 10
932.0605311550336
 20
513.5879716075378
 30
0.0
 10
932.1435661918133
 20
513.0521464899386
 30
0.0
 10
932.2255995549301
 20
512.5228277832291
 30
0.0
 10
931.7253117888752
 20
511.7397812328217
 30
0.0
 10
931.2538944837369
 20
511.3217739078417
 30
0.0
 10
930.0816766045793
 20
510.2823451938408
 30
0.0
 10
924.2994597350103
 20
509.7558582545984
 30
0.0
 10
923.1583679374617
 20
510.756174566783
 30
0.0
 10
922.4805019804275
 20
511.3504242966983
 30
0.0
 10
921.9390936555457
 20
512.6800759045614
 30
0.0
 10
922.1062841196475
 20
513.5284009796654
 30
0.0
 10
922.4425867773232
 20
515.2347663843133
 30
0.0
 10
923.3698843161128
 20
516.8174212583001
 30
0.0
 10
923.9129917763191
 20
518.4961935658619
 30
0.0
 10
924.0795812362229
 20
519.0111094448341
 30
0.0
 10
923.9912336191249
 20
519.9158998153404
 30
0.0
 10
923.6500561496223
 20
520.1974055973399
 30
0.0
 10
923.323421497748
 20
520.4669188810923
 30
0.0
 10
922.3168656028796
 20
520.380028721137
 30
0.0
 10
921.9606407690129
 20
520.060578733818
 30
0.0
 10
921.0892440404366
 20
519.2791218178895
 30
0.0
 10
920.2630487633896
 20
518.3583759534092
 30
0.0
 10
919.7063556403874
 20
517.3378454055794
 30
0.0
 10
918.7839922718644
 20
515.6469327267914
 30
0.0
 10
918.1637040009546
 20
513.7942470136433
 30
0.0
 10
917.272741246823
 20
512.0838890386762
 30
0.0
 10
916.526486947907
 20
510.6513030530997
 30
0.0
 10
915.2317235708078
 20
509.8345858263453
 30
0.0
 10
913.647647160546
 20
510.5884496451895
 30
0.0
 10
911.9778720035414
 20
511.3830746495187
 30
0.0
 10
912.7818375450701
 20
512.7289257417652
 30
0.0
 10
913.2842028564995
 20
513.9134104503323
 30
0.0
 10
913.9122448235436
 20
515.3942104193224
 30
0.0
 10
914.6248057883502
 20
516.8475725578482
 30
0.0
 10
915.1234908765434
 20
518.3704645690935
 30
0.0
 10
915.3102473662006
 20
518.9408106326451
 30
0.0
 10
914.9986155598609
 20
519.6732106892061
 30
0.0
 10
914.9142226987818
 20
520.3317186202914
 30
0.0
 10
914.242515179826
 20
520.2135459325334
 30
0.0
 10
913.3796883259238
 20
520.3123176860077
 30
0.0
 10
912.9415191665998
 20
519.9290383291436
 30
0.0
 10
912.1841203207047
 20
519.2665156467947
 30
0.0
 10
911.5732848812537
 20
518.3640099137475
 30
0.0
 10
911.1106229459117
 20
517.456092029827
 30
0.0
 10
910.1977420880682
 20
515.6646553028123
 30
0.0
 10
909.471231890024
 20
513.7797554621186
 30
0.0
 10
908.585700433089
 20
511.9733909583063
 30
0.0
 10
907.8848775996553
 20
510.5437920068204
 30
0.0
 10
906.5833696198899
 20
509.927767981375
 30
0.0
 10
905.149521999699
 20
510.534653456981
 30
0.0
 10
903.5444475415339
 20
511.2140262648013
 30
0.0
 10
904.0176678592665
 20
512.6232261394245
 30
0.0
 10
904.5168871734142
 20
513.8628822548656
 30
0.0
 10
905.6589138663824
 20
516.6987531960739
 30
0.0
 10
906.7671359281664
 20
519.5500546821977
 30
0.0
 10
907.9922866955739
 20
522.350251268253
 30
0.0
 10
909.2991443546805
 20
525.3372114213983
 30
0.0
 10
910.3630850207457
 20
525.5593905659365
 30
0.0
 10
912.9308346475241
 20
523.3565046803732
 30
0.0
  0
SPLINE
  5
8A
330
70
100
AcDbEntity
  8
Capa 1
 62
     7
370
    35
100
AcDbSpline
210
0.0
220
0.0
230
1.0
 70
     9
 71
     3
 72
    53
 73
    49
 74
     0
 42
0.0000000001
 43
0.0000000001
 40
0.0
 40
0.0
 40
0.0
 40
0.0
 40
1.0
 40
1.0
 40
1.0
 40
2.0
 40
2.0
 40
2.0
 40
3.0
 40
3.0
 40
3.0
 40
4.0
 40
4.0
 40
4.0
 40
5.0
 40
5.0
 40
5.0
 40
6.0
 40
6.0
 40
6.0
 40
7.0
 40
7.0
 40
7.0
 40
8.0
 40
8.0
 40
8.0
 40
9.0
 40
9.0
 40
9.0
 40
10.0
 40
10.0
 40
10.0
 40
11.0
 40
11.0
 40
11.0
 40
12.0
 40
12.0
 40
12.0
 40
13.0
 40
13.0
 40
13.0
 40
14.0
 40
14.0
 40
14.0
 40
15.0
 40
15.0
 40
15.0
 40
16.0
 40
16.0
 40
16.0
 40
16.0
 10
911.3560107339903
 20
545.9990585620889
 30
0.0
 10
910.4536882585366
 20
543.9814390297465
 30
0.0
 10
909.7244772515058
 20
542.4196638197933
 30
0.0
 10
909.0541498162631
 20
540.8331864294113
 30
0.0
 10
908.3464488236737
 20
539.1582551223666
 30
0.0
 10
906.5566954212277
 20
538.2565552970328
 30
0.0
 10
905.0532797101739
 20
539.0880709117342
 30
0.0
 10
904.6342017088917
 20
539.3198617996285
 30
0.0
 10
904.3267027338874
 20
540.4584393431913
 30
0.0
 10
904.5209012878714
 20
540.9744014234576
 30
0.0
 10
906.2706100032031
 20
545.6232763650453
 30
0.0
 10
908.1546394468718
 20
550.2217635904918
 30
0.0
 10
909.9758676617582
 20
554.8441859053115
 30
0.0
 10
910.9859108649363
 20
557.407772792906
 30
0.0
 10
911.9768851694876
 20
559.9794945425237
 30
0.0
 10
912.9271841035075
 20
562.5655285476833
 30
0.0
 10
913.4684069332667
 20
564.038326740327
 30
0.0
 10
915.3229723316261
 20
565.1614219834333
 30
0.0
 10
916.5216714945193
 20
564.5094999449599
 30
0.0
 10
917.9796928391157
 20
563.7165440568321
 30
0.0
 10
918.0486079871458
 20
562.5345768856592
 30
0.0
 10
917.4050141090043
 20
561.0319730465469
 30
0.0
 10
915.8318299723559
 20
557.3590320120222
 30
0.0
 10
914.4100024361231
 20
553.6217181747721
 30
0.0
 10
912.6855878357391
 20
549.3054243406596
 30
0.0
 10
914.3764649179166
 20
550.7214929149576
 30
0.0
 10
915.4520843569146
 20
551.9543616608587
 30
0.0
 10
916.8066142625868
 20
552.6403813588943
 30
0.0
 10
917.7151842137776
 20
553.1005398753213
 30
0.0
 10
919.3405369987683
 20
553.2352891235476
 30
0.0
 10
920.07348016767
 20
552.7153677443818
 30
0.0
 10
921.2749914366257
 20
551.8630537957842
 30
0.0
 10
920.9998279714314
 20
550.4274585951722
 30
0.0
 10
919.7906817232222
 20
549.4644062726195
 30
0.0
 10
918.6797291732293
 20
548.5795565727563
 30
0.0
 10
917.4910022281402
 20
547.791656091953
 30
0.0
 10
916.2991218659623
 20
546.9341296209957
 30
0.0
 10
917.3060784302959
 20
545.3546835905626
 30
0.0
 10
918.459961971515
 20
543.9123158077068
 30
0.0
 10
919.1665277339529
 20
542.2779238766868
 30
0.0
 10
919.5082913680439
 20
541.487376469635
 30
0.0
 10
919.3476822708996
 20
539.8500233822952
 30
0.0
 10
918.8039886461046
 20
539.4750101247211
 30
0.0
 10
918.1667609605785
 20
539.035476191445
 30
0.0
 10
916.4353569039668
 20
539.1668724199688
 30
0.0
 10
915.9311143818937
 20
539.7253331931746
 30
0.0
 10
914.3117271200525
 20
541.5188771100778
 30
0.0
 10
913.0392973557405
 20
543.6234977071052
 30
0.0
 10
911.3560107339903
 20
545.9990585620889
 30
0.0
  0
SPLINE
  5
8B
330
70
100
AcDbEntity
  8
Capa 1
 62
     7
370
    35
100
AcDbSpline
210
0.0
220
0.0
230
1.0
 70
     9
 71
     3
 72
    17
 73
    13
 74
     0
 42
0.0000000001
 43
0.0000000001
 40
0.0
 40
0.0
 40
0.0
 40
0.0
 40
1.0
 40
1.0
 40
1.0
 40
2.0
 40
2.0
 40
2.0
 40
3.0
 40
3.0
 40
3.0
 40
4.0
 40
4.0
 40
4.0
 40
4.0
 10
890.5446525420046
 20
516.0748327537788
 30
0.0
 10
890.9161399145768
 20
515.7958851742415
 30
0.0
 10
891.5632062614186
 20
514.9496820763231
 30
0.0
 10
892.3420260840966
 20
514.8042859739158
 30
0.0
 10
893.7322007325699
 20
514.544768903258
 30
0.0
 10
895.8838699592508
 20
517.5939096422779
 30
0.0
 10
895.8230943372091
 20
519.8327434479974
 30
0.0
 10
895.8077798598699
 20
520.3971671989095
 30
0.0
 10
894.8982453340416
 20
521.3351106903523
 30
0.0
 10
894.3111161712865
 20
521.409712606106
 30
0.0
 10
892.7371677947315
 20
521.6097329853774
 30
0.0
 10
890.5464852338186
 20
518.7480360291316
 30
0.0
 10
890.5446525420046
 20
516.0748327537788
 30
0.0
  0
SPLINE
  5
8C
330
70
100
AcDbEntity
  8
Capa 1
 62
     7
370
    35
100
AcDbSpline
210
0.0
220
0.0
230
1.0
 70
     9
 71
     3
 72
    41
 73
    37
 74
     0
 42
0.0000000001
 43
0.0000000001
 40
0.0
 40
0.0
 40
0.0
 40
0.0
 40
1.0
 40
1.0
 40
1.0
 40
2.0
 40
2.0
 40
2.0
 40
3.0
 40
3.0
 40
3.0
 40
4.0
 40
4.0
 40
4.0
 40
5.0
 40
5.0
 40
5.0
 40
6.0
 40
6.0
 40
6.0
 40
7.0
 40
7.0
 40
7.0
 40
8.0
 40
8.0
 40
8.0
 40
9.0
 40
9.0
 40
9.0
 40
10.0
 40
10.0
 40
10.0
 40
11.0
 40
11.0
 40
11.0
 40
12.0
 40
12.0
 40
12.0
 40
12.0
 10
899.4026085619072
 20
514.7246563770218
 30
0.0
 10
900.3777712621886
 20
514.7246563770218
 30
0.0
 10
901.0284213748029
 20
514.9079523228548
 30
0.0
 10
901.4734315942568
 20
514.6845384389767
 30
0.0
 10
902.2733830213274
 20
514.2829524078415
 30
0.0
 10
903.5894560781365
 20
513.5723266468105
 30
0.0
 10
903.5419025484491
 20
513.1074657697864
 30
0.0
 10
903.449385000991
 20
512.2033630086122
 30
0.0
 10
902.5828408248271
 20
511.3657882987725
 30
0.0
 10
901.9867262783234
 20
510.5364870818673
 30
0.0
 10
901.8837319663282
 20
510.3932055629995
 30
0.0
 10
901.5279003821214
 20
510.3670024718752
 30
0.0
 10
901.2977677129439
 20
510.3872610694141
 30
0.0
 10
897.3985118351375
 20
510.7305555739089
 30
0.0
 10
893.5010663897294
 20
510.4846354232768
 30
0.0
 10
889.600645602551
 20
510.4620034644933
 30
0.0
 10
887.4165963472313
 20
510.4493381442068
 30
0.0
 10
885.6357986493151
 20
513.2121524422502
 30
0.0
 10
885.877150063521
 20
515.900157802373
 30
0.0
 10
886.3201124168183
 20
520.8335329537006
 30
0.0
 10
888.6769986077791
 20
523.3972215039663
 30
0.0
 10
893.5137839353499
 20
524.8433785317994
 30
0.0
 10
894.0747953848118
 20
525.011118240689
 30
0.0
 10
894.7755811192219
 20
524.7901368672471
 30
0.0
 10
895.3960771446686
 20
524.6699900752735
 30
0.0
 10
896.9430471105617
 20
524.3704326998814
 30
0.0
 10
898.4615027661737
 20
523.2025910946223
 30
0.0
 10
900.0482428863994
 20
524.7296235491607
 30
0.0
 10
900.2443038114158
 20
524.918313161746
 30
0.0
 10
901.4740400182596
 20
524.5434551707936
 30
0.0
 10
901.6086946378178
 20
524.1940091505518
 30
0.0
 10
901.9515193040119
 20
523.3043129139416
 30
0.0
 10
902.2728116963481
 20
522.1824302292258
 30
0.0
 10
902.0143873110383
 20
521.3307262566502
 30
0.0
 10
901.3678106713213
 20
519.1997657859988
 30
0.0
 10
900.3950000491961
 20
517.1670890880051
 30
0.0
 10
899.4026085619072
 20
514.7246563770218
 30
0.0
  0
SPLINE
  5
8D
330
70
100
AcDbEntity
  8
Capa 1
 62
     7
370
    35
100
AcDbSpline
210
0.0
220
0.0
230
1.0
 70
     9
 71
     3
 72
    17
 73
    13
 74
     0
 42
0.0000000001
 43
0.0000000001
 40
0.0
 40
0.0
 40
0.0
 40
0.0
 40
1.0
 40
1.0
 40
1.0
 40
2.0
 40
2.0
 40
2.0
 40
3.0
 40
3.0
 40
3.0
 40
4.0
 40
4.0
 40
4.0
 40
4.0
 10
927.1658490897268
 20
549.1358214322868
 30
0.0
 10
927.1737586017646
 20
548.7428268209848
 30
0.0
 10
927.1816606939967
 20
548.3498359065067
 30
0.0
 10
927.1895702060346
 20
547.9568412952037
 30
0.0
 10
928.3983528838032
 20
547.9568412952037
 30
0.0
 10
929.6071429813761
 20
547.9568412952037
 30
0.0
 10
930.8159256591455
 20
547.9568412952037
 30
0.0
 10
930.6424506202828
 20
548.5197826195444
 30
0.0
 10
930.4626316482202
 20
549.568623448388
 30
0.0
 10
930.2965318954411
 20
549.5664718966057
 30
0.0
 10
929.2512742981456
 20
549.5529267321208
 30
0.0
 10
928.2090662406707
 20
549.3057681453255
 30
0.0
 10
927.1658490897268
 20
549.1358214322868
 30
0.0
  0
SPLINE
  5
8E
330
70
100
AcDbEntity
  8
Capa 1
 62
     7
370
    35
100
AcDbSpline
210
0.0
220
0.0
230
1.0
 70
     9
 71
     3
 72
    38
 73
    34
 74
     0
 42
0.0000000001
 43
0.0000000001
 40
0.0
 40
0.0
 40
0.0
 40
0.0
 40
1.0
 40
1.0
 40
1.0
 40
2.0
 40
2.0
 40
2.0
 40
3.0
 40
3.0
 40
3.0
 40
4.0
 40
4.0
 40
4.0
 40
5.0
 40
5.0
 40
5.0
 40
6.0
 40
6.0
 40
6.0
 40
7.0
 40
7.0
 40
7.0
 40
8.0
 40
8.0
 40
8.0
 40
9.0
 40
9.0
 40
9.0
 40
10.0
 40
10.0
 40
10.0
 40
11.0
 40
11.0
 40
11.0
 40
11.0
 10
926.2362068925851
 20
543.6779075681588
 30
0.0
 10
927.0966965079393
 20
543.5566517288764
 30
0.0
 10
927.9547375876726
 20
543.3572228415006
 30
0.0
 10
928.8181802853827
 20
543.330457833074
 30
0.0
 10
930.5980059888543
 20
543.2752864262007
 30
0.0
 10
932.4018644404398
 20
543.4701977941976
 30
0.0
 10
934.1523448154822
 20
543.2374420351425
 30
0.0
 10
934.9040897700337
 20
543.137483601045
 30
0.0
 10
935.8734501828749
 20
542.3494796091601
 30
0.0
 10
936.1363264511325
 20
541.6479813074946
 30
0.0
 10
936.3444371393285
 20
541.0926406540553
 30
0.0
 10
935.8370782991915
 20
539.8999268144446
 30
0.0
 10
935.2791386489638
 20
539.4984332039182
 30
0.0
 10
933.4068102376424
 20
538.1511181692241
 30
0.0
 10
924.6350352518041
 20
538.9473845635705
 30
0.0
 10
922.8413270933399
 20
540.4610529980183
 30
0.0
 10
921.3679615921831
 20
541.7043837568821
 30
0.0
 10
920.5133336227103
 20
545.699453127979
 30
0.0
 10
921.327887225849
 20
547.5358173615417
 30
0.0
 10
923.3174633944029
 20
552.0212298200335
 30
0.0
 10
926.9099622776975
 20
554.0482392862708
 30
0.0
 10
931.8736707881084
 20
553.4861038696425
 30
0.0
 10
934.1407773396234
 20
553.2293557204353
 30
0.0
 10
935.2908248417026
 20
551.6662015949942
 30
0.0
 10
935.2867365291952
 20
548.8470402999292
 30
0.0
 10
935.2833234189349
 20
546.4943221227174
 30
0.0
 10
933.5780741746411
 20
544.4522480971783
 30
0.0
 10
931.3413739836603
 20
544.307480454914
 30
0.0
 10
929.6667314346315
 20
544.1990932612576
 30
0.0
 10
927.9793639201789
 20
544.2860869322946
 30
0.0
 10
926.2976577168741
 20
544.2860869322946
 30
0.0
 10
926.2771790553141
 20
544.0833604775821
 30
0.0
 10
926.2566929739501
 20
543.8806340228705
 30
0.0
 10
926.2362068925851
 20
543.6779075681588
 30
0.0
  0
SPLINE
  5
8F
330
70
100
AcDbEntity
  8
Capa 1
 62
     7
370
    35
100
AcDbSpline
210
0.0
220
0.0
230
1.0
 70
     9
 71
     3
 72
    11
 73
     7
 74
     0
 42
0.0000000001
 43
0.0000000001
 40
0.0
 40
0.0
 40
0.0
 40
0.0
 40
1.0
 40
1.0
 40
1.0
 40
2.0
 40
2.0
 40
2.0
 40
2.0
 10
991.9117271219905
 20
548.2805352368975
 30
0.0
 10
989.8470328484989
 20
550.4999459273865
 30
0.0
 10
988.747551316902
 20
550.2725801382587
 30
0.0
 10
987.8204615326485
 20
547.3939591200546
 30
0.0
 10
989.2661363218708
 20
547.7072354106771
 30
0.0
 10
990.4814113289399
 20
547.9705860882059
 30
0.0
 10
991.9117271219905
 20
548.2805352368975
 30
0.0
  0
SPLINE
  5
90
330
70
100
AcDbEntity
  8
Capa 1
 62
     7
370
    35
100
AcDbSpline
210
0.0
220
0.0
230
1.0
 70
     9
 71
     3
 72
    38
 73
    34
 74
     0
 42
0.0000000001
 43
0.0000000001
 40
0.0
 40
0.0
 40
0.0
 40
0.0
 40
1.0
 40
1.0
 40
1.0
 40
2.0
 40
2.0
 40
2.0
 40
3.0
 40
3.0
 40
3.0
 40
4.0
 40
4.0
 40
4.0
 40
5.0
 40
5.0
 40
5.0
 40
6.0
 40
6.0
 40
6.0
 40
7.0
 40
7.0
 40
7.0
 40
8.0
 40
8.0
 40
8.0
 40
9.0
 40
9.0
 40
9.0
 40
10.0
 40
10.0
 40
10.0
 40
11.0
 40
11.0
 40
11.0
 40
11.0
 10
987.1037380572861
 20
543.3141178693658
 30
0.0
 10
989.1184822041042
 20
543.3141178693658
 30
0.0
 10
991.1344135197095
 20
543.3562099116246
 30
0.0
 10
993.147614347106
 20
543.3006873064356
 30
0.0
 10
994.7334492511325
 20
543.2569538741587
 30
0.0
 10
997.0331881046545
 20
543.8932475876152
 30
0.0
 10
996.9447885489225
 20
541.3164574917882
 30
0.0
 10
996.8681419641717
 20
539.0824295577478
 30
0.0
 10
994.887558599173
 20
538.7745247529316
 30
0.0
 10
992.9850761006859
 20
538.9579316034946
 30
0.0
 10
990.2326549494308
 20
539.2232674757082
 30
0.0
 10
987.4023406862006
 20
539.2289088296946
 30
0.0
 10
984.7737412393302
 20
539.9527987965601
 30
0.0
 10
983.7627928199539
 20
540.2312066397411
 30
0.0
 10
982.6563218321275
 20
542.1299917527615
 30
0.0
 10
982.5521922899808
 20
543.3703909299015
 30
0.0
 10
982.1193357109743
 20
548.5262298812433
 30
0.0
 10
983.8107395992993
 20
551.4878335160448
 30
0.0
 10
987.5916050699169
 20
553.0948948245098
 30
0.0
 10
990.0086361995022
 20
554.1222534069492
 30
0.0
 10
993.7493456859304
 20
553.7436024741965
 30
0.0
 10
994.8546146653592
 20
551.8846876119879
 30
0.0
 10
995.6716687427542
 20
550.5105484196745
 30
0.0
 10
996.3288260242764
 20
548.3486048639925
 30
0.0
 10
995.7909940453619
 20
547.064069300719
 30
0.0
 10
995.2590533915493
 20
545.7935742763978
 30
0.0
 10
993.2386701929978
 20
544.8716343376462
 30
0.0
 10
991.6851262799514
 20
544.3766739166165
 30
0.0
 10
990.2974892047597
 20
543.9345743872284
 30
0.0
 10
988.6559612450584
 20
544.283717267874
 30
0.0
 10
987.1264723395404
 20
544.283717267874
 30
0.0
 10
987.11888929892
 20
543.9605187006456
 30
0.0
 10
987.1113210979064
 20
543.6373164365932
 30
0.0
 10
987.1037380572861
 20
543.3141178693658
 30
0.0
  0
SPLINE
  5
91
330
70
100
AcDbEntity
  8
Capa 1
 62
     7
370
    35
100
AcDbSpline
210
0.0
220
0.0
230
1.0
 70
     9
 71
     3
 72
    17
 73
    13
 74
     0
 42
0.0000000001
 43
0.0000000001
 40
0.0
 40
0.0
 40
0.0
 40
0.0
 40
1.0
 40
1.0
 40
1.0
 40
2.0
 40
2.0
 40
2.0
 40
3.0
 40
3.0
 40
3.0
 40
4.0
 40
4.0
 40
4.0
 40
4.0
 10
1015.337787466243
 20
548.4992171855834
 30
0.0
 10
1015.532913495841
 20
548.1109914777156
 30
0.0
 10
1015.728039525441
 20
547.7227620730246
 30
0.0
 10
1015.923165555038
 20
547.3345363651568
 30
0.0
 10
1016.902965633393
 20
547.7470871773688
 30
0.0
 10
1017.882750872135
 20
548.159641686403
 30
0.0
 10
1018.862536110878
 20
548.5721961954392
 30
0.0
 10
1018.536880873252
 20
548.9781925380448
 30
0.0
 10
1018.084287613178
 20
549.7799819879998
 30
0.0
 10
1017.906969115371
 20
549.7235092989487
 30
0.0
 10
1017.011190907851
 20
549.438210575146
 30
0.0
 10
1016.187058336569
 20
548.9295386325332
 30
0.0
 10
1015.337787466243
 20
548.4992171855834
 30
0.0
  0
SPLINE
  5
92
330
70
100
AcDbEntity
  8
Capa 1
 62
     7
370
    35
100
AcDbSpline
210
0.0
220
0.0
230
1.0
 70
     9
 71
     3
 72
    38
 73
    34
 74
     0
 42
0.0000000001
 43
0.0000000001
 40
0.0
 40
0.0
 40
0.0
 40
0.0
 40
1.0
 40
1.0
 40
1.0
 40
2.0
 40
2.0
 40
2.0
 40
3.0
 40
3.0
 40
3.0
 40
4.0
 40
4.0
 40
4.0
 40
5.0
 40
5.0
 40
5.0
 40
6.0
 40
6.0
 40
6.0
 40
7.0
 40
7.0
 40
7.0
 40
8.0
 40
8.0
 40
8.0
 40
9.0
 40
9.0
 40
9.0
 40
10.0
 40
10.0
 40
10.0
 40
11.0
 40
11.0
 40
11.0
 40
11.0
 10
1014.731144216569
 20
543.6998334334874
 30
0.0
 10
1015.357004760969
 20
543.5713909676326
 30
0.0
 10
1015.98003093989
 20
543.3514447050135
 30
0.0
 10
1016.609260075722
 20
543.3321694627566
 30
0.0
 10
1018.303424131475
 20
543.2802549581522
 30
0.0
 10
1020.001134853976
 20
543.2799666058512
 30
0.0
 10
1021.695729258414
 20
543.3243802538119
 30
0.0
 10
1023.070203599693
 20
543.3604021104577
 30
0.0
 10
1024.370880561307
 20
542.9261213646092
 30
0.0
 10
1024.153302202043
 20
541.4701973267954
 30
0.0
 10
1024.016065490374
 20
540.5518913663984
 30
0.0
 10
1022.85853140514
 20
539.1643881539945
 30
0.0
 10
1022.044385891272
 20
539.0798195997439
 30
0.0
 10
1019.250057681868
 20
538.7895597376378
 30
0.0
 10
1016.357728689175
 20
538.6600267085944
 30
0.0
 10
1013.591432502733
 20
539.0673391206749
 30
0.0
 10
1009.828255847027
 20
539.6214302474781
 30
0.0
 10
1008.200098375779
 20
545.9948183045382
 30
0.0
 10
1010.88908019503
 20
549.5296404354243
 30
0.0
 10
1012.81511315431
 20
552.0615325992971
 30
0.0
 10
1015.158836611355
 20
553.9761327269664
 30
0.0
 10
1018.792374435621
 20
553.5356598003011
 30
0.0
 10
1021.413910228215
 20
553.2178622934749
 30
0.0
 10
1023.286624469391
 20
551.5820914469643
 30
0.0
 10
1023.300558863017
 20
549.0299000204856
 30
0.0
 10
1023.315754623479
 20
546.2464759265903
 30
0.0
 10
1021.555747218929
 20
544.3619753429283
 30
0.0
 10
1018.832292986053
 20
544.2897726661901
 30
0.0
 10
1017.490302550685
 20
544.2541944284689
 30
0.0
 10
1016.146590720574
 20
544.2836026663185
 30
0.0
 10
1014.803650550176
 20
544.2836026663185
 30
0.0
 10
1014.77949166538
 20
544.0890129220415
 30
0.0
 10
1014.755317940973
 20
543.8944231777635
 30
0.0
 10
1014.731144216569
 20
543.6998334334874
 30
0.0
  0
SPLINE
  5
93
330
70
100
AcDbEntity
  8
Capa 1
 62
     7
370
    35
100
AcDbSpline
210
0.0
220
0.0
230
1.0
 70
     9
 71
     3
 72
    17
 73
    13
 74
     0
 42
0.0000000001
 43
0.0000000001
 40
0.0
 40
0.0
 40
0.0
 40
0.0
 40
1.0
 40
1.0
 40
1.0
 40
2.0
 40
2.0
 40
2.0
 40
3.0
 40
3.0
 40
3.0
 40
4.0
 40
4.0
 40
4.0
 40
4.0
 10
897.6422746859398
 20
549.43596290593
 30
0.0
 10
894.0793808242482
 20
548.3450337316517
 30
0.0
 10
892.78751859087
 20
547.212707518098
 30
0.0
 10
893.0296045657613
 20
545.1369073638469
 30
0.0
 10
893.1034093652302
 20
544.5040258192819
 30
0.0
 10
893.6287241332557
 20
543.5360419330227
 30
0.0
 10
894.1264965854447
 20
543.4067676816862
 30
0.0
 10
896.2729125902464
 20
542.8493013542345
 30
0.0
 10
897.9725079431965
 20
543.5429143295232
 30
0.0
 10
898.9904977574363
 20
545.6632907920086
 30
0.0
 10
899.8393456988823
 20
547.4313672858373
 30
0.0
 10
898.9961442289748
 20
548.5033428415786
 30
0.0
 10
897.6422746859398
 20
549.43596290593
 30
0.0
  0
SPLINE
  5
94
330
70
100
AcDbEntity
  8
Capa 1
 62
     7
370
    35
100
AcDbSpline
210
0.0
220
0.0
230
1.0
 70
     9
 71
     3
 72
    20
 73
    16
 74
     0
 42
0.0000000001
 43
0.0000000001
 40
0.0
 40
0.0
 40
0.0
 40
0.0
 40
1.0
 40
1.0
 40
1.0
 40
2.0
 40
2.0
 40
2.0
 40
3.0
 40
3.0
 40
3.0
 40
4.0
 40
4.0
 40
4.0
 40
5.0
 40
5.0
 40
5.0
 40
5.0
 10
895.213920934059
 20
538.9531700937074
 30
0.0
 10
890.538768636709
 20
538.9531516095863
 30
0.0
 10
888.3977542498824
 20
540.7332058143687
 30
0.0
 10
888.0757643958856
 20
544.3952060971748
 30
0.0
 10
887.7360634675596
 20
548.2585908874479
 30
0.0
 10
891.4325434969031
 20
553.4953828988076
 30
0.0
 10
895.7453570411374
 20
553.4371172499381
 30
0.0
 10
897.6671310323974
 20
553.4111581492229
 30
0.0
 10
899.7761141214144
 20
553.2293261458412
 30
0.0
 10
901.4578871029636
 20
552.415754916624
 30
0.0
 10
904.813100625145
 20
550.7926456935758
 30
0.0
 10
904.1275032313917
 20
544.1060072236625
 30
0.0
 10
902.0937792236066
 20
541.9301488210579
 30
0.0
 10
899.558951271225
 20
539.2181695549051
 30
0.0
 10
899.170828696039
 20
538.9531848810053
 30
0.0
 10
895.213920934059
 20
538.9531700937074
 30
0.0
  0
SPLINE
  5
95
330
70
100
AcDbEntity
  8
Capa 1
 62
     7
370
    35
100
AcDbSpline
210
0.0
220
0.0
230
1.0
 70
     9
 71
     3
 72
    62
 73
    58
 74
     0
 42
0.0000000001
 43
0.0000000001
 40
0.0
 40
0.0
 40
0.0
 40
0.0
 40
1.0
 40
1.0
 40
1.0
 40
2.0
 40
2.0
 40
2.0
 40
3.0
 40
3.0
 40
3.0
 40
4.0
 40
4.0
 40
4.0
 40
5.0
 40
5.0
 40
5.0
 40
6.0
 40
6.0
 40
6.0
 40
7.0
 40
7.0
 40
7.0
 40
8.0
 40
8.0
 40
8.0
 40
9.0
 40
9.0
 40
9.0
 40
10.0
 40
10.0
 40
10.0
 40
11.0
 40
11.0
 40
11.0
 40
12.0
 40
12.0
 40
12.0
 40
13.0
 40
13.0
 40
13.0
 40
14.0
 40
14.0
 40
14.0
 40
15.0
 40
15.0
 40
15.0
 40
16.0
 40
16.0
 40
16.0
 40
17.0
 40
17.0
 40
17.0
 40
18.0
 40
18.0
 40
18.0
 40
19.0
 40
19.0
 40
19.0
 40
19.0
 10
1073.809678798925
 20
549.2797166240007
 30
0.0
 10
1073.439638288311
 20
548.9264554810099
 30
0.0
 10
1073.064641348014
 20
548.5781850509165
 30
0.0
 10
1072.700566360551
 20
548.2189091746774
 30
0.0
 10
1071.93074676123
 20
547.4592080701554
 30
0.0
 10
1071.269849898033
 20
546.5146102948513
 30
0.0
 10
1070.362793587043
 20
545.995431977384
 30
0.0
 10
1069.785414047946
 20
545.6649580597984
 30
0.0
 10
1068.702538039742
 20
545.7181627561077
 30
0.0
 10
1068.11787225222
 20
546.0602077339655
 30
0.0
 10
1067.70062694275
 20
546.3043164406571
 30
0.0
 10
1067.435517313213
 20
547.4132824210284
 30
0.0
 10
1067.619246522466
 20
547.9656693117962
 30
0.0
 10
1068.411948800135
 20
550.3489565297098
 30
0.0
 10
1069.244836741214
 20
552.7435523333661
 30
0.0
 10
1070.360805079329
 20
554.9869905338367
 30
0.0
 10
1071.129051680006
 20
556.5314294859142
 30
0.0
 10
1073.470504676749
 20
556.1909390227041
 30
0.0
 10
1074.400621741403
 20
554.6952574872206
 30
0.0
 10
1074.740419127194
 20
554.1488224836846
 30
0.0
 10
1075.505311976051
 20
553.6192006373769
 30
0.0
 10
1076.131543510696
 20
553.5449831913572
 30
0.0
 10
1077.566385384744
 20
553.3749329672368
 30
0.0
 10
1079.07049855746
 20
553.6805901028377
 30
0.0
 10
1080.477857474111
 20
553.4220526906369
 30
0.0
 10
1081.409874008826
 20
553.2508305731912
 30
0.0
 10
1082.222936231178
 20
552.4368083314015
 30
0.0
 10
1083.089272652804
 20
551.9105616857423
 30
0.0
 10
1082.369403180159
 20
550.9863555936526
 30
0.0
 10
1081.73489114323
 20
549.9766419539241
 30
0.0
 10
1080.909363648625
 20
549.1583129117448
 30
0.0
 10
1079.721749674273
 20
547.9810628884653
 30
0.0
 10
1078.173562860374
 20
547.1081317503658
 30
0.0
 10
1077.191180689911
 20
545.7984910528075
 30
0.0
 10
1076.238032550805
 20
544.5278185809169
 30
0.0
 10
1076.615819337749
 20
543.326886700734
 30
0.0
 10
1078.567079633732
 20
543.315969978374
 30
0.0
 10
1079.213760150718
 20
543.3123507873172
 30
0.0
 10
1079.916593751285
 20
543.475857632306
 30
0.0
 10
1080.494181044922
 20
543.2765100750668
 30
0.0
 10
1081.396369963886
 20
542.9651339521686
 30
0.0
 10
1082.748733286524
 20
542.5555295089793
 30
0.0
 10
1082.92360324871
 20
541.9185444893651
 30
0.0
 10
1083.116547855664
 20
541.2157633896429
 30
0.0
 10
1082.395669289551
 20
539.9871385981182
 30
0.0
 10
1081.717736554272
 20
539.3834841470101
 30
0.0
 10
1080.454856078883
 20
538.2589286582756
 30
0.0
 10
1074.61876400584
 20
538.9488189314278
 30
0.0
 10
1073.373809779124
 20
540.1706526565877
 30
0.0
 10
1071.655946866478
 20
541.8566374684929
 30
0.0
 10
1071.336123595513
 20
544.6424977696477
 30
0.0
 10
1072.648004462546
 20
546.674908296287
 30
0.0
 10
1073.141362130814
 20
547.4391823725518
 30
0.0
 10
1073.680811627199
 20
548.1739003379926
 30
0.0
 10
1074.199248236069
 20
548.9220858346064
 30
0.0
 10
1074.069401650095
 20
549.0412973300123
 30
0.0
 10
1073.939525384901
 20
549.160505128595
 30
0.0
 10
1073.809678798925
 20
549.2797166240007
 30
0.0
  0
SPLINE
  5
96
330
70
100
AcDbEntity
  8
Capa 1
 62
     7
370
    35
100
AcDbSpline
210
0.0
220
0.0
230
1.0
 70
     9
 71
     3
 72
    17
 73
    13
 74
     0
 42
0.0000000001
 43
0.0000000001
 40
0.0
 40
0.0
 40
0.0
 40
0.0
 40
1.0
 40
1.0
 40
1.0
 40
2.0
 40
2.0
 40
2.0
 40
3.0
 40
3.0
 40
3.0
 40
4.0
 40
4.0
 40
4.0
 40
4.0
 10
1058.586286983889
 20
542.8763953800309
 30
0.0
 10
1060.582630014525
 20
543.3365871678768
 30
0.0
 10
1062.41106285998
 20
545.1886407240578
 30
0.0
 10
1062.101048571112
 20
546.8631099280559
 30
0.0
 10
1061.943348037495
 20
547.7147732355645
 30
0.0
 10
1060.879140258452
 20
548.7878948068595
 30
0.0
 10
1060.016899569139
 20
549.0320330881452
 30
0.0
 10
1058.683530947076
 20
549.4095601862905
 30
0.0
 10
1056.1313406512
 20
546.8046631347919
 30
0.0
 10
1056.470692848695
 20
545.3580477007372
 30
0.0
 10
1056.691239129925
 20
544.4179304765671
 30
0.0
 10
1057.848624819063
 20
543.6960478853343
 30
0.0
 10
1058.586286983889
 20
542.8763953800309
 30
0.0
  0
SPLINE
  5
97
330
70
100
AcDbEntity
  8
Capa 1
 62
     7
370
    35
100
AcDbSpline
210
0.0
220
0.0
230
1.0
 70
     9
 71
     3
 72
    20
 73
    16
 74
     0
 42
0.0000000001
 43
0.0000000001
 40
0.0
 40
0.0
 40
0.0
 40
0.0
 40
1.0
 40
1.0
 40
1.0
 40
2.0
 40
2.0
 40
2.0
 40
3.0
 40
3.0
 40
3.0
 40
4.0
 40
4.0
 40
4.0
 40
5.0
 40
5.0
 40
5.0
 40
5.0
 10
1059.049104735134
 20
538.9531996683031
 30
0.0
 10
1053.821436664948
 20
538.9528188953934
 30
0.0
 10
1051.699476337139
 20
540.6445744501377
 30
0.0
 10
1051.504750977005
 20
544.6536732697129
 30
0.0
 10
1051.303258754791
 20
548.8028558550788
 30
0.0
 10
1054.976255101586
 20
553.3091110093596
 30
0.0
 10
1058.967012013579
 20
553.4189806295866
 30
0.0
 10
1060.79157172087
 20
553.4692130791031
 30
0.0
 10
1062.955038437362
 20
553.2722130053385
 30
0.0
 10
1064.404215374504
 20
552.3306244450691
 30
0.0
 10
1067.211676638601
 20
550.5065040938151
 30
0.0
 10
1067.479116086882
 20
544.9600697701867
 30
0.0
 10
1065.169345657116
 20
542.2110557175121
 30
0.0
 10
1063.504905339843
 20
540.2300865019575
 30
0.0
 10
1061.749231101363
 20
538.1989698638472
 30
0.0
 10
1059.049104735134
 20
538.9531996683031
 30
0.0
  0
SPLINE
  5
98
330
70
100
AcDbEntity
  8
Capa 1
 62
     7
370
    35
100
AcDbSpline
210
0.0
220
0.0
230
1.0
 70
     9
 71
     3
 72
    53
 73
    49
 74
     0
 42
0.0000000001
 43
0.0000000001
 40
0.0
 40
0.0
 40
0.0
 40
0.0
 40
1.0
 40
1.0
 40
1.0
 40
2.0
 40
2.0
 40
2.0
 40
3.0
 40
3.0
 40
3.0
 40
4.0
 40
4.0
 40
4.0
 40
5.0
 40
5.0
 40
5.0
 40
6.0
 40
6.0
 40
6.0
 40
7.0
 40
7.0
 40
7.0
 40
8.0
 40
8.0
 40
8.0
 40
9.0
 40
9.0
 40
9.0
 40
10.0
 40
10.0
 40
10.0
 40
11.0
 40
11.0
 40
11.0
 40
12.0
 40
12.0
 40
12.0
 40
13.0
 40
13.0
 40
13.0
 40
14.0
 40
14.0
 40
14.0
 40
15.0
 40
15.0
 40
15.0
 40
16.0
 40
16.0
 40
16.0
 40
16.0
 10
1003.811832835385
 20
543.4464567881047
 30
0.0
 10
1004.587514080586
 20
543.3954221276995
 30
0.0
 10
1005.305988629908
 20
543.5373764866195
 30
0.0
 10
1005.809778543881
 20
543.2730350601607
 30
0.0
 10
1006.682733431488
 20
542.8149948240972
 30
0.0
 10
1007.422740254667
 20
542.1053302374004
 30
0.0
 10
1008.218499491963
 20
541.5011988959488
 30
0.0
 10
1007.494103938319
 20
540.6563451389261
 30
0.0
 10
1006.871701023009
 20
539.229740615177
 30
0.0
 10
1006.025012244794
 20
539.0823297434891
 30
0.0
 10
1003.981108264666
 20
538.7264734297932
 30
0.0
 10
1001.808188716714
 20
538.791171553061
 30
0.0
 10
999.7400664933552
 20
539.0720821463392
 30
0.0
 10
999.0800451671358
 20
539.1617338340969
 30
0.0
 10
998.006844584539
 20
540.5656694308194
 30
0.0
 10
998.1175925926686
 20
541.194173935332
 30
0.0
 10
998.5638196601275
 20
543.726602138739
 30
0.0
 10
999.3991116179998
 20
546.1909570182261
 30
0.0
 10
999.9088076966827
 20
548.0256983458892
 30
0.0
 10
999.3418010448522
 20
549.5680097755429
 30
0.0
 10
998.2654693045814
 20
551.1492524626203
 30
0.0
 10
998.6587041253541
 20
551.713472888192
 30
0.0
 10
999.4179876016969
 20
552.8028863644782
 30
0.0
 10
1001.006701390027
 20
553.3183013147382
 30
0.0
 10
1002.251551739479
 20
554.0716845464147
 30
0.0
 10
1002.382837767606
 20
553.8938635974725
 30
0.0
 10
1002.514138635345
 20
553.7160463453552
 30
0.0
 10
1002.645424663474
 20
553.5382253964121
 30
0.0
 10
1003.100095468922
 20
554.4485314288762
 30
0.0
 10
1003.62664934437
 20
555.3310558262126
 30
0.0
 10
1003.994092923263
 20
556.275078745328
 30
0.0
 10
1004.699894445795
 20
558.0884561249665
 30
0.0
 10
1006.143922038326
 20
558.9416961280687
 30
0.0
 10
1007.788135967407
 20
558.2088173327518
 30
0.0
 10
1009.494735616194
 20
557.4481328729477
 30
0.0
 10
1008.774539672133
 20
555.7995451363531
 30
0.0
 10
1008.227536814348
 20
554.4480397512347
 30
0.0
 10
1008.137015194409
 20
554.2244114515451
 30
0.0
 10
1008.034666405443
 20
554.0055409648158
 30
0.0
 10
1008.168475167241
 20
554.3108875671688
 30
0.0
 10
1009.105893319932
 20
553.2334296208904
 30
0.0
 10
1010.591100829729
 20
552.2827062076063
 30
0.0
 10
1010.518817090266
 20
551.4694529052851
 30
0.0
 10
1010.290034825586
 20
548.8957385673335
 30
0.0
 10
1008.023432820803
 20
549.060931164234
 30
0.0
 10
1006.072706750775
 20
549.1006350579494
 30
0.0
 10
1005.320026900804
 20
547.2182638451228
 30
0.0
 10
1004.597842449024
 20
545.4121618158417
 30
0.0
 10
1003.811832835385
 20
543.4464567881047
 30
0.0
  0
SPLINE
  5
99
330
70
100
AcDbEntity
  8
Capa 1
 62
     7
370
    35
100
AcDbSpline
210
0.0
220
0.0
230
1.0
 70
     9
 71
     3
 72
    41
 73
    37
 74
     0
 42
0.0000000001
 43
0.0000000001
 40
0.0
 40
0.0
 40
0.0
 40
0.0
 40
1.0
 40
1.0
 40
1.0
 40
2.0
 40
2.0
 40
2.0
 40
3.0
 40
3.0
 40
3.0
 40
4.0
 40
4.0
 40
4.0
 40
5.0
 40
5.0
 40
5.0
 40
6.0
 40
6.0
 40
6.0
 40
7.0
 40
7.0
 40
7.0
 40
8.0
 40
8.0
 40
8.0
 40
9.0
 40
9.0
 40
9.0
 40
10.0
 40
10.0
 40
10.0
 40
11.0
 40
11.0
 40
11.0
 40
12.0
 40
12.0
 40
12.0
 40
12.0
 10
1034.623077282776
 20
546.7890551423086
 30
0.0
 10
1033.881838771981
 20
547.5663937958917
 30
0.0
 10
1033.254746539965
 20
548.7901498697245
 30
0.0
 10
1032.372042028701
 20
549.0142624534074
 30
0.0
 10
1031.113806351189
 20
549.3337272280225
 30
0.0
 10
1029.547366817204
 20
547.0117629327319
 30
0.0
 10
1029.615139315279
 20
545.4513888192137
 30
0.0
 10
1029.695970669999
 20
543.5903113147506
 30
0.0
 10
1030.862364002302
 20
543.2593272354024
 30
0.0
 10
1032.415477566661
 20
543.3037593674851
 30
0.0
 10
1034.030798775409
 20
543.3499807625631
 30
0.0
 10
1035.684955243075
 20
543.5113693271885
 30
0.0
 10
1037.249806938808
 20
543.2271131078567
 30
0.0
 10
1038.030340736419
 20
543.0853214092093
 30
0.0
 10
1039.127596326544
 20
542.116054724893
 30
0.0
 10
1039.208205087116
 20
541.420560066001
 30
0.0
 10
1039.290238450232
 20
540.7128400089232
 30
0.0
 10
1038.347492877615
 20
539.2533152641745
 30
0.0
 10
1037.769861065149
 20
539.2091603939199
 30
0.0
 10
1034.644357283264
 20
538.9702235445192
 30
0.0
 10
1031.461765522381
 20
538.8124985328435
 30
0.0
 10
1028.367157808156
 20
539.1871273206846
 30
0.0
 10
1027.266355551284
 20
539.3203904455138
 30
0.0
 10
1025.914719369527
 20
540.8540882743901
 30
0.0
 10
1025.440935146621
 20
542.0490312990947
 30
0.0
 10
1023.762144926646
 20
546.2831299402012
 30
0.0
 10
1025.936993623875
 20
551.4430649729442
 30
0.0
 10
1030.280428702985
 20
552.9271662060932
 30
0.0
 10
1032.206802973292
 20
553.5853857848793
 30
0.0
 10
1034.732356169531
 20
553.3674875629599
 30
0.0
 10
1036.72666617362
 20
552.735223388064
 30
0.0
 10
1039.008241344716
 20
552.0118805512058
 30
0.0
 10
1038.683491323289
 20
549.5022987223956
 30
0.0
 10
1038.260770197795
 20
547.7177713601272
 30
0.0
 10
1037.759028149977
 20
545.5996092954389
 30
0.0
 10
1035.784410308126
 20
546.2761836072139
 30
0.0
 10
1034.623077282776
 20
546.7890551423086
 30
0.0
  0
SPLINE
  5
9A
330
70
100
AcDbEntity
  8
Capa 1
 62
     7
370
    35
100
AcDbSpline
210
0.0
220
0.0
230
1.0
 70
     9
 71
     3
 72
    59
 73
    55
 74
     0
 42
0.0000000001
 43
0.0000000001
 40
0.0
 40
0.0
 40
0.0
 40
0.0
 40
1.0
 40
1.0
 40
1.0
 40
2.0
 40
2.0
 40
2.0
 40
3.0
 40
3.0
 40
3.0
 40
4.0
 40
4.0
 40
4.0
 40
5.0
 40
5.0
 40
5.0
 40
6.0
 40
6.0
 40
6.0
 40
7.0
 40
7.0
 40
7.0
 40
8.0
 40
8.0
 40
8.0
 40
9.0
 40
9.0
 40
9.0
 40
10.0
 40
10.0
 40
10.0
 40
11.0
 40
11.0
 40
11.0
 40
12.0
 40
12.0
 40
12.0
 40
13.0
 40
13.0
 40
13.0
 40
14.0
 40
14.0
 40
14.0
 40
15.0
 40
15.0
 40
15.0
 40
16.0
 40
16.0
 40
16.0
 40
17.0
 40
17.0
 40
17.0
 40
18.0
 40
18.0
 40
18.0
 40
18.0
 10
1042.590701231963
 20
548.0210884059025
 30
0.0
 10
1041.822261716357
 20
549.3749653038521
 30
0.0
 10
1040.71920383879
 20
550.4853619552529
 30
0.0
 10
1040.948876480064
 20
551.1058961064283
 30
0.0
 10
1041.307520170333
 20
552.0747524432389
 30
0.0
 10
1042.555561035895
 20
552.727840829801
 30
0.0
 10
1043.452956760886
 20
553.4838598972514
 30
0.0
 10
1044.118735855717
 20
554.0447494840667
 30
0.0
 10
1044.954265247344
 20
554.4564722076194
 30
0.0
 10
1045.476664032041
 20
555.1202555070792
 30
0.0
 10
1045.942909733153
 20
555.712712277177
 30
0.0
 10
1045.877363176554
 20
556.8769993858075
 30
0.0
 10
1046.41406734512
 20
557.2233123473985
 30
0.0
 10
1047.328840253218
 20
557.813595384768
 30
0.0
 10
1048.528637547237
 20
558.1500489157678
 30
0.0
 10
1049.615579608533
 20
558.167496078374
 30
0.0
 10
1049.906302404626
 20
558.1721614707273
 30
0.0
 10
1050.357040713476
 20
556.652720445028
 30
0.0
 10
1050.47838420302
 20
555.7969444204096
 30
0.0
 10
1050.558191624662
 20
555.2340992135035
 30
0.0
 10
1050.179469942299
 20
554.606701907889
 30
0.0
 10
1050.191682941185
 20
554.6488457056877
 30
0.0
 10
1051.137960340941
 20
553.2096294656065
 30
0.0
 10
1052.395201764598
 20
552.1599864258745
 30
0.0
 10
1052.320439810295
 20
551.2149746062406
 30
0.0
 10
1052.199378273338
 20
549.6845004082151
 30
0.0
 10
1050.776259691051
 20
549.0195415186049
 30
0.0
 10
1049.087690168201
 20
549.0616298640389
 30
0.0
 10
1048.578083127178
 20
549.0743358493934
 30
0.0
 10
1047.850467378202
 20
548.4339608418328
 30
0.0
 10
1047.568099282437
 20
547.9084572578722
 30
0.0
 10
1046.828626685212
 20
546.5322441470883
 30
0.0
 10
1046.279739196977
 20
545.0543387915792
 30
0.0
 10
1045.580956809894
 20
543.4469188911501
 30
0.0
 10
1046.409986452419
 20
543.3936550456511
 30
0.0
 10
1047.130924376972
 20
543.5379384039237
 30
0.0
 10
1047.634684611725
 20
543.2726838618458
 30
0.0
 10
1048.506482009767
 20
542.8136306959045
 30
0.0
 10
1049.243624788251
 20
542.100668541872
 30
0.0
 10
1050.037261961341
 20
541.4942118978918
 30
0.0
 10
1049.310299155196
 20
540.6515984164378
 30
0.0
 10
1048.698417523252
 20
539.261548092042
 30
0.0
 10
1047.832318535384
 20
539.080740109012
 30
0.0
 10
1046.049250377164
 20
538.7085179538343
 30
0.0
 10
1044.108377808059
 20
538.8084542069841
 30
0.0
 10
1042.273356175839
 20
539.0383412303292
 30
0.0
 10
1040.348287791198
 20
539.279514658474
 30
0.0
 10
1039.737771403356
 20
541.1276089157563
 30
0.0
 10
1040.633015384924
 20
543.3931042188207
 30
0.0
 10
1040.98081132041
 20
544.2732848295065
 30
0.0
 10
1041.366789571976
 20
545.138508088798
 30
0.0
 10
1041.736370054686
 20
546.0101305510724
 30
0.0
 10
1042.102923256992
 20
546.874666201031
 30
0.0
 10
1042.470693307301
 20
547.7386879924031
 30
0.0
 10
1042.590701231963
 20
548.0210884059025
 30
0.0
  0
SPLINE
  5
9B
330
70
100
AcDbEntity
  8
Capa 1
 62
     7
370
    35
100
AcDbSpline
210
0.0
220
0.0
230
1.0
 70
     9
 71
     3
 72
    26
 73
    22
 74
     0
 42
0.0000000001
 43
0.0000000001
 40
0.0
 40
0.0
 40
0.0
 40
0.0
 40
1.0
 40
1.0
 40
1.0
 40
2.0
 40
2.0
 40
2.0
 40
3.0
 40
3.0
 40
3.0
 40
4.0
 40
4.0
 40
4.0
 40
5.0
 40
5.0
 40
5.0
 40
6.0
 40
6.0
 40
6.0
 40
7.0
 40
7.0
 40
7.0
 40
7.0
 10
962.2666830919753
 20
538.9727891406312
 30
0.0
 10
963.8274390553952
 20
542.4270611653544
 30
0.0
 10
965.4129474880058
 20
545.8705125851522
 30
0.0
 10
966.9412937435655
 20
549.3389693249772
 30
0.0
 10
968.2129444283615
 20
552.2248804808365
 30
0.0
 10
969.4264090030321
 20
555.1364309621033
 30
0.0
 10
970.6487179851556
 20
558.0437005207515
 30
0.0
 10
971.5191798183139
 20
560.1141532185529
 30
0.0
 10
973.0613417506217
 20
560.3994537907697
 30
0.0
 10
974.8126531438151
 20
558.947228425736
 30
0.0
 10
977.1661262245148
 20
556.9956711448567
 30
0.0
 10
977.3358171628734
 20
554.676043242566
 30
0.0
 10
976.6679160038361
 20
551.8721479837299
 30
0.0
 10
975.5471247925285
 20
547.1668558054569
 30
0.0
 10
973.5537942026871
 20
543.0090226510698
 30
0.0
 10
969.4052328798097
 20
540.3771129039117
 30
0.0
 10
967.508864300572
 20
539.1740331687697
 30
0.0
 10
965.0963889312027
 20
538.7787724041296
 30
0.0
 10
962.9179935672265
 20
538.0171378604636
 30
0.0
 10
962.7008900754743
 20
538.3356858226355
 30
0.0
 10
962.4837865837257
 20
538.6542374816343
 30
0.0
 10
962.2666830919753
 20
538.9727891406312
 30
0.0
  0
SPLINE
  5
9C
330
70
100
AcDbEntity
  8
Capa 1
 62
     7
370
    35
100
AcDbSpline
210
0.0
220
0.0
230
1.0
 70
     9
 71
     3
 72
    17
 73
    13
 74
     0
 42
0.0000000001
 43
0.0000000001
 40
0.0
 40
0.0
 40
0.0
 40
0.0
 40
1.0
 40
1.0
 40
1.0
 40
2.0
 40
2.0
 40
2.0
 40
3.0
 40
3.0
 40
3.0
 40
4.0
 40
4.0
 40
4.0
 40
4.0
 10
954.1647013154253
 20
533.7914531916198
 30
0.0
 10
953.6310095876531
 20
530.4163560543932
 30
0.0
 10
950.4013020655735
 20
528.3696351206225
 30
0.0
 10
947.8953965127425
 20
529.5996499181117
 30
0.0
 10
947.2657667074468
 20
529.908697041659
 30
0.0
 10
946.5849105690338
 20
530.8282155604474
 30
0.0
 10
946.5800580166206
 20
531.4720618860883
 30
0.0
 10
946.5757990486002
 20
532.0360531085489
 30
0.0
 10
947.4123226940857
 20
532.9890759465898
 30
0.0
 10
948.0077620383433
 20
533.104886363578
 30
0.0
 10
949.9955277744986
 20
533.491492862372
 30
0.0
 10
952.0418209318066
 20
533.5792850474725
 30
0.0
 10
954.1647013154253
 20
533.7914531916198
 30
0.0
  0
SPLINE
  5
9D
330
70
100
AcDbEntity
  8
Capa 1
 62
     7
370
    35
100
AcDbSpline
210
0.0
220
0.0
230
1.0
 70
     9
 71
     3
 72
    26
 73
    22
 74
     0
 42
0.0000000001
 43
0.0000000001
 40
0.0
 40
0.0
 40
0.0
 40
0.0
 40
1.0
 40
1.0
 40
1.0
 40
2.0
 40
2.0
 40
2.0
 40
3.0
 40
3.0
 40
3.0
 40
4.0
 40
4.0
 40
4.0
 40
5.0
 40
5.0
 40
5.0
 40
6.0
 40
6.0
 40
6.0
 40
7.0
 40
7.0
 40
7.0
 40
7.0
 10
845.4274362030798
 20
549.7363668541026
 30
0.0
 10
846.9912398513677
 20
548.0236318210676
 30
0.0
 10
848.670836975126
 20
546.4001566124067
 30
0.0
 10
850.0881810942386
 20
544.5745168663375
 30
0.0
 10
851.6932258731843
 20
542.5071122002261
 30
0.0
 10
851.6084768614698
 20
539.4631950740381
 30
0.0
 10
850.1594409006228
 20
537.7207486635565
 30
0.0
 10
848.0296767929953
 20
535.1597366141344
 30
0.0
 10
844.7436974704565
 20
534.0104271894309
 30
0.0
 10
842.3373397302393
 20
535.5450751021694
 30
0.0
 10
841.0505192543002
 20
536.3657479309976
 30
0.0
 10
839.5806688857208
 20
538.2856640921082
 30
0.0
 10
839.69772929288
 20
539.5737449099498
 30
0.0
 10
839.8610521836706
 20
541.3708747464908
 30
0.0
 10
841.0506416810811
 20
543.5348404651033
 30
0.0
 10
842.4954446432254
 20
544.6422981411305
 30
0.0
 10
844.3635289261365
 20
546.0742150014969
 30
0.0
 10
845.7275135182191
 20
547.3419115297717
 30
0.0
 10
845.4832220063165
 20
549.7978524369962
 30
0.0
 10
845.4876757442153
 20
549.8028505435435
 30
0.0
 10
845.4274362030798
 20
549.7363668541026
 30
0.0
 10
845.4274362030798
 20
549.7363668541026
 30
0.0
  0
SPLINE
  5
9E
330
70
100
AcDbEntity
  8
Capa 1
 62
     7
370
    35
100
AcDbSpline
210
0.0
220
0.0
230
1.0
 70
     9
 71
     3
 72
    17
 73
    13
 74
     0
 42
0.0000000001
 43
0.0000000001
 40
0.0
 40
0.0
 40
0.0
 40
0.0
 40
1.0
 40
1.0
 40
1.0
 40
2.0
 40
2.0
 40
2.0
 40
3.0
 40
3.0
 40
3.0
 40
4.0
 40
4.0
 40
4.0
 40
4.0
 10
897.6422746859398
 20
549.43596290593
 30
0.0
 10
898.9961442289748
 20
548.5033428415786
 30
0.0
 10
899.8393456988823
 20
547.4313672858373
 30
0.0
 10
898.9904977574363
 20
545.6632907920086
 30
0.0
 10
897.9725079431965
 20
543.5429143295232
 30
0.0
 10
896.2729125902464
 20
542.8493013542345
 30
0.0
 10
894.1264965854447
 20
543.4067676816862
 30
0.0
 10
893.6287241332557
 20
543.5360419330227
 30
0.0
 10
893.1034093652302
 20
544.5040258192819
 30
0.0
 10
893.0296045657613
 20
545.1369073638469
 30
0.0
 10
892.78751859087
 20
547.212707518098
 30
0.0
 10
894.0793808242482
 20
548.3450337316517
 30
0.0
 10
897.6422746859398
 20
549.43596290593
 30
0.0
  0
SPLINE
  5
9F
330
70
100
AcDbEntity
  8
Capa 1
 62
     7
370
    35
100
AcDbSpline
210
0.0
220
0.0
230
1.0
 70
     9
 71
     3
 72
    17
 73
    13
 74
     0
 42
0.0000000001
 43
0.0000000001
 40
0.0
 40
0.0
 40
0.0
 40
0.0
 40
1.0
 40
1.0
 40
1.0
 40
2.0
 40
2.0
 40
2.0
 40
3.0
 40
3.0
 40
3.0
 40
4.0
 40
4.0
 40
4.0
 40
4.0
 10
1058.586286983889
 20
542.8763953800309
 30
0.0
 10
1057.848624819063
 20
543.6960478853343
 30
0.0
 10
1056.691239129925
 20
544.4179304765671
 30
0.0
 10
1056.470692848695
 20
545.3580477007372
 30
0.0
 10
1056.1313406512
 20
546.8046631347919
 30
0.0
 10
1058.683530947076
 20
549.4095601862905
 30
0.0
 10
1060.016899569139
 20
549.0320330881452
 30
0.0
 10
1060.879140258452
 20
548.7878948068595
 30
0.0
 10
1061.943348037495
 20
547.7147732355645
 30
0.0
 10
1062.101048571112
 20
546.8631099280559
 30
0.0
 10
1062.41106285998
 20
545.1886407240578
 30
0.0
 10
1060.582630014525
 20
543.3365871678768
 30
0.0
 10
1058.586286983889
 20
542.8763953800309
 30
0.0
  0
ENDSEC
  0
SECTION
  2
OBJECTS
  0
DICTIONARY
  5
C
330
0
100
AcDbDictionary
281
     1
  3
ACAD_COLOR
350
63
  3
ACAD_DETAILVIEWSTYLE
350
6A
  3
ACAD_GROUP
350
D
  3
ACAD_LAYOUT
350
62
  3
ACAD_MATERIAL
350
10
  3
ACAD_MLEADERSTYLE
350
66
  3
ACAD_MLINESTYLE
350
5F
  3
ACAD_PLOTSETTINGS
350
61
  3
ACAD_PLOTSTYLENAME
350
E
  3
ACAD_SCALELIST
350
42
  3
ACAD_SECTIONVIEWSTYLE
350
68
  3
ACAD_TABLESTYLE
350
64
  3
ACAD_VISUALSTYLE
350
29
  3
ACDB_RECOMPOSE_DATA
350
A8
  3
AcDbVariableDictionary
350
A0
  0
DICTIONARY
  5
63
102
{ACAD_REACTORS
330
C
102
}
330
C
100
AcDbDictionary
281
     1
  0
DICTIONARY
  5
6A
102
{ACAD_REACTORS
330
C
102
}
330
C
100
AcDbDictionary
281
     1
  3
Imperial24
350
6B
  0
DICTIONARY
  5
D
102
{ACAD_REACTORS
330
C
102
}
330
C
100
AcDbDictionary
281
     1
  0
DICTIONARY
  5
62
102
{ACAD_REACTORS
330
C
102
}
330
C
100
AcDbDictionary
281
     1
  3
Layout1
350
6F
  3
Layout2
350
77
  3
Model
350
73
  0
DICTIONARY
  5
10
102
{ACAD_REACTORS
330
C
102
}
330
C
100
AcDbDictionary
281
     1
  3
ByBlock
350
19
  3
ByLayer
350
11
  3
Global
350
21
  0
DICTIONARY
  5
66
102
{ACAD_REACTORS
330
C
102
}
330
C
100
AcDbDictionary
281
     1
  3
Standard
350
67
  0
DICTIONARY
  5
5F
102
{ACAD_REACTORS
330
C
102
}
330
C
100
AcDbDictionary
281
     1
  3
Standard
350
60
  0
DICTIONARY
  5
61
102
{ACAD_REACTORS
330
C
102
}
330
C
100
AcDbDictionary
281
     1
  0
ACDBDICTIONARYWDFLT
  5
E
102
{ACAD_REACTORS
330
C
102
}
330
C
100
AcDbDictionary
281
     1
  3
Normal
350
F
100
AcDbDictionaryWithDefault
340
F
  0
DICTIONARY
  5
42
102
{ACAD_REACTORS
330
C
102
}
330
C
100
AcDbDictionary
281
     1
  3
A0
350
43
  3
A1
350
44
  3
A2
350
45
  3
A3
350
46
  3
A4
350
47
  3
A5
350
48
  3
A6
350
49
  3
A7
350
4A
  3
A8
350
4B
  3
A9
350
4C
  3
B0
350
4D
  3
B1
350
4E
  3
B2
350
4F
  3
B3
350
50
  3
B4
350
51
  3
B5
350
52
  3
B6
350
53
  0
DICTIONARY
  5
68
102
{ACAD_REACTORS
330
C
102
}
330
C
100
AcDbDictionary
281
     1
  3
Imperial24
350
69
  0
DICTIONARY
  5
64
102
{ACAD_REACTORS
330
C
102
}
330
C
100
AcDbDictionary
281
     1
  3
Standard
350
65
  0
DICTIONARY
  5
29
102
{ACAD_REACTORS
330
C
102
}
330
C
100
AcDbDictionary
281
     1
  3
2dWireframe
350
2F
  3
Basic
350
2E
  3
Brighten
350
35
  3
ColorChange
350
39
  3
Conceptual
350
32
  3
Dim
350
34
  3
EdgeColorOff
350
41
  3
Facepattern
350
38
  3
Flat
350
2A
  3
FlatWithEdges
350
2B
  3
Gouraud
350
2C
  3
GouraudWithEdges
350
2D
  3
Hidden
350
31
  3
JitterOff
350
3F
  3
Linepattern
350
37
  3
OverhangOff
350
40
  3
Realistic
350
33
  3
Shaded
350
3E
  3
Shaded with edges
350
3D
  3
Shades of Gray
350
3A
  3
Sketchy
350
3B
  3
Thicken
350
36
  3
Wireframe
350
30
  3
X-Ray
350
3C
  0
XRECORD
  5
A8
102
{ACAD_REACTORS
330
C
102
}
330
C
100
AcDbXrecord
280
     1
 90
        1
330
65
  0
DICTIONARY
  5
A0
102
{ACAD_REACTORS
330
C
102
}
330
C
100
AcDbDictionary
281
     1
  3
CANNOSCALE
350
A5
  3
CMLEADERSTYLE
350
A2
  3
CTABLESTYLE
350
A1
  3
CVIEWDETAILSTYLE
350
A3
  3
CVIEWSECTIONSTYLE
350
A4
  0
ACDBDETAILVIEWSTYLE
  5
6B
102
{ACAD_REACTORS
330
6A
102
}
330
6A
100
AcDbModelDocViewStyle
 70
     0
  3
Imperial24
290
     1
300
Imperial24
 90
        0
100
AcDbDetailViewStyle
 70
     0
 71
     0
 90
        3
 71
     1
340
55
 62
   256
 40
0.24
340
0
 62
   256
 40
0.24
300

 40
0.36
280
     3
 71
     2
340
5D
 90
       25
 62
   256
 71
     3
340
55
 62
   256
 40
0.24
 90
        1
 40
0.75
 90
        1
300
%<\AcVar ViewType \f "%tc1">% %<\AcVar ViewDetailId>%\PSCALE %<\AcVar ViewScale \f "%sn">%
 71
     4
340
5D
 90
       25
 62
   256
340
5D
 90
       25
 62
   256
280
     0
  0
LAYOUT
  5
6F
102
{ACAD_REACTORS
330
62
102
}
330
62
100
AcDbPlotSettings
  1

  2

  4

  6

 40
0.0
 41
0.0
 42
0.0
 43
0.0
 44
0.0
 45
0.0
 46
0.0
 47
0.0
 48
0.0
 49
0.0
140
0.0
141
0.0
142
1.0
143
1.0
 70
   688
 72
     0
 73
     0
 74
     5
  7

 75
    16
147
1.0
 76
     0
 77
     2
 78
   300
148
0.0
149
0.0
100
AcDbLayout
  1
Layout1
 70
     1
 71
     1
 10
0.0
 20
0.0
 11
12.0
 21
9.0
 12
0.0
 22
0.0
 32
0.0
 14
0.0
 24
0.0
 34
0.0
 15
0.0
 25
0.0
 35
0.0
146
0.0
 13
0.0
 23
0.0
 33
0.0
 16
1.0
 26
0.0
 36
0.0
 17
0.0
 27
1.0
 37
0.0
 76
     0
330
6C
  0
LAYOUT
  5
77
102
{ACAD_REACTORS
330
62
102
}
330
62
100
AcDbPlotSettings
  1

  2

  4

  6

 40
0.0
 41
0.0
 42
0.0
 43
0.0
 44
0.0
 45
0.0
 46
0.0
 47
0.0
 48
0.0
 49
0.0
140
0.0
141
0.0
142
1.0
143
1.0
 70
   688
 72
     0
 73
     0
 74
     5
  7

 75
    16
147
1.0
 76
     0
 77
     2
 78
   300
148
0.0
149
0.0
100
AcDbLayout
  1
Layout2
 70
     1
 71
     2
 10
0.0
 20
0.0
 11
12.0
 21
9.0
 12
0.0
 22
0.0
 32
0.0
 14
0.0
 24
0.0
 34
0.0
 15
0.0
 25
0.0
 35
0.0
146
0.0
 13
0.0
 23
0.0
 33
0.0
 16
1.0
 26
0.0
 36
0.0
 17
0.0
 27
1.0
 37
0.0
 76
     0
330
74
  0
LAYOUT
  5
73
102
{ACAD_REACTORS
330
62
102
}
330
62
100
AcDbPlotSettings
  1

  2

  4

  6

 40
0.0
 41
0.0
 42
0.0
 43
0.0
 44
0.0
 45
0.0
 46
0.0
 47
0.0
 48
0.0
 49
0.0
140
0.0
141
0.0
142
1.0
143
1.0
 70
  1712
 72
     0
 73
     0
 74
     0
  7

 75
     0
147
1.0
 76
     0
 77
     2
 78
   300
148
0.0
149
0.0
100
AcDbLayout
  1
Model
 70
     1
 71
     0
 10
0.0
 20
0.0
 11
12.0
 21
9.0
 12
0.0
 22
0.0
 32
0.0
 14
0.0
 24
0.0
 34
0.0
 15
0.0
 25
0.0
 35
0.0
146
0.0
 13
0.0
 23
0.0
 33
0.0
 16
1.0
 26
0.0
 36
0.0
 17
0.0
 27
1.0
 37
0.0
 76
     0
330
70
  0
MATERIAL
  5
19
102
{ACAD_XDICTIONARY
360
1A
102
}
102
{ACAD_REACTORS
330
10
102
}
330
10
100
AcDbMaterial
  1
ByBlock
 72
     0
 43
0.0208333333333333
 43
0.0
 43
0.0
 43
0.0
 43
0.0
 43
0.0208333333333333
 43
0.0
 43
0.0
 43
0.0
 43
0.0
 43
1.0
 43
0.0
 43
0.0
 43
0.0
 43
0.0
 43
1.0
 77
     0
 47
0.0208333333333333
 47
0.0
 47
0.0
 47
0.0
 47
0.0
 47
0.0208333333333333
 47
0.0
 47
0.0
 47
0.0
 47
0.0
 47
1.0
 47
0.0
 47
0.0
 47
0.0
 47
0.0
 47
1.0
171
     0
 49
0.0208333333333333
 49
0.0
 49
0.0
 49
0.0
 49
0.0
 49
0.0208333333333333
 49
0.0
 49
0.0
 49
0.0
 49
0.0
 49
1.0
 49
0.0
 49
0.0
 49
0.0
 49
0.0
 49
1.0
175
     0
142
0.0208333333333333
142
0.0
142
0.0
142
0.0
142
0.0
142
0.0208333333333333
142
0.0
142
0.0
142
0.0
142
0.0
142
1.0
142
0.0
142
0.0
142
0.0
142
0.0
142
1.0
179
     0
144
0.0208333333333333
144
0.0
144
0.0
144
0.0
144
0.0
144
0.0208333333333333
144
0.0
144
0.0
144
0.0
144
0.0
144
1.0
144
0.0
144
0.0
144
0.0
144
0.0
144
1.0
147
0.0208333333333333
147
0.0
147
0.0
147
0.0
147
0.0
147
0.0208333333333333
147
0.0
147
0.0
147
0.0
147
0.0
147
1.0
147
0.0
147
0.0
147
0.0
147
0.0
147
1.0
  0
MATERIAL
  5
11
102
{ACAD_XDICTIONARY
360
12
102
}
102
{ACAD_REACTORS
330
10
102
}
330
10
100
AcDbMaterial
  1
ByLayer
 72
     0
 43
0.0208333333333333
 43
0.0
 43
0.0
 43
0.0
 43
0.0
 43
0.0208333333333333
 43
0.0
 43
0.0
 43
0.0
 43
0.0
 43
1.0
 43
0.0
 43
0.0
 43
0.0
 43
0.0
 43
1.0
 77
     0
 47
0.0208333333333333
 47
0.0
 47
0.0
 47
0.0
 47
0.0
 47
0.0208333333333333
 47
0.0
 47
0.0
 47
0.0
 47
0.0
 47
1.0
 47
0.0
 47
0.0
 47
0.0
 47
0.0
 47
1.0
171
     0
 49
0.0208333333333333
 49
0.0
 49
0.0
 49
0.0
 49
0.0
 49
0.0208333333333333
 49
0.0
 49
0.0
 49
0.0
 49
0.0
 49
1.0
 49
0.0
 49
0.0
 49
0.0
 49
0.0
 49
1.0
175
     0
142
0.0208333333333333
142
0.0
142
0.0
142
0.0
142
0.0
142
0.0208333333333333
142
0.0
142
0.0
142
0.0
142
0.0
142
1.0
142
0.0
142
0.0
142
0.0
142
0.0
142
1.0
179
     0
144
0.0208333333333333
144
0.0
144
0.0
144
0.0
144
0.0
144
0.0208333333333333
144
0.0
144
0.0
144
0.0
144
0.0
144
1.0
144
0.0
144
0.0
144
0.0
144
0.0
144
1.0
147
0.0208333333333333
147
0.0
147
0.0
147
0.0
147
0.0
147
0.0208333333333333
147
0.0
147
0.0
147
0.0
147
0.0
147
1.0
147
0.0
147
0.0
147
0.0
147
0.0
147
1.0
  0
MATERIAL
  5
21
102
{ACAD_XDICTIONARY
360
22
102
}
102
{ACAD_REACTORS
330
10
102
}
330
10
100
AcDbMaterial
  1
Global
 72
     0
 43
0.0208333333333333
 43
0.0
 43
0.0
 43
0.0
 43
0.0
 43
0.0208333333333333
 43
0.0
 43
0.0
 43
0.0
 43
0.0
 43
1.0
 43
0.0
 43
0.0
 43
0.0
 43
0.0
 43
1.0
 77
     0
 47
0.0208333333333333
 47
0.0
 47
0.0
 47
0.0
 47
0.0
 47
0.0208333333333333
 47
0.0
 47
0.0
 47
0.0
 47
0.0
 47
1.0
 47
0.0
 47
0.0
 47
0.0
 47
0.0
 47
1.0
171
     0
 49
0.0208333333333333
 49
0.0
 49
0.0
 49
0.0
 49
0.0
 49
0.0208333333333333
 49
0.0
 49
0.0
 49
0.0
 49
0.0
 49
1.0
 49
0.0
 49
0.0
 49
0.0
 49
0.0
 49
1.0
175
     0
142
0.0208333333333333
142
0.0
142
0.0
142
0.0
142
0.0
142
0.0208333333333333
142
0.0
142
0.0
142
0.0
142
0.0
142
1.0
142
0.0
142
0.0
142
0.0
142
0.0
142
1.0
179
     0
144
0.0208333333333333
144
0.0
144
0.0
144
0.0
144
0.0
144
0.0208333333333333
144
0.0
144
0.0
144
0.0
144
0.0
144
1.0
144
0.0
144
0.0
144
0.0
144
0.0
144
1.0
147
0.0208333333333333
147
0.0
147
0.0
147
0.0
147
0.0
147
0.0208333333333333
147
0.0
147
0.0
147
0.0
147
0.0
147
1.0
147
0.0
147
0.0
147
0.0
147
0.0
147
1.0
  0
MLEADERSTYLE
  5
67
102
{ACAD_REACTORS
330
66
102
}
330
66
100
AcDbMLeaderStyle
179
     2
170
     2
171
     1
172
     0
 90
        2
 40
0.0
 41
0.0
173
     1
 91
-1056964608
340
5B
 92
       -2
290
     1
 42
0.09
291
     1
 43
0.36
  3
Standard
 44
0.18
300

342
55
174
     1
178
     6
175
     1
176
     0
 93
-1056964608
 45
0.18
292
     0
297
     0
 46
0.18
 94
-1056964608
 47
1.0
 49
1.0
140
1.0
293
     1
141
0.0
294
     1
177
     0
142
1.0
295
     1
296
     0
143
0.125
271
     0
272
     9
273
     9
298
     1
  0
MLINESTYLE
  5
60
102
{ACAD_REACTORS
330
5F
102
}
330
5F
100
AcDbMlineStyle
  2
STANDARD
 70
     0
  3

 62
   256
 51
90.0
 52
90.0
 71
     2
 49
0.5
 62
   256
  6
BYLAYER
 49
-0.5
 62
   256
  6
BYLAYER
  0
ACDBPLACEHOLDER
  5
F
102
{ACAD_REACTORS
330
E
102
}
330
E
  0
SCALE
  5
43
102
{ACAD_REACTORS
330
42
102
}
330
42
100
AcDbScale
 70
     0
300
1:1
140
1.0
141
1.0
290
     1
  0
SCALE
  5
44
102
{ACAD_REACTORS
330
42
102
}
330
42
100
AcDbScale
 70
     0
300
1/128" = 1'-0"
140
0.0078125
141
12.0
290
     0
  0
SCALE
  5
45
102
{ACAD_REACTORS
330
42
102
}
330
42
100
AcDbScale
 70
     0
300
1/64" = 1'-0"
140
0.015625
141
12.0
290
     0
  0
SCALE
  5
46
102
{ACAD_REACTORS
330
42
102
}
330
42
100
AcDbScale
 70
     0
300
1/32" = 1'-0"
140
0.03125
141
12.0
290
     0
  0
SCALE
  5
47
102
{ACAD_REACTORS
330
42
102
}
330
42
100
AcDbScale
 70
     0
300
1/16" = 1'-0"
140
0.0625
141
12.0
290
     0
  0
SCALE
  5
48
102
{ACAD_REACTORS
330
42
102
}
330
42
100
AcDbScale
 70
     0
300
3/32" = 1'-0"
140
0.09375
141
12.0
290
     0
  0
SCALE
  5
49
102
{ACAD_REACTORS
330
42
102
}
330
42
100
AcDbScale
 70
     0
300
1/8" = 1'-0"
140
0.125
141
12.0
290
     0
  0
SCALE
  5
4A
102
{ACAD_REACTORS
330
42
102
}
330
42
100
AcDbScale
 70
     0
300
3/16" = 1'-0"
140
0.1875
141
12.0
290
     0
  0
SCALE
  5
4B
102
{ACAD_REACTORS
330
42
102
}
330
42
100
AcDbScale
 70
     0
300
1/4" = 1'-0"
140
0.25
141
12.0
290
     0
  0
SCALE
  5
4C
102
{ACAD_REACTORS
330
42
102
}
330
42
100
AcDbScale
 70
     0
300
3/8" = 1'-0"
140
0.375
141
12.0
290
     0
  0
SCALE
  5
4D
102
{ACAD_REACTORS
330
42
102
}
330
42
100
AcDbScale
 70
     0
300
1/2" = 1'-0"
140
0.5
141
12.0
290
     0
  0
SCALE
  5
4E
102
{ACAD_REACTORS
330
42
102
}
330
42
100
AcDbScale
 70
     0
300
3/4" = 1'-0"
140
0.75
141
12.0
290
     0
  0
SCALE
  5
4F
102
{ACAD_REACTORS
330
42
102
}
330
42
100
AcDbScale
 70
     0
300
1" = 1'-0"
140
1.0
141
12.0
290
     0
  0
SCALE
  5
50
102
{ACAD_REACTORS
330
42
102
}
330
42
100
AcDbScale
 70
     0
300
1-1/2" = 1'-0"
140
1.5
141
12.0
290
     0
  0
SCALE
  5
51
102
{ACAD_REACTORS
330
42
102
}
330
42
100
AcDbScale
 70
     0
300
3" = 1'-0"
140
3.0
141
12.0
290
     0
  0
SCALE
  5
52
102
{ACAD_REACTORS
330
42
102
}
330
42
100
AcDbScale
 70
     0
300
6" = 1'-0"
140
6.0
141
12.0
290
     0
  0
SCALE
  5
53
102
{ACAD_REACTORS
330
42
102
}
330
42
100
AcDbScale
 70
     0
300
1'-0" = 1'-0"
140
12.0
141
12.0
290
     0
  0
ACDBSECTIONVIEWSTYLE
  5
69
102
{ACAD_REACTORS
330
68
102
}
330
68
100
AcDbModelDocViewStyle
 70
     0
  3
Imperial24
290
     1
300
Imperial24
 90
        0
100
AcDbSectionViewStyle
 70
     0
 71
     0
 90
       78
 71
     1
340
55
 62
   256
 40
0.24
340
0
340
0
 62
   256
 40
0.24
300
I, O, Q, S, X, Z
 40
0.48
 90
        3
 40
0.18
 90
        1
 71
     2
340
5D
 90
       25
 62
   256
340
5D
 90
       50
 62
   256
 40
0.24
 40
0.0
 40
0.24
 71
     3
340
55
 62
   256
 40
0.24
 90
        1
 40
0.75
 90
        1
300
%<\AcVar ViewType \f "%tc1">% %<\AcVar ViewSectionStartId>%-%<\AcVar ViewSectionEndId>%\PSCALE %<\AcVar ViewScale \f "%sn">%
 71
     4
 62
   256
 62
   257
300
ANSI31
 40
1.0
 90
        0
290
     0
290
     0
 90
        6
 40
0.0
 40
1.570796326794896
 40
0.2617993877991494
 40
1.308996938995747
 40
-0.2617993877991494
 40
1.832595714594046
  0
TABLESTYLE
  5
65
102
{ACAD_XDICTIONARY
360
A6
102
}
102
{ACAD_REACTORS
330
64
102
}
330
64
100
AcDbTableStyle
280
     0
  3
Standard
 70
     0
 71
     0
 40
0.06
 41
0.06
280
     0
281
     0
  7
Standard
140
0.18
170
     2
 62
     0
 63
     7
283
     0
 90
      512
 91
        0
  1

274
    -2
284
     1
 64
     0
275
    -2
285
     1
 65
     0
276
    -2
286
     1
 66
     0
277
    -2
287
     1
 67
     0
278
    -2
288
     1
 68
     0
279
    -2
289
     1
 69
     0
  7
Standard
140
0.25
170
     5
 62
     0
 63
     7
283
     0
 90
      512
 91
        0
  1

274
    -2
284
     1
 64
     0
275
    -2
285
     1
 65
     0
276
    -2
286
     1
 66
     0
277
    -2
287
     1
 67
     0
278
    -2
288
     1
 68
     0
279
    -2
289
     1
 69
     0
  7
Standard
140
0.18
170
     5
 62
     0
 63
     7
283
     0
 90
      512
 91
        0
  1

274
    -2
284
     1
 64
     0
275
    -2
285
     1
 65
     0
276
    -2
286
     1
 66
     0
277
    -2
287
     1
 67
     0
278
    -2
288
     1
 68
     0
279
    -2
289
     1
 69
     0
  0
VISUALSTYLE
  5
2F
102
{ACAD_REACTORS
330
29
102
}
330
29
100
AcDbVisualStyle
  2
2dWireframe
 70
     4
177
     3
291
     0
 70
    58
 90
        0
176
     1
 90
        2
176
     1
 90
        0
176
     1
 90
        0
176
     1
 40
0.6
176
     1
 40
30.0
176
     1
 62
     7
420
 16777215
176
     1
 90
        1
176
     1
 90
        4
176
     1
 62
     7
176
     1
 62
   257
176
     1
 90
        1
176
     1
 90
        1
176
     1
 40
1.0
176
     1
 90
        0
176
     1
 62
   257
176
     1
 40
1.0
176
     1
 90
        1
176
     1
 90
        6
176
     1
 90
        2
176
     1
 62
     7
176
     1
 90
        5
176
     1
 90
        0
176
     1
 90
        0
176
     1
290
     0
176
     1
 90
        1
176
     1
 40
0.0
176
     1
 90
        0
176
     1
290
     1
176
     1
290
     1
176
     1
290
     0
176
     1
290
     0
176
     1
290
     0
176
     1
290
     0
176
     1
290
     0
176
     1
290
     0
176
     1
290
     0
176
     1
 90
       50
176
     1
 40
0.0
176
     1
 40
1.0
176
     1
 90
        0
176
     1
 62
    18
420
        0
176
     1
 90
       50
176
     1
 90
        3
176
     1
 62
     5
420
      255
176
     1
290
     0
176
     1
 90
       50
176
     1
 90
       50
176
     1
 90
       50
176
     1
290
     0
176
     1
 90
       50
176
     1
 62
   256
176
     0
 40
1.0
176
     0
 90
        2
176
     1
  1
strokes_ogs.tif
176
     1
290
     0
176
     1
 40
1.0
176
     1
 40
1.0
176
     1
  0
VISUALSTYLE
  5
2E
102
{ACAD_REACTORS
330
29
102
}
330
29
100
AcDbVisualStyle
  2
Basic
 70
     7
177
     3
291
     1
 70
    58
 90
        1
176
     1
 90
        0
176
     1
 90
        1
176
     1
 90
        0
176
     1
 40
0.6
176
     1
 40
30.0
176
     1
 62
     7
420
 16777215
176
     1
 90
        0
176
     1
 90
        4
176
     1
 62
     7
176
     1
 62
   257
176
     1
 90
        1
176
     1
 90
        1
176
     1
 40
1.0
176
     1
 90
        8
176
     1
 62
     7
176
     1
 40
1.0
176
     1
 90
        1
176
     1
 90
        6
176
     1
 90
        2
176
     1
 62
     7
176
     1
 90
        5
176
     1
 90
        0
176
     1
 90
        0
176
     1
290
     0
176
     1
 90
        1
176
     1
 40
0.0
176
     1
 90
        0
176
     1
290
     0
176
     1
290
     1
176
     1
290
     1
176
     1
290
     0
176
     1
290
     0
176
     1
290
     0
176
     1
290
     0
176
     1
290
     0
176
     1
290
     0
176
     1
 90
       50
176
     1
 40
0.0
176
     1
 40
1.0
176
     1
 90
        0
176
     1
 62
    18
420
        0
176
     1
 90
       50
176
     1
 90
        3
176
     1
 62
     5
420
      255
176
     1
290
     0
176
     1
 90
       50
176
     1
 90
       50
176
     1
 90
       50
176
     1
290
     0
176
     1
 90
       50
176
     1
 62
   256
176
     0
 40
1.0
176
     0
 90
        2
176
     1
  1
strokes_ogs.tif
176
     1
290
     0
176
     1
 40
1.0
176
     1
 40
1.0
176
     1
  0
VISUALSTYLE
  5
35
102
{ACAD_REACTORS
330
29
102
}
330
29
100
AcDbVisualStyle
  2
Brighten
 70
    12
177
     3
291
     1
 70
    58
 90
        2
176
     1
 90
        2
176
     1
 90
        0
176
     1
 90
        0
176
     1
 40
0.6
176
     1
 40
30.0
176
     1
 62
     7
420
 16777215
176
     1
 90
        1
176
     1
 90
        4
176
     1
 62
     7
176
     1
 62
   257
176
     1
 90
        1
176
     1
 90
        1
176
     1
 40
1.0
176
     1
 90
        8
176
     1
 62
     7
176
     1
 40
1.0
176
     1
 90
        1
176
     1
 90
        6
176
     1
 90
        2
176
     1
 62
     7
176
     1
 90
        5
176
     1
 90
        0
176
     1
 90
        0
176
     1
290
     0
176
     1
 90
        1
176
     1
 40
50.0
176
     1
 90
        0
176
     1
290
     0
176
     1
290
     1
176
     1
290
     1
176
     1
290
     0
176
     1
290
     0
176
     1
290
     0
176
     1
290
     0
176
     1
290
     0
176
     1
290
     0
176
     1
 90
       50
176
     1
 40
0.0
176
     1
 40
1.0
176
     1
 90
        0
176
     1
 62
    18
420
        0
176
     1
 90
       50
176
     1
 90
        3
176
     1
 62
     5
420
      255
176
     1
290
     0
176
     1
 90
       50
176
     1
 90
       50
176
     1
 90
       50
176
     1
290
     0
176
     1
 90
       50
176
     1
 62
   256
176
     0
 40
1.0
176
     0
 90
        2
176
     1
  1
strokes_ogs.tif
176
     1
290
     0
176
     1
 40
1.0
176
     1
 40
1.0
176
     1
  0
VISUALSTYLE
  5
39
102
{ACAD_REACTORS
330
29
102
}
330
29
100
AcDbVisualStyle
  2
ColorChange
 70
    16
177
     3
291
     1
 70
    58
 90
        2
176
     1
 90
        2
176
     1
 90
        3
176
     1
 90
        0
176
     1
 40
0.6
176
     1
 40
30.0
176
     1
 62
     8
420
  8421504
176
     1
 90
        1
176
     1
 90
        4
176
     1
 62
     7
176
     1
 62
   257
176
     1
 90
        1
176
     1
 90
        1
176
     1
 40
1.0
176
     1
 90
        8
176
     1
 62
     8
420
  8421504
176
     1
 40
1.0
176
     1
 90
        1
176
     1
 90
        6
176
     1
 90
        2
176
     1
 62
     7
176
     1
 90
        5
176
     1
 90
        0
176
     1
 90
        0
176
     1
290
     0
176
     1
 90
        1
176
     1
 40
0.0
176
     1
 90
        0
176
     1
290
     0
176
     1
290
     1
176
     1
290
     1
176
     1
290
     0
176
     1
290
     0
176
     1
290
     0
176
     1
290
     0
176
     1
290
     0
176
     1
290
     0
176
     1
 90
       50
176
     1
 40
0.0
176
     1
 40
1.0
176
     1
 90
        0
176
     1
 62
    18
420
        0
176
     1
 90
       50
176
     1
 90
        3
176
     1
 62
     5
420
      255
176
     1
290
     0
176
     1
 90
       50
176
     1
 90
       50
176
     1
 90
       50
176
     1
290
     0
176
     1
 90
       50
176
     1
 62
   256
176
     0
 40
1.0
176
     0
 90
        2
176
     1
  1
strokes_ogs.tif
176
     1
290
     0
176
     1
 40
1.0
176
     1
 40
1.0
176
     1
  0
VISUALSTYLE
  5
32
102
{ACAD_REACTORS
330
29
102
}
330
29
100
AcDbVisualStyle
  2
Conceptual
 70
     9
177
     3
291
     0
 70
    58
 90
        3
176
     1
 90
        2
176
     1
 90
        0
176
     1
 90
        0
176
     1
 40
0.6
176
     1
 40
30.0
176
     1
 62
     7
420
 16777215
176
     1
 90
        2
176
     1
 90
        2
176
     1
 62
     7
176
     1
 62
   257
176
     1
 90
        1
176
     1
 90
        1
176
     1
 40
179.0
176
     1
 90
        8
176
     1
 62
     7
176
     1
 40
1.0
176
     1
 90
        1
176
     1
 90
        6
176
     1
 90
        2
176
     1
 62
     7
176
     1
 90
        3
176
     1
 90
        0
176
     1
 90
        0
176
     1
290
     0
176
     1
 90
        1
176
     1
 40
0.0
176
     1
 90
        0
176
     1
290
     0
176
     1
290
     1
176
     1
290
     1
176
     1
290
     0
176
     1
290
     0
176
     1
290
     0
176
     1
290
     0
176
     1
290
     0
176
     1
290
     0
176
     1
 90
       50
176
     1
 40
0.0
176
     1
 40
1.0
176
     1
 90
        0
176
     1
 62
    18
420
        0
176
     1
 90
       50
176
     1
 90
        3
176
     1
 62
     5
420
      255
176
     1
290
     0
176
     1
 90
       50
176
     1
 90
       50
176
     1
 90
       50
176
     1
290
     0
176
     1
 90
       50
176
     1
 62
   256
176
     0
 40
1.0
176
     0
 90
        2
176
     1
  1
strokes_ogs.tif
176
     1
290
     0
176
     1
 40
1.0
176
     1
 40
1.0
176
     1
  0
VISUALSTYLE
  5
34
102
{ACAD_REACTORS
330
29
102
}
330
29
100
AcDbVisualStyle
  2
Dim
 70
    11
177
     3
291
     1
 70
    58
 90
        2
176
     1
 90
        2
176
     1
 90
        0
176
     1
 90
        0
176
     1
 40
0.6
176
     1
 40
30.0
176
     1
 62
     7
420
 16777215
176
     1
 90
        1
176
     1
 90
        4
176
     1
 62
     7
176
     1
 62
   257
176
     1
 90
        1
176
     1
 90
        1
176
     1
 40
1.0
176
     1
 90
        8
176
     1
 62
     7
176
     1
 40
1.0
176
     1
 90
        1
176
     1
 90
        6
176
     1
 90
        2
176
     1
 62
     7
176
     1
 90
        5
176
     1
 90
        0
176
     1
 90
        0
176
     1
290
     0
176
     1
 90
        1
176
     1
 40
-50.0
176
     1
 90
        0
176
     1
290
     0
176
     1
290
     1
176
     1
290
     1
176
     1
290
     0
176
     1
290
     0
176
     1
290
     0
176
     1
290
     0
176
     1
290
     0
176
     1
290
     0
176
     1
 90
       50
176
     1
 40
0.0
176
     1
 40
1.0
176
     1
 90
        0
176
     1
 62
    18
420
        0
176
     1
 90
       50
176
     1
 90
        3
176
     1
 62
     5
420
      255
176
     1
290
     0
176
     1
 90
       50
176
     1
 90
       50
176
     1
 90
       50
176
     1
290
     0
176
     1
 90
       50
176
     1
 62
   256
176
     0
 40
1.0
176
     0
 90
        2
176
     1
  1
strokes_ogs.tif
176
     1
290
     0
176
     1
 40
1.0
176
     1
 40
1.0
176
     1
  0
VISUALSTYLE
  5
41
102
{ACAD_REACTORS
330
29
102
}
330
29
100
AcDbVisualStyle
  2
EdgeColorOff
 70
    22
177
     3
291
     1
 70
    58
 90
        2
176
     0
 90
        2
176
     0
 90
        0
176
     0
 90
        0
176
     0
 40
0.6
176
     0
 40
30.0
176
     0
 62
     7
420
 16777215
176
     0
 90
        1
176
     0
 90
        4
176
     0
 62
     7
176
     0
 62
   257
176
     0
 90
        1
176
     0
 90
        1
176
     0
 40
1.0
176
     0
 90
        8
176
     2
 62
     7
176
     0
 40
1.0
176
     0
 90
        1
176
     0
 90
        6
176
     0
 90
        2
176
     0
 62
     7
176
     0
 90
        5
176
     0
 90
        0
176
     0
 90
        0
176
     0
290
     0
176
     0
 90
        1
176
     0
 40
0.0
176
     0
 90
        0
176
     0
290
     0
176
     0
290
     1
176
     0
290
     1
176
     0
290
     0
176
     0
290
     0
176
     0
290
     0
176
     0
290
     0
176
     0
290
     0
176
     0
290
     0
176
     0
 90
       50
176
     0
 40
0.0
176
     0
 40
1.0
176
     0
 90
        0
176
     0
 62
    18
420
        0
176
     0
 90
       50
176
     0
 90
        3
176
     0
 62
     5
420
      255
176
     0
290
     0
176
     0
 90
       50
176
     0
 90
       50
176
     0
 90
       50
176
     0
290
     0
176
     0
 90
       50
176
     0
 62
   256
176
     0
 40
1.0
176
     0
 90
        2
176
     0
  1
strokes_ogs.tif
176
     0
290
     0
176
     0
 40
1.0
176
     0
 40
1.0
176
     0
  0
VISUALSTYLE
  5
38
102
{ACAD_REACTORS
330
29
102
}
330
29
100
AcDbVisualStyle
  2
Facepattern
 70
    15
177
     3
291
     1
 70
    58
 90
        2
176
     1
 90
        2
176
     1
 90
        0
176
     1
 90
        0
176
     1
 40
0.6
176
     1
 40
30.0
176
     1
 62
     7
420
 16777215
176
     1
 90
        1
176
     1
 90
        4
176
     1
 62
     7
176
     1
 62
   257
176
     1
 90
        1
176
     1
 90
        1
176
     1
 40
1.0
176
     1
 90
        8
176
     1
 62
     7
176
     1
 40
1.0
176
     1
 90
        1
176
     1
 90
        6
176
     1
 90
        2
176
     1
 62
     7
176
     1
 90
        5
176
     1
 90
        0
176
     1
 90
        0
176
     1
290
     0
176
     1
 90
        1
176
     1
 40
0.0
176
     1
 90
        0
176
     1
290
     0
176
     1
290
     1
176
     1
290
     1
176
     1
290
     0
176
     1
290
     0
176
     1
290
     0
176
     1
290
     0
176
     1
290
     0
176
     1
290
     0
176
     1
 90
       50
176
     1
 40
0.0
176
     1
 40
1.0
176
     1
 90
        0
176
     1
 62
    18
420
        0
176
     1
 90
       50
176
     1
 90
        3
176
     1
 62
     5
420
      255
176
     1
290
     0
176
     1
 90
       50
176
     1
 90
       50
176
     1
 90
       50
176
     1
290
     0
176
     1
 90
       50
176
     1
 62
   256
176
     0
 40
1.0
176
     0
 90
        2
176
     1
  1
strokes_ogs.tif
176
     1
290
     0
176
     1
 40
1.0
176
     1
 40
1.0
176
     1
  0
VISUALSTYLE
  5
2A
102
{ACAD_REACTORS
330
29
102
}
330
29
100
AcDbVisualStyle
  2
Flat
 70
     0
177
     3
291
     1
 70
    58
 90
        2
176
     1
 90
        1
176
     1
 90
        1
176
     1
 90
        2
176
     1
 40
0.6
176
     1
 40
30.0
176
     1
 62
     7
420
 16777215
176
     1
 90
        0
176
     1
 90
        0
176
     1
 62
     7
176
     1
 62
   257
176
     1
 90
        1
176
     1
 90
        1
176
     1
 40
1.0
176
     1
 90
        8
176
     1
 62
     7
176
     1
 40
1.0
176
     1
 90
        1
176
     1
 90
        6
176
     1
 90
        2
176
     1
 62
     7
176
     1
 90
        5
176
     1
 90
        0
176
     1
 90
        0
176
     1
290
     0
176
     1
 90
       13
176
     1
 40
0.0
176
     1
 90
        0
176
     1
290
     0
176
     1
290
     1
176
     1
290
     1
176
     1
290
     0
176
     1
290
     0
176
     1
290
     0
176
     1
290
     0
176
     1
290
     0
176
     1
290
     0
176
     1
 90
       50
176
     1
 40
0.0
176
     1
 40
1.0
176
     1
 90
        0
176
     1
 62
    18
420
        0
176
     1
 90
       50
176
     1
 90
        3
176
     1
 62
     5
420
      255
176
     1
290
     0
176
     1
 90
       50
176
     1
 90
       50
176
     1
 90
       50
176
     1
290
     0
176
     1
 90
       50
176
     1
 62
   256
176
     0
 40
1.0
176
     0
 90
        2
176
     1
  1
strokes_ogs.tif
176
     1
290
     0
176
     1
 40
1.0
176
     1
 40
1.0
176
     1
  0
VISUALSTYLE
  5
2B
102
{ACAD_REACTORS
330
29
102
}
330
29
100
AcDbVisualStyle
  2
FlatWithEdges
 70
     1
177
     3
291
     1
 70
    58
 90
        2
176
     1
 90
        1
176
     1
 90
        1
176
     1
 90
        2
176
     1
 40
0.6
176
     1
 40
30.0
176
     1
 62
     7
420
 16777215
176
     1
 90
        1
176
     1
 90
        0
176
     1
 62
     7
176
     1
 62
   257
176
     1
 90
        1
176
     1
 90
        1
176
     1
 40
1.0
176
     1
 90
        0
176
     1
 62
   257
176
     1
 40
1.0
176
     1
 90
        1
176
     1
 90
        6
176
     1
 90
        2
176
     1
 62
     7
176
     1
 90
        5
176
     1
 90
        0
176
     1
 90
        0
176
     1
290
     0
176
     1
 90
       13
176
     1
 40
0.0
176
     1
 90
        0
176
     1
290
     0
176
     1
290
     1
176
     1
290
     1
176
     1
290
     0
176
     1
290
     0
176
     1
290
     0
176
     1
290
     0
176
     1
290
     0
176
     1
290
     0
176
     1
 90
       50
176
     1
 40
0.0
176
     1
 40
1.0
176
     1
 90
        0
176
     1
 62
    18
420
        0
176
     1
 90
       50
176
     1
 90
        3
176
     1
 62
     5
420
      255
176
     1
290
     0
176
     1
 90
       50
176
     1
 90
       50
176
     1
 90
       50
176
     1
290
     0
176
     1
 90
       50
176
     1
 62
   256
176
     0
 40
1.0
176
     0
 90
        2
176
     1
  1
strokes_ogs.tif
176
     1
290
     0
176
     1
 40
1.0
176
     1
 40
1.0
176
     1
  0
VISUALSTYLE
  5
2C
102
{ACAD_REACTORS
330
29
102
}
330
29
100
AcDbVisualStyle
  2
Gouraud
 70
     2
177
     3
291
     1
 70
    58
 90
        2
176
     1
 90
        2
176
     1
 90
        1
176
     1
 90
        2
176
     1
 40
0.6
176
     1
 40
30.0
176
     1
 62
     7
420
 16777215
176
     1
 90
        0
176
     1
 90
        0
176
     1
 62
     7
176
     1
 62
   257
176
     1
 90
        1
176
     1
 90
        1
176
     1
 40
1.0
176
     1
 90
        0
176
     1
 62
     7
176
     1
 40
1.0
176
     1
 90
        1
176
     1
 90
        6
176
     1
 90
        2
176
     1
 62
     7
176
     1
 90
        5
176
     1
 90
        0
176
     1
 90
        0
176
     1
290
     0
176
     1
 90
       13
176
     1
 40
0.0
176
     1
 90
        0
176
     1
290
     0
176
     1
290
     1
176
     1
290
     1
176
     1
290
     0
176
     1
290
     0
176
     1
290
     0
176
     1
290
     0
176
     1
290
     0
176
     1
290
     0
176
     1
 90
       50
176
     1
 40
0.0
176
     1
 40
1.0
176
     1
 90
        0
176
     1
 62
    18
420
        0
176
     1
 90
       50
176
     1
 90
        3
176
     1
 62
     5
420
      255
176
     1
290
     0
176
     1
 90
       50
176
     1
 90
       50
176
     1
 90
       50
176
     1
290
     0
176
     1
 90
       50
176
     1
 62
   256
176
     0
 40
1.0
176
     0
 90
        2
176
     1
  1
strokes_ogs.tif
176
     1
290
     0
176
     1
 40
1.0
176
     1
 40
1.0
176
     1
  0
VISUALSTYLE
  5
2D
102
{ACAD_REACTORS
330
29
102
}
330
29
100
AcDbVisualStyle
  2
GouraudWithEdges
 70
     3
177
     3
291
     1
 70
    58
 90
        2
176
     1
 90
        2
176
     1
 90
        1
176
     1
 90
        2
176
     1
 40
0.6
176
     1
 40
30.0
176
     1
 62
     7
420
 16777215
176
     1
 90
        1
176
     1
 90
        0
176
     1
 62
     7
176
     1
 62
   257
176
     1
 90
        1
176
     1
 90
        1
176
     1
 40
1.0
176
     1
 90
        0
176
     1
 62
   257
176
     1
 40
1.0
176
     1
 90
        1
176
     1
 90
        6
176
     1
 90
        2
176
     1
 62
     7
176
     1
 90
        5
176
     1
 90
        0
176
     1
 90
        0
176
     1
290
     0
176
     1
 90
       13
176
     1
 40
0.0
176
     1
 90
        0
176
     1
290
     0
176
     1
290
     1
176
     1
290
     1
176
     1
290
     0
176
     1
290
     0
176
     1
290
     0
176
     1
290
     0
176
     1
290
     0
176
     1
290
     0
176
     1
 90
       50
176
     1
 40
0.0
176
     1
 40
1.0
176
     1
 90
        0
176
     1
 62
    18
420
        0
176
     1
 90
       50
176
     1
 90
        3
176
     1
 62
     5
420
      255
176
     1
290
     0
176
     1
 90
       50
176
     1
 90
       50
176
     1
 90
       50
176
     1
290
     0
176
     1
 90
       50
176
     1
 62
   256
176
     0
 40
1.0
176
     0
 90
        2
176
     1
  1
strokes_ogs.tif
176
     1
290
     0
176
     1
 40
1.0
176
     1
 40
1.0
176
     1
  0
VISUALSTYLE
  5
31
102
{ACAD_REACTORS
330
29
102
}
330
29
100
AcDbVisualStyle
  2
Hidden
 70
     6
177
     3
291
     0
 70
    58
 90
        1
176
     1
 90
        2
176
     1
 90
        2
176
     1
 90
        0
176
     1
 40
0.6
176
     1
 40
30.0
176
     1
 62
     7
420
 16777215
176
     1
 90
        2
176
     1
 90
        2
176
     1
 62
     7
176
     1
 62
   257
176
     1
 90
        2
176
     1
 90
        1
176
     1
 40
40.0
176
     1
 90
        0
176
     1
 62
   257
176
     1
 40
1.0
176
     1
 90
        1
176
     1
 90
        6
176
     1
 90
        2
176
     1
 62
     7
176
     1
 90
        3
176
     1
 90
        0
176
     1
 90
        0
176
     1
290
     0
176
     1
 90
        1
176
     1
 40
0.0
176
     1
 90
        0
176
     1
290
     0
176
     1
290
     1
176
     1
290
     1
176
     1
290
     0
176
     1
290
     0
176
     1
290
     0
176
     1
290
     0
176
     1
290
     0
176
     1
290
     0
176
     1
 90
       50
176
     1
 40
0.0
176
     1
 40
1.0
176
     1
 90
        0
176
     1
 62
    18
420
        0
176
     1
 90
       50
176
     1
 90
        3
176
     1
 62
     5
420
      255
176
     1
290
     0
176
     1
 90
       50
176
     1
 90
       50
176
     1
 90
       50
176
     1
290
     0
176
     1
 90
       50
176
     1
 62
   256
176
     0
 40
1.0
176
     0
 90
        2
176
     1
  1
strokes_ogs.tif
176
     1
290
     0
176
     1
 40
1.0
176
     1
 40
1.0
176
     1
  0
VISUALSTYLE
  5
3F
102
{ACAD_REACTORS
330
29
102
}
330
29
100
AcDbVisualStyle
  2
JitterOff
 70
    20
177
     3
291
     1
 70
    58
 90
        2
176
     0
 90
        2
176
     0
 90
        0
176
     0
 90
        0
176
     0
 40
0.6
176
     0
 40
30.0
176
     0
 62
     7
420
 16777215
176
     0
 90
        1
176
     0
 90
        4
176
     0
 62
     7
176
     0
 62
   257
176
     0
 90
        1
176
     0
 90
        1
176
     0
 40
1.0
176
     0
 90
       10
176
     2
 62
     7
176
     0
 40
1.0
176
     0
 90
        1
176
     0
 90
        6
176
     0
 90
        2
176
     0
 62
     7
176
     0
 90
        5
176
     0
 90
        0
176
     0
 90
        0
176
     0
290
     0
176
     0
 90
        1
176
     0
 40
0.0
176
     0
 90
        0
176
     0
290
     0
176
     0
290
     1
176
     0
290
     1
176
     0
290
     0
176
     0
290
     0
176
     0
290
     0
176
     0
290
     0
176
     0
290
     0
176
     0
290
     0
176
     0
 90
       50
176
     0
 40
0.0
176
     0
 40
1.0
176
     0
 90
        0
176
     0
 62
    18
420
        0
176
     0
 90
       50
176
     0
 90
        3
176
     0
 62
     5
420
      255
176
     0
290
     0
176
     0
 90
       50
176
     0
 90
       50
176
     0
 90
       50
176
     0
290
     0
176
     0
 90
       50
176
     0
 62
   256
176
     0
 40
1.0
176
     0
 90
        2
176
     0
  1
strokes_ogs.tif
176
     0
290
     0
176
     0
 40
1.0
176
     0
 40
1.0
176
     0
  0
VISUALSTYLE
  5
37
102
{ACAD_REACTORS
330
29
102
}
330
29
100
AcDbVisualStyle
  2
Linepattern
 70
    14
177
     3
291
     1
 70
    58
 90
        2
176
     1
 90
        2
176
     1
 90
        0
176
     1
 90
        0
176
     1
 40
0.6
176
     1
 40
30.0
176
     1
 62
     7
420
 16777215
176
     1
 90
        1
176
     1
 90
        4
176
     1
 62
     7
176
     1
 62
   257
176
     1
 90
        7
176
     1
 90
        7
176
     1
 40
1.0
176
     1
 90
        8
176
     1
 62
     7
176
     1
 40
1.0
176
     1
 90
        1
176
     1
 90
        6
176
     1
 90
        2
176
     1
 62
     7
176
     1
 90
        5
176
     1
 90
        0
176
     1
 90
        0
176
     1
290
     0
176
     1
 90
        1
176
     1
 40
0.0
176
     1
 90
        0
176
     1
290
     0
176
     1
290
     1
176
     1
290
     1
176
     1
290
     0
176
     1
290
     0
176
     1
290
     0
176
     1
290
     0
176
     1
290
     0
176
     1
290
     0
176
     1
 90
       50
176
     1
 40
0.0
176
     1
 40
1.0
176
     1
 90
        0
176
     1
 62
    18
420
        0
176
     1
 90
       50
176
     1
 90
        3
176
     1
 62
     5
420
      255
176
     1
290
     0
176
     1
 90
       50
176
     1
 90
       50
176
     1
 90
       50
176
     1
290
     0
176
     1
 90
       50
176
     1
 62
   256
176
     0
 40
1.0
176
     0
 90
        2
176
     1
  1
strokes_ogs.tif
176
     1
290
     0
176
     1
 40
1.0
176
     1
 40
1.0
176
     1
  0
VISUALSTYLE
  5
40
102
{ACAD_REACTORS
330
29
102
}
330
29
100
AcDbVisualStyle
  2
OverhangOff
 70
    21
177
     3
291
     1
 70
    58
 90
        2
176
     0
 90
        2
176
     0
 90
        0
176
     0
 90
        0
176
     0
 40
0.6
176
     0
 40
30.0
176
     0
 62
     7
420
 16777215
176
     0
 90
        1
176
     0
 90
        4
176
     0
 62
     7
176
     0
 62
   257
176
     0
 90
        1
176
     0
 90
        1
176
     0
 40
1.0
176
     0
 90
        9
176
     2
 62
     7
176
     0
 40
1.0
176
     0
 90
        1
176
     0
 90
        6
176
     0
 90
        2
176
     0
 62
     7
176
     0
 90
        5
176
     0
 90
        0
176
     0
 90
        0
176
     0
290
     0
176
     0
 90
        1
176
     0
 40
0.0
176
     0
 90
        0
176
     0
290
     0
176
     0
290
     1
176
     0
290
     1
176
     0
290
     0
176
     0
290
     0
176
     0
290
     0
176
     0
290
     0
176
     0
290
     0
176
     0
290
     0
176
     0
 90
       50
176
     0
 40
0.0
176
     0
 40
1.0
176
     0
 90
        0
176
     0
 62
    18
420
        0
176
     0
 90
       50
176
     0
 90
        3
176
     0
 62
     5
420
      255
176
     0
290
     0
176
     0
 90
       50
176
     0
 90
       50
176
     0
 90
       50
176
     0
290
     0
176
     0
 90
       50
176
     0
 62
   256
176
     0
 40
1.0
176
     0
 90
        2
176
     0
  1
strokes_ogs.tif
176
     0
290
     0
176
     0
 40
1.0
176
     0
 40
1.0
176
     0
  0
VISUALSTYLE
  5
33
102
{ACAD_REACTORS
330
29
102
}
330
29
100
AcDbVisualStyle
  2
Realistic
 70
     8
177
     3
291
     0
 70
    58
 90
        2
176
     1
 90
        3
176
     1
 90
        0
176
     1
 90
        2
176
     1
 40
0.6
176
     1
 40
30.0
176
     1
 62
     7
420
 16777215
176
     1
 90
        0
176
     1
 90
        0
176
     1
 62
     7
176
     1
 62
   257
176
     1
 90
        1
176
     1
 90
        1
176
     1
 40
1.0
176
     1
 90
        8
176
     1
 62
   257
176
     1
 40
1.0
176
     1
 90
        1
176
     1
 90
        6
176
     1
 90
        2
176
     1
 62
     7
176
     1
 90
        3
176
     1
 90
        0
176
     1
 90
        0
176
     1
290
     0
176
     1
 90
       13
176
     1
 40
0.0
176
     1
 90
        0
176
     1
290
     0
176
     1
290
     1
176
     1
290
     1
176
     1
290
     0
176
     1
290
     0
176
     1
290
     0
176
     1
290
     0
176
     1
290
     0
176
     1
290
     0
176
     1
 90
       50
176
     1
 40
0.0
176
     1
 40
1.0
176
     1
 90
        0
176
     1
 62
    18
420
        0
176
     1
 90
       50
176
     1
 90
        3
176
     1
 62
     5
420
      255
176
     1
290
     0
176
     1
 90
       50
176
     1
 90
       50
176
     1
 90
       50
176
     1
290
     0
176
     1
 90
       50
176
     1
 62
   256
176
     0
 40
1.0
176
     0
 90
        2
176
     1
  1
strokes_ogs.tif
176
     1
290
     0
176
     1
 40
1.0
176
     1
 40
1.0
176
     1
  0
VISUALSTYLE
  5
3E
102
{ACAD_REACTORS
330
29
102
}
330
29
100
AcDbVisualStyle
  2
Shaded
 70
    27
177
     3
291
     0
 70
    58
 90
        2
176
     1
 90
        2
176
     1
 90
        1
176
     1
 90
        2
176
     1
 40
0.6
176
     1
 40
30.0
176
     1
 62
     7
420
 16777215
176
     1
 90
        0
176
     1
 90
        4
176
     1
 62
     7
176
     1
 62
   257
176
     1
 90
        1
176
     1
 90
        1
176
     1
 40
1.0
176
     1
 90
        8
176
     1
 62
   257
176
     1
 40
1.0
176
     1
 90
        1
176
     1
 90
        6
176
     1
 90
        2
176
     1
 62
     8
420
  7895160
176
     1
 90
        3
176
     1
 90
        0
176
     1
 90
        0
176
     1
290
     0
176
     1
 90
        5
176
     1
 40
0.0
176
     1
 90
        0
176
     1
290
     0
176
     1
290
     1
176
     1
290
     1
176
     1
290
     0
176
     1
290
     0
176
     1
290
     0
176
     1
290
     0
176
     1
290
     0
176
     1
290
     0
176
     1
 90
       50
176
     1
 40
0.0
176
     1
 40
1.0
176
     1
 90
        0
176
     1
 62
    18
420
        0
176
     1
 90
       50
176
     1
 90
        3
176
     1
 62
     5
420
      255
176
     1
290
     0
176
     1
 90
       50
176
     1
 90
       50
176
     1
 90
       50
176
     1
290
     0
176
     1
 90
       50
176
     1
 62
   256
176
     0
 40
1.0
176
     0
 90
        2
176
     1
  1
strokes_ogs.tif
176
     1
290
     0
176
     1
 40
1.0
176
     1
 40
1.0
176
     1
  0
VISUALSTYLE
  5
3D
102
{ACAD_REACTORS
330
29
102
}
330
29
100
AcDbVisualStyle
  2
Shaded with edges
 70
    26
177
     3
291
     0
 70
    58
 90
        2
176
     1
 90
        2
176
     1
 90
        1
176
     1
 90
        2
176
     1
 40
0.6
176
     1
 40
30.0
176
     1
 62
     7
420
 16777215
176
     1
 90
        1
176
     1
 90
        2
176
     1
 62
     7
176
     1
 62
   257
176
     1
 90
        2
176
     1
 90
        1
176
     1
 40
1.0
176
     1
 90
        8
176
     1
 62
   257
176
     1
 40
1.0
176
     1
 90
        1
176
     1
 90
        6
176
     1
 90
        2
176
     1
 62
     7
176
     1
 90
        3
176
     1
 90
        0
176
     1
 90
        0
176
     1
290
     0
176
     1
 90
        5
176
     1
 40
0.0
176
     1
 90
        0
176
     1
290
     0
176
     1
290
     1
176
     1
290
     1
176
     1
290
     0
176
     1
290
     0
176
     1
290
     0
176
     1
290
     0
176
     1
290
     0
176
     1
290
     0
176
     1
 90
       50
176
     1
 40
0.0
176
     1
 40
1.0
176
     1
 90
        0
176
     1
 62
    18
420
        0
176
     1
 90
       50
176
     1
 90
        3
176
     1
 62
     5
420
      255
176
     1
290
     0
176
     1
 90
       50
176
     1
 90
       50
176
     1
 90
       50
176
     1
290
     0
176
     1
 90
       50
176
     1
 62
   256
176
     0
 40
1.0
176
     0
 90
        2
176
     1
  1
strokes_ogs.tif
176
     1
290
     0
176
     1
 40
1.0
176
     1
 40
1.0
176
     1
  0
VISUALSTYLE
  5
3A
102
{ACAD_REACTORS
330
29
102
}
330
29
100
AcDbVisualStyle
  2
Shades of Gray
 70
    23
177
     3
291
     0
 70
    58
 90
        2
176
     1
 90
        2
176
     1
 90
        3
176
     1
 90
        0
176
     1
 40
0.6
176
     1
 40
30.0
176
     1
 62
     7
420
 16777215
176
     1
 90
        2
176
     1
 90
        2
176
     1
 62
     7
176
     1
 62
     7
176
     1
 90
        1
176
     1
 90
        1
176
     1
 40
40.0
176
     1
 90
        8
176
     1
 62
     7
176
     1
 40
1.0
176
     1
 90
        1
176
     1
 90
        6
176
     1
 90
        2
176
     1
 62
     7
176
     1
 90
        3
176
     1
 90
        0
176
     1
 90
        0
176
     1
290
     0
176
     1
 90
        1
176
     1
 40
0.0
176
     1
 90
        0
176
     1
290
     0
176
     1
290
     1
176
     1
290
     1
176
     1
290
     0
176
     1
290
     0
176
     1
290
     0
176
     1
290
     0
176
     1
290
     0
176
     1
290
     0
176
     1
 90
       50
176
     1
 40
0.0
176
     1
 40
1.0
176
     1
 90
        0
176
     1
 62
    18
420
        0
176
     1
 90
       50
176
     1
 90
        3
176
     1
 62
     5
420
      255
176
     1
290
     0
176
     1
 90
       50
176
     1
 90
       50
176
     1
 90
       50
176
     1
290
     0
176
     1
 90
       50
176
     1
 62
   256
176
     0
 40
1.0
176
     0
 90
        2
176
     1
  1
strokes_ogs.tif
176
     1
290
     0
176
     1
 40
1.0
176
     1
 40
1.0
176
     1
  0
VISUALSTYLE
  5
3B
102
{ACAD_REACTORS
330
29
102
}
330
29
100
AcDbVisualStyle
  2
Sketchy
 70
    24
177
     3
291
     0
 70
    58
 90
        1
176
     1
 90
        2
176
     1
 90
        2
176
     1
 90
        0
176
     1
 40
0.6
176
     1
 40
30.0
176
     1
 62
     7
420
 16777215
176
     1
 90
        2
176
     1
 90
        2
176
     1
 62
     7
176
     1
 62
     7
176
     1
 90
        1
176
     1
 90
        1
176
     1
 40
40.0
176
     1
 90
       11
176
     1
 62
     7
176
     1
 40
1.0
176
     1
 90
        1
176
     1
 90
        6
176
     1
 90
        2
176
     1
 62
     7
176
     1
 90
        6
176
     1
 90
        0
176
     1
 90
        0
176
     1
290
     0
176
     1
 90
        1
176
     1
 40
0.0
176
     1
 90
        0
176
     1
290
     0
176
     1
290
     1
176
     1
290
     1
176
     1
290
     0
176
     1
290
     0
176
     1
290
     0
176
     1
290
     0
176
     1
290
     0
176
     1
290
     0
176
     1
 90
       50
176
     1
 40
0.0
176
     1
 40
1.0
176
     1
 90
        0
176
     1
 62
    18
420
        0
176
     1
 90
       50
176
     1
 90
        3
176
     1
 62
     5
420
      255
176
     1
290
     0
176
     1
 90
       50
176
     1
 90
       50
176
     1
 90
       50
176
     1
290
     0
176
     1
 90
       50
176
     1
 62
   256
176
     0
 40
1.0
176
     0
 90
        2
176
     1
  1
strokes_ogs.tif
176
     1
290
     0
176
     1
 40
1.0
176
     1
 40
1.0
176
     1
  0
VISUALSTYLE
  5
36
102
{ACAD_REACTORS
330
29
102
}
330
29
100
AcDbVisualStyle
  2
Thicken
 70
    13
177
     3
291
     1
 70
    58
 90
        2
176
     1
 90
        2
176
     1
 90
        0
176
     1
 90
        0
176
     1
 40
0.6
176
     1
 40
30.0
176
     1
 62
     7
420
 16777215
176
     1
 90
        1
176
     1
 90
        4
176
     1
 62
     7
176
     1
 62
   257
176
     1
 90
        1
176
     1
 90
        1
176
     1
 40
1.0
176
     1
 90
       12
176
     1
 62
     7
176
     1
 40
1.0
176
     1
 90
        1
176
     1
 90
        6
176
     1
 90
        2
176
     1
 62
     7
176
     1
 90
        5
176
     1
 90
        0
176
     1
 90
        0
176
     1
290
     0
176
     1
 90
        1
176
     1
 40
0.0
176
     1
 90
        0
176
     1
290
     0
176
     1
290
     1
176
     1
290
     1
176
     1
290
     0
176
     1
290
     0
176
     1
290
     0
176
     1
290
     0
176
     1
290
     0
176
     1
290
     0
176
     1
 90
       50
176
     1
 40
0.0
176
     1
 40
1.0
176
     1
 90
        0
176
     1
 62
    18
420
        0
176
     1
 90
       50
176
     1
 90
        3
176
     1
 62
     5
420
      255
176
     1
290
     0
176
     1
 90
       50
176
     1
 90
       50
176
     1
 90
       50
176
     1
290
     0
176
     1
 90
       50
176
     1
 62
   256
176
     0
 40
1.0
176
     0
 90
        2
176
     1
  1
strokes_ogs.tif
176
     1
290
     0
176
     1
 40
1.0
176
     1
 40
1.0
176
     1
  0
VISUALSTYLE
  5
30
102
{ACAD_REACTORS
330
29
102
}
330
29
100
AcDbVisualStyle
  2
Wireframe
 70
     5
177
     3
291
     0
 70
    58
 90
        0
176
     1
 90
        2
176
     1
 90
        0
176
     1
 90
        0
176
     1
 40
0.6
176
     1
 40
30.0
176
     1
 62
     7
420
 16777215
176
     1
 90
        1
176
     1
 90
        4
176
     1
 62
     7
176
     1
 62
   257
176
     1
 90
        1
176
     1
 90
        1
176
     1
 40
1.0
176
     1
 90
        0
176
     1
 62
   257
176
     1
 40
1.0
176
     1
 90
        1
176
     1
 90
        6
176
     1
 90
        2
176
     1
 62
     7
176
     1
 90
        3
176
     1
 90
        0
176
     1
 90
        0
176
     1
290
     0
176
     1
 90
        1
176
     1
 40
0.0
176
     1
 90
        0
176
     1
290
     0
176
     1
290
     1
176
     1
290
     1
176
     1
290
     0
176
     1
290
     0
176
     1
290
     0
176
     1
290
     0
176
     1
290
     0
176
     1
290
     0
176
     1
 90
       50
176
     1
 40
0.0
176
     1
 40
1.0
176
     1
 90
        0
176
     1
 62
    18
420
        0
176
     1
 90
       50
176
     1
 90
        3
176
     1
 62
     5
420
      255
176
     1
290
     0
176
     1
 90
       50
176
     1
 90
       50
176
     1
 90
       50
176
     1
290
     0
176
     1
 90
       50
176
     1
 62
   256
176
     0
 40
1.0
176
     0
 90
        2
176
     1
  1
strokes_ogs.tif
176
     1
290
     0
176
     1
 40
1.0
176
     1
 40
1.0
176
     1
  0
VISUALSTYLE
  5
3C
102
{ACAD_REACTORS
330
29
102
}
330
29
100
AcDbVisualStyle
  2
X-Ray
 70
    25
177
     3
291
     0
 70
    58
 90
        2
176
     1
 90
        2
176
     1
 90
        1
176
     1
 90
        1
176
     1
 40
0.5
176
     1
 40
30.0
176
     1
 62
     7
420
 16777215
176
     1
 90
        1
176
     1
 90
        0
176
     1
 62
     7
176
     1
 62
   257
176
     1
 90
        1
176
     1
 90
        1
176
     1
 40
1.0
176
     1
 90
        8
176
     1
 62
     7
176
     1
 40
1.0
176
     1
 90
        1
176
     1
 90
        6
176
     1
 90
        2
176
     1
 62
     7
176
     1
 90
        3
176
     1
 90
        0
176
     1
 90
        0
176
     1
290
     0
176
     1
 90
       13
176
     1
 40
0.0
176
     1
 90
        0
176
     1
290
     0
176
     1
290
     1
176
     1
290
     1
176
     1
290
     0
176
     1
290
     0
176
     1
290
     0
176
     1
290
     0
176
     1
290
     0
176
     1
290
     0
176
     1
 90
       50
176
     1
 40
0.0
176
     1
 40
1.0
176
     1
 90
        0
176
     1
 62
    18
420
        0
176
     1
 90
       50
176
     1
 90
        3
176
     1
 62
     5
420
      255
176
     1
290
     0
176
     1
 90
       50
176
     1
 90
       50
176
     1
 90
       50
176
     1
290
     0
176
     1
 90
       50
176
     1
 62
   256
176
     0
 40
1.0
176
     0
 90
        2
176
     1
  1
strokes_ogs.tif
176
     1
290
     0
176
     1
 40
1.0
176
     1
 40
1.0
176
     1
  0
DICTIONARYVAR
  5
A5
102
{ACAD_REACTORS
330
A0
102
}
330
A0
100
DictionaryVariables
280
     0
  1
1:1
  0
DICTIONARYVAR
  5
A2
102
{ACAD_REACTORS
330
A0
102
}
330
A0
100
DictionaryVariables
280
     0
  1
STANDARD
  0
DICTIONARYVAR
  5
A1
102
{ACAD_REACTORS
330
A0
102
}
330
A0
100
DictionaryVariables
280
     0
  1
STANDARD
  0
DICTIONARYVAR
  5
A3
102
{ACAD_REACTORS
330
A0
102
}
330
A0
100
DictionaryVariables
280
     0
  1
Imperial24
  0
DICTIONARYVAR
  5
A4
102
{ACAD_REACTORS
330
A0
102
}
330
A0
100
DictionaryVariables
280
     0
  1
Imperial24
  0
DICTIONARY
  5
1A
330
19
100
AcDbDictionary
280
     1
281
     1
  3
BUMPTILE
360
1C
  3
DIFFUSETILE
360
1B
  3
OPACITYTILE
360
1F
  3
REFLECTIONTILE
360
1E
  3
REFRACTIONTILE
360
20
  3
SPECULARTILE
360
1D
  0
DICTIONARY
  5
12
330
11
100
AcDbDictionary
280
     1
281
     1
  3
BUMPTILE
360
14
  3
DIFFUSETILE
360
13
  3
OPACITYTILE
360
17
  3
REFLECTIONTILE
360
16
  3
REFRACTIONTILE
360
18
  3
SPECULARTILE
360
15
  0
DICTIONARY
  5
22
330
21
100
AcDbDictionary
280
     1
281
     1
  3
BUMPTILE
360
24
  3
DIFFUSETILE
360
23
  3
OPACITYTILE
360
27
  3
REFLECTIONTILE
360
26
  3
REFRACTIONTILE
360
28
  3
SPECULARTILE
360
25
  0
DICTIONARY
  5
A6
330
65
100
AcDbDictionary
280
     1
281
     1
  3
ACAD_ROUNDTRIP_2008_TABLESTYLE_CELLSTYLEMAP
360
A7
  0
XRECORD
  5
1C
102
{ACAD_REACTORS
330
1A
102
}
330
1A
100
AcDbXrecord
280
     1
270
     1
271
     1
  0
XRECORD
  5
1B
102
{ACAD_REACTORS
330
1A
102
}
330
1A
100
AcDbXrecord
280
     1
270
     1
271
     1
  0
XRECORD
  5
1F
102
{ACAD_REACTORS
330
1A
102
}
330
1A
100
AcDbXrecord
280
     1
270
     1
271
     1
  0
XRECORD
  5
1E
102
{ACAD_REACTORS
330
1A
102
}
330
1A
100
AcDbXrecord
280
     1
270
     1
271
     1
  0
XRECORD
  5
20
102
{ACAD_REACTORS
330
1A
102
}
330
1A
100
AcDbXrecord
280
     1
270
     1
271
     1
  0
XRECORD
  5
1D
102
{ACAD_REACTORS
330
1A
102
}
330
1A
100
AcDbXrecord
280
     1
270
     1
271
     1
  0
XRECORD
  5
14
102
{ACAD_REACTORS
330
12
102
}
330
12
100
AcDbXrecord
280
     1
270
     1
271
     1
  0
XRECORD
  5
13
102
{ACAD_REACTORS
330
12
102
}
330
12
100
AcDbXrecord
280
     1
270
     1
271
     1
  0
XRECORD
  5
17
102
{ACAD_REACTORS
330
12
102
}
330
12
100
AcDbXrecord
280
     1
270
     1
271
     1
  0
XRECORD
  5
16
102
{ACAD_REACTORS
330
12
102
}
330
12
100
AcDbXrecord
280
     1
270
     1
271
     1
  0
XRECORD
  5
18
102
{ACAD_REACTORS
330
12
102
}
330
12
100
AcDbXrecord
280
     1
270
     1
271
     1
  0
XRECORD
  5
15
102
{ACAD_REACTORS
330
12
102
}
330
12
100
AcDbXrecord
280
     1
270
     1
271
     1
  0
XRECORD
  5
24
102
{ACAD_REACTORS
330
22
102
}
330
22
100
AcDbXrecord
280
     1
270
     1
271
     1
  0
XRECORD
  5
23
102
{ACAD_REACTORS
330
22
102
}
330
22
100
AcDbXrecord
280
     1
270
     1
271
     1
  0
XRECORD
  5
27
102
{ACAD_REACTORS
330
22
102
}
330
22
100
AcDbXrecord
280
     1
270
     1
271
     1
  0
XRECORD
  5
26
102
{ACAD_REACTORS
330
22
102
}
330
22
100
AcDbXrecord
280
     1
270
     1
271
     1
  0
XRECORD
  5
28
102
{ACAD_REACTORS
330
22
102
}
330
22
100
AcDbXrecord
280
     1
270
     1
271
     1
  0
XRECORD
  5
25
102
{ACAD_REACTORS
330
22
102
}
330
22
100
AcDbXrecord
280
     1
270
     1
271
     1
  0
CELLSTYLEMAP
  5
A7
102
{ACAD_REACTORS
330
A6
102
}
330
A6
100
AcDbCellStyleMap
 90
        3
300
CELLSTYLE
  1
TABLEFORMAT_BEGIN
 90
        5
170
     1
 91
        0
 92
    32768
 62
   257
 93
        1
300
CONTENTFORMAT
  1
CONTENTFORMAT_BEGIN
 90
        0
 91
        0
 92
      512
 93
        0
300

 40
0.0
140
1.0
 94
        5
 62
     0
340
55
144
0.25
309
CONTENTFORMAT_END
171
     0
 94
        0
309
TABLEFORMAT_END
  1
CELLSTYLE_BEGIN
 90
        1
 91
        1
300
_TITLE
309
CELLSTYLE_END
300
CELLSTYLE
  1
TABLEFORMAT_BEGIN
 90
        5
170
     1
 91
        0
 92
        0
 62
   257
 93
        1
300
CONTENTFORMAT
  1
CONTENTFORMAT_BEGIN
 90
        0
 91
        0
 92
      512
 93
        0
300

 40
0.0
140
1.0
 94
        5
 62
     0
340
55
144
0.18
309
CONTENTFORMAT_END
171
     0
 94
        0
309
TABLEFORMAT_END
  1
CELLSTYLE_BEGIN
 90
        2
 91
        1
300
_HEADER
309
CELLSTYLE_END
300
CELLSTYLE
  1
TABLEFORMAT_BEGIN
 90
        5
170
     1
 91
        0
 92
        0
 62
   257
 93
        1
300
CONTENTFORMAT
  1
CONTENTFORMAT_BEGIN
 90
        0
 91
        0
 92
      512
 93
        0
300

 40
0.0
140
1.0
 94
        2
 62
     0
340
55
144
0.18
309
CONTENTFORMAT_END
171
     0
 94
        0
309
TABLEFORMAT_END
  1
CELLSTYLE_BEGIN
 90
        3
 91
        2
300
_DATA
309
CELLSTYLE_END
  0
ENDSEC
  0
EOF
